<?xml version="1.0" standalone="no"?>
<!DOCTYPE svg PUBLIC "-//W3C//DTD SVG 1.1//EN" "http://www.w3.org/Graphics/SVG/1.1/DTD/svg11.dtd" >
<svg xmlns="http://www.w3.org/2000/svg">
<metadata></metadata>
<defs>
<font id="master_of_breakregular" horiz-adv-x="987" >
<font-face units-per-em="2048" ascent="1536" descent="-512" />
<missing-glyph horiz-adv-x="497" />
<glyph horiz-adv-x="0" />
<glyph horiz-adv-x="682" />
<glyph horiz-adv-x="0" />
<glyph horiz-adv-x="0" />
<glyph unicode="&#xd;" horiz-adv-x="663" />
<glyph unicode=" "  horiz-adv-x="497" />
<glyph unicode="&#x09;" horiz-adv-x="497" />
<glyph unicode="&#xa0;" horiz-adv-x="497" />
<glyph unicode="!" horiz-adv-x="823" d="M6 98q0 58 39 89.5t94 31.5q56 0 100 -31.5t44 -89.5q0 -35 -14 -60t-31 -36.5t-40 -18.5t-33 -7.5t-18 -0.5q-55 0 -98 33t-43 90zM197 524q0 28 163.5 294t327.5 539t164 320q0 25 34 14q45 -16 83 -70q37 -55 37 -116q0 -31 -63 -137.5t-153 -243.5t-179.5 -279 t-152.5 -269.5t-63 -188.5q0 -23 -45 -16q-61 9 -109 55q-44 43 -44 98z" />
<glyph unicode="&#x22;" horiz-adv-x="1038" d="M289 1202q11 21 39 70q61 108 63 141q0 32 65 12q62 -19 96 -52q13 -13 13 -23q0 -26 -58 -81.5t-124 -100t-88 -44.5q-44 0 -6 78zM592 1202q10 21 38 69q62 109 64 142q0 32 65 12q62 -19 96 -52q13 -13 13 -23q0 -39 -117 -132.5t-155 -93.5q-43 0 -4 78z" />
<glyph unicode="#" horiz-adv-x="1429" d="M70 515q3 11 16 11q3 0 37.5 -2t102.5 -6.5t136 -7.5q14 21 29.5 45.5t34.5 55t29 46.5q-106 2 -217 2q-79 0 -137 62q-37 40 -31 65q2 11 16 11q4 0 61.5 -3.5t166 -10t210.5 -11.5q176 291 176 336q0 27 53 6q54 -22 81 -57q10 -13 10 -23q0 -22 -35.5 -85t-112.5 -187 q40 -2 121 -5t121 -5q188 313 188 356q0 27 53 6q54 -22 81 -57q10 -13 10 -23q0 -38 -160 -289h131q42 0 72.5 -8.5t41.5 -18.5t11 -18q0 -27 -309 -38q-103 -164 -115 -183q166 -6 299 -6q43 0 73 -8t41 -18t11 -19q0 -37 -481 -41q-176 -295 -176 -379q1 -15 -32 -4 q-51 16 -81 63q-21 33 -21 70q0 20 138 248q-178 0 -254 2q-176 -295 -176 -379q1 -15 -31 -5q-50 17 -81 64q-21 32 -21 70q0 24 139 252h-51q-79 0 -137 62q-37 40 -31 64zM528 500q34 -2 118 -6.5t130 -6.5q19 32 56.5 92t48.5 78h-252q-86 -133 -101 -157z" />
<glyph unicode="$" horiz-adv-x="1445" d="M10 434q6 39 64.5 86.5t138.5 85t167.5 66.5t152.5 32t92 -20q6 9 26.5 42.5t34.5 51.5q-69 13 -123.5 28.5t-107 41t-85 58t-48.5 80.5t-7 106q16 88 130.5 167t264 122.5t281.5 43.5q54 0 72 -2q108 189 108 238v2h7q43 0 118.5 -50.5t75.5 -80.5q0 -48 -84 -170 q72 -42 72 -72q0 -21 -39 -55q-35 -28 -39 -12q0 12 -12.5 22.5t-36.5 14.5q-52 -96 -225 -361q-23 -32 -33 -51q79 -21 141.5 -43.5t124.5 -58t100.5 -76.5t57 -99.5t6.5 -126.5q-13 -69 -84 -144t-177 -137t-251 -102.5t-293 -40.5q-72 0 -113 11q-95 -195 -98 -287 q-19 1 -49 16t-61.5 41.5t-53.5 69.5t-22 92q0 16 61 125q-131 66 -200.5 166.5t-53.5 179.5zM131 367q-5 -53 47.5 -98.5t155.5 -59.5q177 287 258 430q-18 12 -27 12q-29 0 -95 -24.5t-138 -62.5t-131 -92t-70 -105zM467 993q-6 -23 42 -42q39 -16 220 -52q13 -2 23 -4 q81 122 219 360q-113 -17 -219 -51t-189.5 -90.5t-95.5 -120.5zM594 233q104 19 207.5 53t195 79.5t153.5 105.5t73 123q6 35 -14.5 61t-69 43t-99.5 27t-129 20q-170 -262 -317 -512z" />
<glyph unicode="%" horiz-adv-x="1206" d="M135 922q-13 103 64 239q62 113 151 193t142 80q36 0 61 -31q14 -27 14 -53q0 -41 -24 -41q-4 0 -8 2q-69 -6 -170 -144q-49 -66 -83.5 -148t-27.5 -130q3 -29 12.5 -38t26.5 -9q78 0 196 192q90 161 78 242q-4 11 8 20q11 11 37 11q30 0 54 -14.5t28 -41.5 q11 -72 -38 -186.5t-130 -206.5q-103 -119 -192 -119q-78 0 -134 59t-65 124zM295 125q0 29 15.5 72t50.5 107t65.5 115.5t87 143.5t88.5 146q57 95 150.5 250.5t136.5 228t95 163.5t72.5 138.5t22.5 71.5q40 -2 94 -57.5t54 -131.5q0 -23 -34 -79t-110 -170.5t-131 -204.5 q-29 -47 -98.5 -158.5t-103.5 -167.5t-91.5 -151.5t-88.5 -154t-65.5 -128.5t-51 -121t-19.5 -88q-43 8 -91 55.5t-48 120.5zM729 188q-12 95 64 238q62 114 149.5 194t140.5 80q42 0 62 -34q16 -18 16 -54q0 -37 -24 -37h-7q-78 -6 -172 -141q-50 -70 -83.5 -151.5 t-26.5 -130.5q9 -46 37 -46q81 0 196 193q94 162 80 242q0 11 8 16q9 14 37 14q30 0 54 -14t28 -39q10 -74 -38.5 -187t-129.5 -208q-104 -117 -190 -117q-79 0 -135 58t-66 124z" />
<glyph unicode="&#x26;" horiz-adv-x="1523" d="M147 293q34 146 193 289q93 90 207 153q2 81 26.5 185.5t67.5 193.5q125 268 350 268q111 0 176 -94q45 -67 45 -139q0 -143 -251 -332q-35 -26 -74.5 -51.5t-64 -40.5t-57.5 -33.5t-38 -21.5q6 -183 41 -293q6 8 29 36t32 44q-25 33 -26 35q-45 54 -45 86q0 18 10.5 28 t24.5 10l30 -6q15 -10 33 -10q6 0 34.5 5t47.5 7q18 2 56.5 7.5t70 8.5t55.5 3q65 0 103 -23q32 -22 32 -55q0 -27 -43 -39q-37 -14 -67 -18q-66 -21 -137 -31q-37 -131 -154 -266q19 -30 45 -51t51 -29.5t42 -11.5t30 -3q99 0 133 54q14 26 39 26q8 0 15.5 -4t12 -8.5 t8.5 -9.5l5 -6l6 -11l-6 -8q-67 -135 -234 -135q-135 0 -256 98q-24 -22 -98 -71q-136 -82 -246 -82q-38 0 -63 10q-101 33 -160 143q-47 100 -31 193zM295 190q-5 -38 4 -54t29 -21q20 -4 30 -4q110 0 291 153q-60 163 -78 256q-2 -2 -4 -2q-99 -73 -180 -166t-92 -162z M745 848q74 46 142 106q165 143 180 242q-113 -14 -225 -172q-49 -63 -97 -176z" />
<glyph unicode="'" horiz-adv-x="718" d="M582 1436q11 21 39 70q61 108 63 141q0 32 65 12q62 -19 96 -53q13 -13 13 -23q0 -26 -58 -81t-124 -99.5t-88 -44.5q-44 0 -6 78z" />
<glyph unicode="(" horiz-adv-x="1005" d="M340 336q0 171 59 359t153 350.5t212.5 311.5t236.5 255t226 168.5t180 62.5q66 0 123 -63q47 -52 41 -93q-7 -31 -49 -32q-24 0 -80 -30t-133 -83t-166 -132.5t-179 -172.5t-173 -208t-147.5 -234.5t-103 -257.5t-38.5 -271q0 -69 7.5 -139t15.5 -113.5t13 -80 t0.5 -52.5t-22.5 -16q-70 0 -123 126t-53 345z" />
<glyph unicode=")" d="M70 -102q0 5 21.5 20t58 37.5t85 59.5t103.5 82.5t112.5 110t112.5 138t103.5 171t85 204.5t58 242.5t21.5 281.5q0 105 -20 203.5t-38.5 147.5t-46.5 112q-13 28 -18 41t-11 31.5t-2.5 25.5t10.5 16.5t24 12.5t41.5 5.5t60.5 2.5q64 0 113 -84t74.5 -223t25.5 -307 q0 -154 -41.5 -320.5t-110 -315.5t-161 -284t-192 -233t-204.5 -155.5t-196 -57.5q-69 0 -69 35z" />
<glyph unicode="*" horiz-adv-x="866" d="M167.5 1388.5q1.5 7.5 4 9t8.5 1.5q12 0 39.5 -12t44.5 -15q91 -22 211 -22l-158 217q-18 15 -18 49q-3 21 6 36.5t25 20.5q7 0 20 -16q71 -65 225 -246q74 162 91 242q0 2 1 21.5t4 32.5t9 13q1 0 6 -2.5t14 -6t19 -5.5q4 -3 29 -16.5t42 -33.5t21 -50q5 -26 -12.5 -71 t-89.5 -187l262 10q24 0 53 -13t33 -38q3 -10 -6 -15.5t-25 -5.5l-299 -47q93 -114 118.5 -153t28.5 -66q1 -24 -7.5 -45t-18 -31t-26.5 -24.5t-19 -16.5q-7 -5 -15 -11t-12 -8.5t-6 -2.5q-5 -1 -9 3.5t-7 13.5t-5.5 17.5t-4.5 17.5t-3 11q-27 53 -137 217 q-117 -213 -172 -289q-1 -2 -3 -6.5t-3 -6t-2.5 -4t-3.5 -3t-4 -0.5q-15 0 -26.5 13.5t-14.5 35.5q-4 37 8 51l106 254q-43 -2 -133 -2q-44 0 -78.5 13.5t-53.5 31.5t-31.5 42.5t-16.5 40.5t-6 32q-4 17 -2.5 24.5z" />
<glyph unicode="+" horiz-adv-x="1417" d="M199 737q0 13 10.5 15t44.5 -3t80 -12t134.5 -13.5t190.5 -6.5q132 293 132 356q0 76 52 74q45 -3 91 -51q37 -39 37 -72q0 -31 -31.5 -108t-62.5 -138l-31 -61q258 18 315 18q44 0 74.5 -18.5t30.5 -48.5q0 -16 -126.5 -41t-253.5 -41l-126 -17q-229 -448 -266 -448 q-52 0 -52 88q0 27 35.5 112.5t70.5 157.5l36 72q-121 -12 -246 -12q-42 0 -71.5 23.5t-43 59t-19 64t-5.5 51.5z" />
<glyph unicode="," horiz-adv-x="595" d="M6 -315q12 32 45 106q68 157 72 205q0 42 60 24q59 -18 106 -65q28 -28 28 -49q0 -38 -64.5 -118.5t-138.5 -144t-100 -63.5q-48 0 -8 105z" />
<glyph unicode="-" horiz-adv-x="1284" d="M166 846q-6 16 8 37q13 17 37 20q19 4 34.5 -3.5t20.5 -22.5v-3q3 -10 1 -19t0.5 -14t13.5 -3q6 1 110 49.5t241 103.5t224 74q72 15 132.5 -16.5t68.5 -61.5q8 -23 -6 -37q-14 -17 -35 -20q-2 -2 -4 -2q-29 -4 -43 10q-8 5 -11 12q-27 9 -88 -4q-4 0 -16 -4 q-74 -18 -242 -70q-137 -41 -264 -75q-2 0 -7 -1t-7 -1q-77 -17 -118.5 2.5t-49.5 48.5zM205 193q-8 26 6 45q14 21 35 24h2q12 4 27 1.5t18 -13.5q3 -16 -2.5 -30.5t-1.5 -31.5q6 -11 35 -7.5t82 20t112 38t124.5 47t119 47.5t96 38.5t55.5 19.5q7 0 15 4q77 17 119.5 -9.5 t52.5 -63.5q7 -24 -6 -46q-14 -21 -35 -24q-20 -5 -38 6t-22 31q-3 15 -1 26.5t-0.5 17.5t-14.5 3q-7 -1 -109 -55t-238 -115.5t-224 -79.5q-72 -17 -134.5 26t-72.5 81zM330 492q0 59 20.5 119.5t64 105.5t99.5 45q37 0 67.5 -38.5t30.5 -135.5q0 -101 -48.5 -171.5 t-96.5 -70.5q-23 0 -45.5 7.5t-44 23t-34.5 45.5t-13 70zM406 504q0 -60 19 -87.5t44 -27.5q23 0 45.5 55.5t22.5 135.5q0 54 -8.5 87.5t-17.5 42.5t-19 9q-38 0 -62 -70t-24 -145zM666 412q0 3 14 46q8 25 8 42v237q0 12 -6 24t-9.5 18t3.5 13t29 13q9 2 52 16t79 23.5 t53 9.5q6 0 11 -2t8 -6.5t4.5 -8.5t2 -12t0.5 -12.5v-14.5v-14q0 -22 -5 -23t-17 13q-8 8 -21.5 14t-22.5 8l-9 1q-36 -9 -52 -15q-16 -5 -23 -16t-7 -39v-55q7 1 26 6t23 6q3 1 7 5t7 8q7 10 9.5 10t3.5 -15q0 -71 -9 -71q-4 0 -10.5 7.5t-15.5 4.5l-41 -12v-27v-88 q0 -13 3 -25.5t6.5 -21t6 -15.5t0.5 -11.5t-10 -6.5q-36 -7 -78 -20q-20 -6 -20 6z" />
<glyph unicode="." horiz-adv-x="618" d="M115 121q0 56 38.5 86.5t90.5 30.5q56 0 97.5 -29.5t41.5 -87.5q0 -34 -13.5 -59t-30 -36.5t-38.5 -18t-31.5 -7t-17.5 -0.5q-54 0 -95.5 33t-41.5 88z" />
<glyph unicode="/" horiz-adv-x="892" d="M0 2q0 31 134.5 264t296.5 498t296.5 508t134.5 293q0 32 28 16q39 -22 76 -96q44 -87 44 -178q0 -42 -85 -186t-206 -330.5t-242 -379.5t-206 -365.5t-85 -254.5q2 -19 -33 -10q-54 15 -99 71q-54 65 -54 150z" />
<glyph unicode="0" horiz-adv-x="1136" d="M63 358q-28 202 134 498q133 244 317.5 409t284.5 165q88 0 119 -87q19 -55 6 -96q-7 -24 -19 -12q-178 0 -411 -322q-117 -166 -203 -366t-70 -314q9 -66 39 -97.5t84 -31.5q186 0 471 461q7 10 10 15q99 168 145 310.5t31 235.5q-3 20 41 26q63 8 115 -23 q41 -24 47 -64q20 -150 -84 -390.5t-272 -434.5q-102 -118 -202 -180t-185 -62q-81 0 -154.5 35t-123 89t-81 116t-39.5 120z" />
<glyph unicode="1" horiz-adv-x="624" d="M0 172q-5 74 180 401q99 176 322 525q1 1 4 6t8.5 13t9.5 16q-108 -13 -186 47q-31 22 -38 40.5t6.5 27.5t39.5 7q79 -12 168.5 9.5t169.5 99.5q53 74 66 74q38 0 77 -35.5t45 -75.5q5 -36 -9 -66t-75 -114q-84 -118 -173 -253t-199 -314.5t-180 -334.5t-70 -237 q1 -17 -34 -6q-56 17 -96 70q-34 45 -36 100z" />
<glyph unicode="2" horiz-adv-x="1222" d="M4 160q-6 39 31.5 71.5t148.5 98.5q135 78 293.5 196t288.5 238q167 155 265.5 288.5t88.5 202.5q-3 17 -29 30t-73 13q-109 0 -214 -30t-180 -74t-134 -93t-88 -88t-29 -57q0 -28 -33 -6q-40 28 -66 80q-14 30 -14 53q0 52 45 105q82 96 254.5 173t331.5 77 q77 0 160 -45t139.5 -120t56.5 -153q0 -77 -57 -183t-159.5 -222.5t-264 -241.5t-352.5 -229q-3 0 -8 -2.5l-7 -3.5q37 1 131 2.5t176 4.5t179 9q114 8 235 96q18 11 22.5 34.5t14.5 29.5q33 23 38 -25q6 -64 -35 -159q-40 -96 -99 -136q-54 -39 -285 -51q-458 -31 -620 -43 q-4 -2 -15 -2q-39 0 -85.5 58t-51.5 104z" />
<glyph unicode="3" horiz-adv-x="1171" d="M4 209q0 51 49 113l2 2q12 8 29 8q12 0 17 -10.5t3 -16.5q0 -27 -8 -43q3 -33 51.5 -56.5t104.5 -23.5q262 0 565 224q49 36 82 82.5t35 78.5q0 41 -80 66q-58 24 -166 24q-87 0 -141 -8q-36 -5 -95 27.5t-59 66.5q0 16 4 23.5t32 25t91 44.5l37 16q27 15 100.5 52 t131.5 68t122 69t102.5 73.5t41.5 63.5q4 32 -14.5 49.5t-82.5 17.5q-105 0 -194.5 -25.5t-142 -62t-82 -70t-33.5 -57.5q-5 -30 -34 -5q-35 30 -49 82q-7 27 -3 48q7 48 63 102q191 179 512 179q93 0 151.5 -82.5t45.5 -214.5q-6 -61 -80.5 -135t-170 -131.5t-165 -94.5 t-92.5 -45q163 0 251.5 -28t133.5 -91q31 -48 31 -118q-1 -61 -33.5 -123t-89.5 -115q-115 -110 -306 -184t-358 -74q-138 0 -225 59t-84 150z" />
<glyph unicode="4" horiz-adv-x="1161" d="M49 518q-3 28 17 51q10 13 22 19q185 133 385.5 305t370.5 329.5t215 194.5q27 21 31 21q54 -1 107 -35.5t81 -69.5t31 -51q3 -23 -28 -77.5t-132 -213.5q-128 -191 -262 -428q104 8 175.5 27.5t72.5 46.5q1 2 3 5t7.5 8t9.5 5.5t7 -8t3 -26.5q-1 -29 -12.5 -58.5 t-37.5 -60.5t-78 -50.5t-124 -19.5q-57 0 -100 -2q-137 -267 -137 -383v-37l-4 -2q-8 -8 -27 -8q-49 0 -90 58t-41 106q0 22 1.5 44t3.5 39.5t5.5 35t6.5 31t7.5 27t8 22.5t8 19t6.5 14.5t6 11.5t4 8q-212 -16 -315 -41q-45 -10 -90 -10q-21 0 -39 18h-2l-2 2 q-32 62 -62 109zM299 557q32 0 124.5 1t145.5 1.5t78 -0.5q10 18 167 293.5t187 329.5q-8 -7 -130.5 -132t-270.5 -256.5t-301 -236.5z" />
<glyph unicode="5" horiz-adv-x="1204" d="M-39 262q0 103 27 133q19 19 32 19q11 0 21 -12t12 -23q11 -83 64.5 -139t142.5 -56q109 0 193 35q81 29 166.5 95.5t151 146t103.5 168t29 155.5q-4 34 -36 46t-95 12q-51 0 -112.5 -12.5t-89.5 -22t-87 -29.5q-76 -26 -90 -26h-2h-4q-58 27 -90 70t-39 85q-2 19 42 93 t138 217t121 186l4 8h8q12 0 31 -8q226 -53 580 14q16 5 32 21q25 14 35 16q5 6 17 -6q11 -5 14 -33q2 -58 -38 -134.5t-95 -86.5q-30 -3 -55 -3t-78.5 5t-96.5 10t-109 12.5t-116 12.5l-211 -340q176 43 250 43q142 0 234 -64.5t110 -197.5q27 -198 -123 -383 q-103 -123 -291 -208t-339 -85q-144 0 -244 73.5t-117 192.5z" />
<glyph unicode="6" horiz-adv-x="1015" d="M18 324q-13 96 15.5 210t86 220.5t133.5 209t158 183.5t160 135q122 86 240 125q85 29 164 29q171 0 189 -88q10 -50 -26 -99q-18 -24 -30 -24q-8 0 -28 29.5t-42 29.5q-120 0 -227 -61q-182 -114 -319 -269q77 45 147 45q107 0 208 -77.5t114 -186.5q15 -113 -37 -254 t-150 -248q-29 -33 -65.5 -66.5t-91.5 -74t-122.5 -65.5t-132.5 -25q-55 0 -118 28t-119 76q-85 76 -107 218zM178 213q5 -36 35 -63t72 -27q68 0 152 55.5t167 155.5q96 116 147.5 240t39.5 210q-6 55 -31.5 80t-75.5 25q-72 0 -157.5 -54t-164.5 -151 q-95 -114 -145.5 -244t-38.5 -227z" />
<glyph unicode="7" horiz-adv-x="890" d="M61 172q7 75 248 401q24 32 80.5 98.5t196.5 215t307 309.5q-182 -23 -318 -33q-207 -15 -253 13q-63 38 -98 151q-27 91 -12 135q9 26 32 13q8 -5 10 -28t18 -32q2 -1 32 -20t49.5 -29.5t55.5 -20t70 -6.5q132 10 294 36.5t224 31.5q57 4 97 -10.5t58 -41t25 -51.5 t5 -49h-2q0 -16 -7 -33t-24 -37.5t-26 -30t-35 -33.5t-27 -25q-367 -342 -600 -643q-118 -167 -183.5 -274t-74.5 -171q-2 -18 -37 -6q-51 18 -82 70q-28 45 -23 100z" />
<glyph unicode="8" horiz-adv-x="1064" d="M2 332q0 78 39.5 159.5t101.5 147.5t130.5 117.5t134.5 83.5q-67 67 -80 164q-9 116 108 243q87 90 200.5 140.5t229.5 50.5q98 0 188.5 -79.5t90.5 -176.5q0 -55 -18.5 -105.5t-47 -88.5t-68 -73t-75 -57.5t-74.5 -42.5q94 -94 109 -223q18 -148 -92 -295 q-100 -129 -261 -215t-280 -86q-76 0 -155 52.5t-130 131.5t-51 152zM141 258q4 -40 24.5 -55.5t65.5 -20.5q104 -11 248 50t248 161q122 122 131 240q-3 52 -24.5 77.5t-65.5 30.5q-95 11 -251.5 -68.5t-262.5 -191.5q-113 -119 -113 -223zM477 944q3 -20 24 -32.5 t52 -12.5q43 0 74 8q77 18 166.5 65.5t156.5 119t60 137.5q-9 57 -76 57q-134 0 -261 -76t-184 -190q-17 -39 -12 -76z" />
<glyph unicode="9" horiz-adv-x="1081" d="M9 88q-10 50 27 99q18 23 30 24q7 0 16 -14.5t22 -29.5t31 -15q121 0 225 61q165 99 322 268q-80 -43 -147 -43q-108 0 -208.5 77t-117.5 187q-15 111 38.5 254t149.5 248q30 34 66 67.5t91.5 74.5t123 66.5t133.5 25.5q55 0 119 -28.5t121 -78.5q81 -70 104 -215 q14 -97 -14.5 -212t-86 -221.5t-133.5 -209t-157.5 -183.5t-159.5 -136q-116 -83 -244 -127q-76 -27 -161 -27q-172 0 -190 88zM379 649q9 -53 34.5 -77.5t75.5 -24.5q72 0 157.5 54t164.5 151q95 117 146.5 247.5t39.5 225.5q-6 36 -36 64t-72 28q-69 0 -154 -56t-166 -157 q-97 -117 -149 -241.5t-41 -213.5z" />
<glyph unicode=":" horiz-adv-x="491" d="M0 233q0 56 38.5 86.5t90.5 30.5q56 0 97.5 -29.5t41.5 -87.5q0 -34 -13.5 -58.5t-29.5 -36t-39 -18t-32 -7t-17 -0.5q-54 0 -95.5 32.5t-41.5 87.5zM217 612q0 56 38.5 86.5t90.5 30.5q56 0 97.5 -29.5t41.5 -87.5q0 -34 -13.5 -58.5t-29.5 -36t-39 -18t-32 -7t-17 -0.5 q-54 0 -95.5 33t-41.5 87z" />
<glyph unicode=";" horiz-adv-x="442" d="M-82 -306q12 33 46 107q67 157 71 205q0 42 60 23q59 -18 106 -66q28 -28 28 -49q0 -37 -65 -117.5t-139 -144.5t-99 -64q-48 0 -8 106zM123 293q0 57 38 87t91 30q56 0 97.5 -29.5t41.5 -87.5q0 -34 -13.5 -59t-30 -36.5t-38.5 -18t-31.5 -7t-17.5 -0.5 q-54 0 -95.5 33.5t-41.5 87.5z" />
<glyph unicode="&#x3c;" horiz-adv-x="1015" d="M240 614q0 18 15 38t31 32t44 31q26 14 102 67q304 196 359 225q35 18 51 21h8q38 0 41 -32q2 -36 -42 -71q-17 -13 -38 -22q-45 -15 -158 -86q-100 -56 -272 -170q20 -13 101.5 -56t101.5 -56q133 -89 177 -123.5t50 -55.5q10 -62 -43 -129q-27 -34 -57 -34 q-12 0 -20.5 7t-8.5 17q-7 42 -131 141q-65 51 -262 183q-52 30 -49 73z" />
<glyph unicode="=" horiz-adv-x="1622" d="M317 435q1 16 11 16q2 0 155 -11.5t358.5 -21t323.5 -2.5q44 1 68 -20.5t24 -41.5q2 -24 -70.5 -42.5t-189 -29t-222.5 -16.5t-212 -9.5t-117 -4.5q-53 -1 -98 80q-34 62 -31 103zM498.5 867q-8.5 45 3.5 53q3 0 69 -5t158.5 -12t208 -13t217.5 -8.5t188 1.5q45 4 68 -16 t27 -44q2 -83 -790 -98h-23q-41 -4 -79.5 46.5t-47 95.5z" />
<glyph unicode="&#x3e;" horiz-adv-x="1097" d="M254 186q-40 87 8 164q13 21 129 84q51 29 250 133q17 9 82.5 40t81.5 40q-142 124 -195 168q-104 88 -121 88q-45 34 -36 71.5t55 37.5h10q28 -4 93 -58t220 -196q51 -51 74 -68q58 -49 58 -94q-6 -47 -78 -84q-208 -103 -355 -188q-170 -96 -204 -152q-10 -16 -29 -16 q-20 0 -43 30z" />
<glyph unicode="?" horiz-adv-x="1705" d="M256 1272l2 16q14 104 159.5 202t332 153t337.5 55q84 0 152.5 -27.5t111.5 -72t70.5 -102t36 -117t0.5 -117.5q-8 -56 -61.5 -114.5t-133.5 -110.5t-175.5 -104.5t-190.5 -102.5t-174.5 -97t-132 -96.5t-58.5 -93.5q-4 -33 4.5 -55.5t17.5 -38.5t7 -31q-3 -21 -46 -19 q-62 4 -106 50q-49 53 -38 135q11 79 65.5 151t133.5 127.5t173 107.5t187 102t171.5 100t132 112t62.5 129q13 92 -102 102q-136 13 -379 -82q-219 -85 -343 -184q-73 -58 -79 -100q-7 -57 -37 -54q-32 4 -68 64q-38 65 -32 113zM283 98q0 58 39 89.5t94 31.5 q56 0 99.5 -31.5t43.5 -89.5q0 -35 -14 -60t-31 -36.5t-40 -18.5t-32.5 -7.5t-17.5 -0.5q-55 0 -98 33t-43 90z" />
<glyph unicode="@" horiz-adv-x="1585" d="M207 285q-41 243 121 483q56 86 146.5 171.5t205 160t255.5 120.5t277 46q168 0 277 -43q117 -50 198.5 -147t102.5 -218q8 -54 8 -84q0 -118 -41 -229.5t-109 -196t-153.5 -149t-179 -98t-180.5 -33.5q-52 0 -102 52t-50 85q0 18 7.5 43t15.5 41l8 16q-7 -7 -20 -19.5 t-48.5 -43.5t-66.5 -54.5t-65 -43t-54 -19.5q-58 0 -117 53t-59 133q0 88 122.5 232t284.5 255t264 111q70 0 123 -72q36 -49 31 -78q-2 -11 -12 -11q-110 0 -307 -162q-150 -124 -245 -250q-84 -111 -47 -127q6 -2 13 -2q20 0 126.5 92t202 189.5t87.5 111.5q-6 10 11 11 q35 3 75 -26q49 -36 49 -96q0 -61 -100 -199q-69 -95 -77 -112q-12 -26 7 -26q25 0 68 18.5t96.5 52.5t107.5 90.5t99 124.5t73.5 163t28.5 198q0 21 -4 71q-25 137 -124 213t-249 76q-122 0 -248 -40t-235.5 -108t-203 -162t-156 -198.5t-90.5 -222t-9 -227.5 q12 -69 44 -126.5t74.5 -94.5t91 -66.5t94.5 -45t83.5 -25t60.5 -12.5l23 -3q284 0 449 129q10 4 18 4q16 0 16 -4q5 -4 7 -12q0 -13 -4 -17q-68 -68 -202.5 -109.5t-262.5 -41.5q-21 0 -52.5 3t-88 15t-111.5 32t-118 59t-113 90.5t-91 131.5t-57 177z" />
<glyph unicode="A" horiz-adv-x="1239" d="M-1149 772q0 139 58 272t155.5 240.5t226 198.5t269.5 152.5t286 95.5t275 34q76 0 141 -25t108.5 -65t77 -86.5t51.5 -94t27 -83.5t9 -59q0 -36 -16 -43.5t-32 2.5l-16 10q-1 4 -4 11.5t-16 28t-31 39.5t-53 42.5t-77.5 40t-108 28t-142.5 11.5q-142 0 -286 -35.5 t-264 -94.5t-225.5 -137t-178 -161t-114.5 -167.5t-42 -156.5q0 -9 0.5 -23.5t8.5 -57t22 -81.5t45.5 -86t74 -81t112 -57.5t155.5 -23.5q111 0 247 44.5t266 116.5t225 134t181 127q-184 -36 -252 -45q-42 -6 -81 -6q-53 1 -99 11q-82 18 -132.5 52.5t-87 83t-52.5 90.5 t-21 81q-6 51 5.5 60t26.5 -7l15 -17q6 -42 120 -73q113 -32 258 -38q44 -2 87 -2q100 0 199 11q70 8 181.5 22.5t125.5 16.5l14 12q14 14 39 38.5t96.5 96.5t136 139.5t144 154t136.5 154.5t96 126.5t39 83.5q0 14 14 14q11 0 32 -9q65 -28 126 -102q79 -96 79 -200 q0 -27 -60 -150t-126 -245l236 39q40 5 61.5 10t24.5 8.5t6 6t10 3.5q16 3 21.5 -6t5.5 -29q0 -27 -38 -48t-132 -46q-104 -26 -258 -63l-25 -49q-9 -19 -23.5 -53t-52 -132t-66 -189t-52 -205.5t-23.5 -199.5q0 -147 31.5 -271.5t79.5 -204.5t107 -137t112 -81.5t96 -24.5 l51 -2q82 0 160 41.5t78 102.5q0 41 18.5 55t36.5 -2t18 -49q0 -22 -9.5 -45t-34.5 -47.5t-61.5 -43.5t-97 -31.5t-135.5 -12.5q-110 0 -203.5 32.5t-159.5 86t-118.5 128.5t-84.5 155t-53.5 170t-29.5 169t-8 156q0 94 15 191t36 168t42.5 128.5t36.5 86.5l15 30l-47 -4 q-56 -13 -172 -39.5t-172 -40.5q-42 -45 -89 -91.5t-127 -119.5t-159.5 -137t-181 -132t-196.5 -116.5t-200.5 -79.5t-199.5 -31q-173 0 -302.5 86.5t-195 229t-65.5 317.5zM766 1051l168 26l92 13q31 67 112.5 210.5t147.5 253.5l66 111z" />
<glyph unicode="B" horiz-adv-x="1523" d="M-242 831q5 45 44 122t103.5 174.5t155.5 206.5t196 216.5t230.5 205.5t253 173t269 119.5t274.5 44.5q155 0 272.5 -63.5t173.5 -171.5q43 -84 42 -181q0 -28 -3 -57q-8 -64 -53 -142.5t-100 -144t-126.5 -135t-116 -108t-85.5 -70.5q13 -5 27 -11t36.5 -17.5t42 -25 t44.5 -33t44.5 -41.5t41 -51t34.5 -61t25 -72t12 -84t-4 -96q-6 -41 -18 -86q81 66 153 162q61 80 91 125q20 29 46 23q18 -4 18 -23q0 -6 -2 -14q-3 -13 -13 -29q-3 -4 -17 -24t-34 -47t-41 -54q-82 -111 -238 -231q-59 -145 -166 -299t-233.5 -283t-271.5 -215t-269 -92h2 h-12h-8q-100 6 -140 57q-31 39 -31 96q0 18 3 39q7 49 58 109.5t122 115t172 119t186 113t186.5 107t153.5 90.5l10.5 21t24.5 53t33 79t29.5 92.5t20.5 99.5q3 23 3 45.5t-3 46.5q-6 46 -26 79t-62.5 53.5t-105.5 20.5q-72 0 -188.5 -53.5t-197.5 -106.5l-81 -53 q-5 5 -12 14t-21.5 35.5t-21 51t-0.5 56t31 56.5q18 18 92.5 74.5t165.5 124.5t198 157t195 172.5t150.5 171t70.5 152.5q2 18 2 34q-1 85 -63 125q-74 48 -234 47q-111 0 -246.5 -52t-265.5 -137.5t-261 -191.5t-241.5 -218t-197.5 -214t-138.5 -182t-56.5 -119 q-1 -7 0 -12q0 -33 25 -33q17 0 44 13q110 53 331 276q77 77 143 152q26 32 37.5 71t16 59.5t16.5 20.5q83 0 146 -72t63 -157q0 -44 -53 -142.5t-128.5 -213t-151 -230.5t-128.5 -219t-53 -154q0 -47 -39 -53q-5 -1 -9 -1q-40 0 -83 45q-53 56 -68 148q-2 14 -2 30 q0 81 56 194q67 135 192 323q-226 -196 -348 -196q-68 0 -108 49q-33 41 -33 91q0 11 1 21zM434 1217q8 9 21 25t18 22q-39 -45 -39 -47zM504 -385q-1 -9 -1 -16q0 -35 32 -35q62 0 180 83t245 215.5t209 264.5q-22 -13 -81.5 -49.5t-93.5 -57.5t-94 -59t-97.5 -64 t-88 -61.5t-82 -62.5t-62.5 -56.5t-47 -55t-19 -46.5z" />
<glyph unicode="C" horiz-adv-x="1259" d="M-61 545q24 171 127 379q41 81 96 168q37 69 86 133q80 117 239 286q155 159 279 240q289 203 524 203q182 0 258 -131q34 97 54 194q-50 71 -50 142q0 27 20 47q18 18 36 18h4h6q49 0 117 -78.5t88 -181.5q3 -20 3 -47t-3 -62q-7 -68 -34.5 -138.5t-73.5 -158.5 t-62 -124q-19 -41 -19 -86q0 -38 8 -64q8 -27 14.5 -50t-2.5 -33.5t-40 -10.5q-28 0 -62 51t-54 101l-21 51q-29 75 -29 145q0 9 3 28.5t3 22.5q-3 38 -34.5 62t-67.5 24q-126 0 -394 -166q-87 -56 -210 -166q-114 -101 -189 -198q-10 -14 -30.5 -41.5t-30.5 -40.5 q-6 -10 -36.5 -55.5t-41.5 -65.5q-213 -351 -246 -561l-4 -45q-6 -47 -6 -88q0 -120 54 -188q74 -91 212 -91q166 0 318.5 41t263 106t206 144t157 158t105.5 144t64 106l19 41q22 31 50 24q25 -6 20 -37q-4 -17 -17 -37q-4 -10 -12 -27.5t-37.5 -70.5t-64.5 -104.5 t-94 -121.5t-125 -130t-159 -121.5t-193.5 -105t-230.5 -70.5t-270 -27q-117 0 -214 39.5t-168.5 118t-101.5 208.5q-17 74 -17 159q0 66 10 139z" />
<glyph unicode="D" horiz-adv-x="1310" d="M-879 -74q10 137 112.5 284t260 268.5t365.5 210t417 114.5q115 185 147 247t36 117q4 44 27 44q8 0 18 -5q40 -22 79 -96q36 -69 36 -125q0 -7 -1 -14q-3 -36 -15 -61t-73 -119q71 -17 124 -58.5t78.5 -92.5t37.5 -97q9 -36 8 -68v-16q-7 -66 -26 -66h-2q-14 1 -18 25 q-2 7 -1 14v5q-1 49 -91 97q-96 50 -228 58q-12 -18 -34 -53q-59 -91 -86.5 -136.5t-63.5 -110.5t-51.5 -113.5t-18.5 -94.5q-5 -54 -33 -54h-4q-37 4 -81 70q-50 75 -50 139v11q4 59 27.5 110.5t63.5 114t58 98.5q-199 -50 -377 -157t-294.5 -253t-126.5 -294 q-1 -17 -1 -34q0 -36 6 -69q8 -49 32.5 -92t62.5 -74.5t96 -50t131 -18.5q135 0 272 44t259.5 120.5t242 181t222.5 225t198 252t172 263.5t140.5 258t108 236.5t70 197.5t29.5 143v12q0 94 -118 106q-19 2 -40 2q-164 0 -460 -119q-271 -109 -455 -233q-126 -85 -129 -128 q-1 -13 3.5 -26.5t4.5 -21.5q-2 -28 -50 2q-57 36 -98 99q-32 48 -32 86q0 26 45 73q43 45 116 99.5t178 110.5t220 102t254 75t269 29q117 0 212.5 -30.5t152.5 -76.5t95 -102.5t52 -106.5q11 -40 10 -74v-15q-9 -126 -58 -274t-129.5 -300.5t-193 -306.5t-244 -294 t-287.5 -261.5t-317.5 -211t-340.5 -140.5t-351 -51q-140 0 -253.5 38.5t-183.5 101.5q-71 64 -106 144q-28 66 -28 134q0 16 1 32z" />
<glyph unicode="E" horiz-adv-x="1372" d="M0 459q0 111 43 210t114 171.5t164 132.5t191 99t196.5 66t178 38.5t139.5 11.5q-5 5 -13.5 14.5t-30.5 42t-39 68.5t-30.5 93t-13.5 116q0 121 96 232t253 178t327 67q98 0 177.5 -22t124.5 -53.5t75 -70t40.5 -67.5t10.5 -49q0 -39 -28 -42q-20 -3 -26 11q-1 2 -1 4 q-3 6 -10 16t-36 35.5t-67.5 45t-108 35.5t-153.5 16q-78 0 -147.5 -28.5t-116 -71t-80.5 -93t-50 -95t-16 -75.5q0 -68 13.5 -121.5t35.5 -85.5t48.5 -55.5t53 -35.5t48.5 -19.5t35.5 -13.5t13.5 -13v-6q0 -15 -1 -23t-12.5 -21t-34 -20t-68 -12.5t-111.5 -5.5 q-191 0 -349 -52.5t-260.5 -142t-158.5 -206t-56 -246.5q0 -142 45 -261t135 -193.5t210 -74.5q55 0 95.5 5t59.5 12.5t30.5 15t12.5 12.5l2 5q-10 10 -10 112q0 29 10 55t24.5 43.5t29 30.5t24.5 19l10 6q-6 -24 -6 -51q0 -14 2 -30q6 -44 17 -82l12 -38q5 2 13 6t28.5 19 t36 32.5t28.5 47.5t13 63t-10.5 55.5t-25 30t-29.5 10.5t-25 2l-11 -2q1 3 3.5 7.5t11.5 16.5t20 21.5t30.5 17t41.5 7.5q63 0 104 -45.5t41 -138.5q0 -140 -209 -279q118 -182 286 -279q130 -75 245 -75q33 0 65 6q42 9 69.5 27.5t34.5 32.5l7 14q-22 24 -10 59q8 27 23 23 q17 -5 26 -46q3 -18 3 -35q1 -22 -5 -46q-10 -40 -39.5 -78.5t-85 -68.5t-131.5 -46q-30 -6 -61 -6q-53 0 -108 18q-87 29 -164 94t-145 151.5t-122 188.5q-11 -5 -32.5 -13t-87.5 -21t-134 -13t-137 10t-144.5 34t-143.5 60t-129.5 92t-106 126.5t-71 167t-26.5 209.5z" />
<glyph unicode="F" horiz-adv-x="1064" d="M-887 1585q4 85 36 166.5t92.5 153t143 126t196 86t243.5 31.5q127 0 315.5 -44.5t377.5 -113t323.5 -122.5t232.5 -99q7 8 35 25.5t80.5 42.5t119 43.5t151.5 28.5q39 5 79 5q48 0 98 -7q89 -8 170.5 -43t139.5 -92q56 -52 84 -112q21 -46 22 -91q0 -13 -2 -25 q-11 -55 -62.5 -97t-124 -62.5t-158.5 -28.5q-37 -4 -74 -4q-47 0 -91 6q-190 23 -338 86q-11 4 -31.5 15t-27.5 14q-102 -187 -211 -363l-6 -10l55 -15q2 0 20.5 -6.5t43 -13.5t56.5 -14t72 -12t78 -5q35 0 47 6q19 7 33 7q19 0 27 -13q2 -11 3 -16t-4 -22t-18.5 -31 t-45 -34.5t-79.5 -39.5q-51 -14 -110 -14h-61.5t-39.5 3t-32 5.5t-48 13t-77 19.5l-33 6l-6 -6q-195 -308 -335 -569q-136 -254 -136 -336q0 -26 -16 -27q-3 0 -8 1q-38 6 -77 59q-48 67 -53 159v15q0 64 22 126q25 68 103 211l168 279q13 25 49 75l6 11l-18 2q-6 1 -16 30 q-5 14 -5 29q0 35 31 72q44 52 115 80q18 7 41 10l2 2l4 4q3 5 55 70q29 39 63 95t55.5 94t55 98t39.5 71q-15 9 -95.5 48t-220.5 98.5t-289 114.5t-312 94.5t-277 39.5q-230 0 -362 -91t-141 -257q0 -7 -1 -14q0 -134 130 -242q68 -56 162 -92.5t173 -36.5q122 0 197 56 t76 149q1 12 1 22q0 62 -44 99q-54 43 -139 43h-3q6 26 30.5 44.5t56 26t67.5 7.5q64 0 128.5 -22t109.5 -58q67 -56 67 -133v-7q-4 -74 -49 -146t-120.5 -129t-184.5 -92.5t-231 -35.5q-100 0 -200 37t-183 104q-93 75 -142 175q-44 89 -44 181q0 12 1 23zM1280 1675l8 -4 q19 -8 71 -31t79.5 -33.5t73 -25t87.5 -21t87 -6.5q103 0 181 19t89 55q5 11 5 22q1 24 -23 50q-34 38 -105 69q-80 36 -158 39q-25 3 -50 3q-9 -1 -18 -1q-33 -2 -64.5 -8t-60.5 -15.5t-55 -20.5t-47.5 -22.5t-39.5 -22.5t-30 -19.5t-19 -13.5l-7 -5z" />
<glyph unicode="G" horiz-adv-x="1400" d="M-210 1198q16 64 52 110.5t73 72.5t60 26q25 0 3 -28q-3 -5 -5.5 -8t-6.5 -8.5t-6.5 -9.5t-6 -10t-5.5 -11.5t-4 -12t-3 -12.5t-1.5 -13t0.5 -14.5t3 -15.5q23 -82 114 -142.5t230 -91.5q50 69 104 135q120 151 277 293q154 148 307 248q168 107 297 157t244 50 q85 0 145.5 -29.5t89 -72.5t41.5 -96q11 -46 11 -85v-12q-2 -43 -11 -76q-18 -77 -82.5 -153t-157.5 -139t-190.5 -112.5t-202.5 -90.5q-83 -33 -241.5 -76t-275.5 -70l-118 -27q-234 -294 -278 -466l-15 -35q-16 -58 -16 -106q0 -120 100 -169q60 -29 142 -29q80 0 182 27 q199 53 356 174q120 92 166 193q19 44 23 63q2 0 4 2q57 194 57 291q0 17 -2 31q-4 14 -13.5 30.5t-13 23.5t3.5 14.5t31 13.5q26 7 53.5 -2.5t54.5 -35.5t49.5 -75.5t35.5 -116.5q2 -12 2 -28q0 -44 -17 -120q-23 -103 -70.5 -239t-120.5 -297t-159 -324.5t-192.5 -322 t-215.5 -287t-232.5 -221.5t-239.5 -125q-27 -8 -53 -8q-51 0 -100 32q-72 48 -93 163q-1 4 -1 9q0 47 80 142q87 105 217.5 221t262.5 225.5t226 181.5l93 71q87 128 213 407q-90 -62 -197.5 -105.5t-214.5 -62.5q-84 -15 -165 -15q-24 0 -47 1q-104 6 -185.5 42 t-138 101.5t-70.5 166.5q-3 29 -3 61q0 80 24 178q33 130 156 309l-31 -2q-333 24 -381 201q-9 40 -9 77q0 33 8 64zM58 -1114q16 -8 34 -8q14 0 29 4q72 20 163 104t170.5 190t148.5 209.5t109 173.5l40 70l-225 -189q-502 -431 -502 -506q0 -33 33 -48zM608 997 q254 6 563 131q81 31 183.5 95.5t189 148t101.5 146.5q3 13 3 24q0 32 -23 54q-31 30 -75 30q-141 0 -417 -172q-96 -53 -236 -166q-101 -84 -215 -207q-63 -73 -74 -84z" />
<glyph unicode="H" horiz-adv-x="1437" d="M-332 1438q-7 54 -7 107q-1 61 9 121q18 112 62 204.5t108.5 177.5t143.5 153t167.5 125.5t179 99t179 70.5t167.5 43.5t144 14.5q96 0 184 -25.5t158.5 -74t113 -126.5t42.5 -174l-2 17q1 -8 1 -18q0 -39 -20 -100q-24 -77 -79 -187.5t-110.5 -214.5t-142 -248.5 t-143 -237t-141.5 -229.5h51q82 0 192.5 -2t174.5 -2h37q72 136 152 264.5t123 190t69 120.5q21 48 21 86q0 9 -1 17q-2 16 22 11q45 -7 91 -56q65 -70 65 -168q0 -43 0.5 -56.5t-8.5 -49t-16 -49t-39 -70t-58.5 -97t-93.5 -143.5q76 3 136.5 14.5t94.5 26.5t57.5 29.5 t38 24t24.5 9.5q27 0 37 -21q4 -8 4 -16q0 -11 -9 -20q-55 -67 -194 -122.5t-275 -61.5q-125 -201 -229.5 -430t-104.5 -330q0 -42 -32 -40q-41 3 -88 60q-70 87 -70 201q0 35 12 81.5t38.5 110t46.5 107t59 123.5t53 110q-264 -7 -494 -34q-148 -245 -266.5 -488 t-118.5 -327q0 -33 -35 -36h-5q-43 0 -90 45q-72 73 -72 202q0 103 243 542q-222 -18 -267 -26q-106 -23 -110 -68q0 -39 -32 -38q-37 2 -75 45q-36 41 -36 85q0 37 10 66.5t32.5 51.5t48 38t67.5 28t79 19.5t94 14t101.5 11t112.5 10.5t117 11q385 649 513 884 q207 378 207 460q0 8 -1.5 20.5t-14.5 45t-36.5 57t-75.5 45t-123 20.5q-90 0 -199.5 -46.5t-215.5 -125t-204 -188.5t-169 -230q-70 -120 -105 -258q-24 -94 -24 -184q0 -41 5 -80q5 -43 18.5 -84t40 -84.5t73.5 -70.5t108 -27q99 0 193 84q33 29 39 29q7 0 7 -21 q0 -68 -96 -116t-203 -48q-31 0 -67 6.5t-83.5 22t-91.5 47t-84 75t-69.5 112t-40.5 153.5z" />
<glyph unicode="I" horiz-adv-x="1081" d="M-511 64q-3 20 -3 38q0 30 8 53q12 38 21 38q8 0 15.5 -34t15 -75t30 -75t57.5 -34q121 0 262.5 61.5t277 164.5t272.5 239t255.5 284t221 301t172.5 289q72 136 108 248q29 90 29 149q0 15 -2 28q-14 100 -132 100q-57 0 -137 -23q-215 -63 -512 -258 q-236 -154 -346 -274q-53 -57 -53 -86q0 -13 5 -27t5 -22q0 -13 -11 -13q-13 0 -42 19q-63 42 -110 109q-35 49 -35 79q1 25 37 79q40 58 108.5 132.5t171 154.5t216 146t252 109t269.5 43q116 0 214 -36t157 -86.5t102 -111t60.5 -103t21.5 -68.5q5 -33 5 -69 q0 -87 -28 -187q-39 -142 -118.5 -285.5t-192.5 -294.5t-242 -286.5t-270 -256t-274.5 -208t-257 -138.5t-215.5 -51q-139 0 -229.5 38t-121 92t-37.5 108z" />
<glyph unicode="J" horiz-adv-x="1153" d="M-520 -455q0 118 90 279.5t234 324.5t325.5 329t362.5 300t348 230.5t278 126.5q5 12 14 32.5t31 81.5t39 119t31 133t14 135q0 90 -50 157t-132 67q-108 0 -260 -60t-301.5 -152t-300 -200.5t-264 -206.5t-185 -170t-71.5 -90q0 -6 3 -14.5t5.5 -15t3.5 -12t-3 -8.5 t-14 -3q-80 0 -139 63t-59 127q0 42 103.5 144t270.5 223.5t353.5 235t376 189t313.5 75.5q113 0 219 -51t181 -130.5t120 -179.5t45 -197q0 -150 -88.5 -375t-228.5 -459t-317 -471.5t-348.5 -422t-328.5 -300.5t-253 -116q-81 0 -146.5 11.5t-108 29t-74.5 42.5t-48.5 48 t-26 50.5t-12 45t-2.5 35.5zM-422 -457q0 -26 7.5 -44.5t17 -27.5t27.5 -14t29 -5.5t30 -0.5q77 0 193.5 83.5t241.5 217.5t258.5 296t251.5 324t212.5 296t149.5 218l55 83q-149 -52 -300.5 -140t-279.5 -191.5t-250 -222t-218 -233.5t-177 -223.5t-135 -195.5 t-83.5 -144.5t-29.5 -75.5z" />
<glyph unicode="K" horiz-adv-x="1282" d="M-670 961q0 164 82 332t223.5 309t318.5 252t381.5 174t397.5 63q363 0 363 -385q0 -72 -45 -178t-109 -205.5t-128.5 -188.5t-109.5 -144l-45 -54q56 -27 119 -27q83 0 188.5 39t208.5 103t202 148.5t174 172.5t121 179t46 163q0 46 -10 77.5t-26 46.5t-37 23t-42.5 7 t-42.5 -3t-37 -4.5t-26 0.5t-10 13q0 20 40 30.5t77 10.5q40 0 82.5 -12.5t86.5 -42.5t78.5 -73.5t56 -111.5t21.5 -151q0 -87 -63.5 -180.5t-166 -174.5t-234 -154.5t-266.5 -125.5t-264 -82.5t-226 -30.5q11 -19 31.5 -52t88.5 -134.5t139.5 -200t179.5 -232.5t215 -249 t239.5 -232.5t259 -200t267.5 -134.5t271 -52q51 0 94 7.5t74 18.5t55.5 30t40.5 36t27 42t16.5 42t8.5 43t3 38t-0.5 33.5t-0.5 23.5q0 25 22 27h4q26 0 46 -35q20 -33 20 -87q0 -34 -3.5 -70.5t-15.5 -87t-31.5 -96.5t-54 -92.5t-80.5 -80.5t-114.5 -55t-151.5 -21 q-145 0 -299.5 59.5t-293.5 160.5t-277.5 231.5t-256.5 275.5t-225 289.5t-189.5 275t-143.5 231.5t-93 160l-32 60q-13 -18 -35.5 -49t-79.5 -118.5t-100.5 -164.5t-79 -166.5t-35.5 -145.5q0 -22 5 -43t9.5 -32.5t6 -21.5t-5.5 -13.5t-25 -3.5q-60 0 -120 83t-60 212 q0 102 50 233t130 262t176.5 267.5t193.5 262.5t177 233.5t130 193t50 129.5q0 41 -18.5 71t-48 44.5t-58.5 21t-59 6.5q-103 0 -232.5 -48.5t-256.5 -129.5t-250 -191t-216 -227.5t-150 -245.5t-57 -239q0 -126 59.5 -203.5t155.5 -77.5q56 0 99.5 15.5t67 38t38 45 t21.5 38t10 15.5q24 0 28 -33v-9q0 -45 -43 -92q-81 -85 -255 -85q-108 0 -195.5 35.5t-139.5 92.5t-79 122t-27 131z" />
<glyph unicode="L" horiz-adv-x="1306" d="M-525 53v17q0 146 99 258q134 150 384 168q31 2 62 2q214 0 535 -144q17 -6 25 -10q90 206 219 469q-65 3 -129 12q-136 20 -233 82t-144 148t-61 192q-5 39 -4 78q0 69 14 137q24 108 77 214t130 194q45 52 109 92.5t127.5 63t132 39t123 20.5t100 6.5t63.5 -1.5 q85 -14 85 -40q0 -3 -1 -6q-1 -5 -6 -10q-19 -18 -38.5 -16.5t-34.5 12.5l-15 10q-9 0 -26 -2t-69 -17t-103.5 -39.5t-122 -77.5t-132.5 -124q-84 -96 -134 -196q-50 -98 -63 -184q-6 -41 -6 -81q0 -43 7 -83q14 -78 53 -135t97.5 -94.5t129.5 -48.5q6 -1 18 -2t50 -3 q15 -1 30 -1q23 0 45 2q91 178 177 333t193.5 325t202 289.5t193 197.5t176.5 78q64 0 63 -161q0 -39 -3 -87q-16 -171 -67.5 -324.5t-121 -262t-149.5 -199.5t-157 -147.5t-139.5 -96t-101.5 -55.5l-38 -17l-297 -606q129 -79 333 -219t379 -253.5t312 -180.5 q192 -95 355 -130q94 -20 171 -21q56 -1 101 11q109 26 155 105q18 34 30.5 87.5t22.5 76.5t33 12q27 -13 43 -73q10 -38 10 -87q0 -27 -4 -57q-8 -84 -45 -149q-33 -59 -90.5 -104.5t-144.5 -73.5q-88 -29 -192 -31h-14q-100 0 -226 32q-136 34 -281 105 q-111 54 -223.5 130t-215 161t-195.5 167.5t-203.5 177t-200.5 161.5q0 -2 -10.5 -23.5t-36.5 -59.5t-63.5 -81.5t-98.5 -88.5t-134 -81t-177.5 -59t-221.5 -23q-239 0 -377 138q-110 110 -115 263zM-437 68q38 -91 152 -152q117 -63 265 -63q83 0 159.5 22.5t134 58.5 t106 83.5t80.5 95t54 96.5q-9 6 -26 16t-71 35t-110.5 44.5t-139.5 35.5t-163 16q-301 0 -409 -113q-47 -49 -46 -107q-1 -32 14 -68zM1163 1012q111 0 281 248t266 496q57 147 56 207q0 42 -27 42t-171 -248t-274 -497z" />
<glyph unicode="M" horiz-adv-x="1705" d="M-444 1268q0 90 49 188.5t133 188t201 171t248 141.5t280 95t291 35q63 0 115 -15.5t87 -40.5t62 -60t42 -69.5t24.5 -74t12.5 -69t3 -58.5q0 -87 -68 -223.5t-165 -273t-194 -263.5t-165 -220t-68 -116l249 259q551 562 622 562q67 0 125.5 -64.5t58.5 -115.5 q0 -41 -78.5 -157.5t-156.5 -213.5l-78 -96q-287 -363 -387 -555q15 15 169.5 174t264.5 269q465 467 520 467q61 0 111.5 -56.5t50.5 -103.5q0 -16 -9.5 -37.5t-33.5 -57t-43 -61.5t-60 -80q-13 -17 -49.5 -64.5t-55 -72t-52 -72.5t-52.5 -81t-43.5 -82t-37 -89.5t-22 -90 t-9.5 -97.5q0 -116 37.5 -220.5t98.5 -177t139.5 -115t158.5 -42.5q70 0 126 26t87 63t52 74t31.5 63t14.5 26q40 0 60 -27q5 -8 8 -17t3.5 -18t0.5 -18t-1.5 -17t-3 -14l-2.5 -10l-1 -4q0 -2 -7 -15.5t-25.5 -38.5t-43.5 -48q-110 -101 -283 -101q-89 0 -180 28.5 t-175 86.5t-149.5 137t-105 190t-39.5 236q0 276 234 584q65 91 170 201q-132 -96 -441.5 -407t-470.5 -515q-7 -1 -18 -2t-39 4.5t-49.5 20t-39 51t-17.5 90.5q0 75 69.5 211.5t168.5 278t198.5 272.5t169.5 214l69 83q-60 0 -235.5 -157t-356 -359t-322.5 -404t-142 -281 q0 -25 -35 -27h-7q-46 0 -88 40q-57 55 -57 151q0 112 51.5 252t134 277.5t182.5 280t200 273.5t182.5 244t134 205.5t51.5 143.5q0 65 -56.5 110t-152.5 45h2q-68 0 -165 -31t-203 -83.5t-211 -129.5t-188 -162.5t-135 -189t-52 -202.5q0 -83 61.5 -130t161.5 -47 q131 0 168 80q10 26 10 50q0 21 -8 38q-16 38 -41 69t-24 32q6 18 24 22q11 3 24 -1t20 -8.5t9 -6.5q23 -18 37 -53q13 -30 14 -62q0 -41 -22 -86q-33 -72 -111.5 -112.5t-175.5 -40.5q-172 0 -274 87.5t-102 219.5z" />
<glyph unicode="N" horiz-adv-x="1161" d="M-455 1114q0 90 49.5 188t134 187.5t202.5 171.5t249.5 141.5t280.5 95t291 35.5q63 0 115 -15.5t87 -40.5t62 -60t42 -70t24.5 -74.5t12.5 -69.5t3 -59q0 -73 -43 -172t-107.5 -194.5t-139.5 -195.5t-139.5 -178t-107.5 -138.5t-43 -79.5q9 9 24.5 24t64 62t96 92.5 t113.5 107t124 114.5t120.5 107.5t110.5 92.5t85.5 62t52.5 24q34 0 61 -28.5t42 -69.5t22.5 -79t7.5 -65q0 -34 -50 -109t-121.5 -169t-143 -197.5t-121.5 -219.5t-50 -210q0 -149 28 -290.5t80 -257t135.5 -185.5t184.5 -70q58 0 108.5 14.5t85 38t62.5 51.5t45 56 t28 51.5t15 38.5l5 14q0 3 0.5 8t4.5 17t11.5 21.5t24 17.5t38.5 8q29 0 39 -29q7 -19 7 -38q0 -9 -2 -19l-5 -29q-2 -6 -6.5 -17.5t-21.5 -43.5t-38 -61t-58.5 -65t-81 -61.5t-106.5 -43t-134 -17.5q-129 0 -250.5 72t-213 195.5t-147 301.5t-55.5 377q0 85 28 180 t72.5 179t98.5 165.5t108 145.5t98.5 113.5t72.5 76.5l28 27q-48 0 -173 -102t-272 -257.5t-286 -320.5t-231.5 -310.5t-92.5 -209.5q0 -25 -35 -27h-7q-46 0 -89 40q-57 55 -57 151q0 112 51.5 252t134.5 277t183 279.5t200 273t183 243t134.5 205t51.5 143.5 q0 66 -56.5 112t-152.5 46q-82 0 -203.5 -42.5t-251 -120.5t-242.5 -175.5t-186 -220.5t-73 -242q0 -82 61.5 -129t161.5 -47q130 0 170 82q9 25 9 47q0 21 -8 40q-17 38 -42.5 69t-24.5 32q10 20 27 23q11 2 24 -2.5t20 -9.5l7 -5q1 0 7 -5.5t15 -18.5t15 -29 q14 -31 14 -64q0 -40 -20 -83q-33 -72 -112.5 -113t-176.5 -41q-172 0 -274.5 87.5t-102.5 219.5z" />
<glyph unicode="O" horiz-adv-x="1511" d="M2 614q0 151 52 316.5t133.5 302t175 249t183 175.5t150.5 63q44 0 78.5 -7.5t53 -18t30.5 -21.5t16 -19l3 -7q6 8 16.5 20.5t47 50t76 71.5t100.5 75.5t123 71.5t141.5 50.5t158.5 20.5q173 0 278 -113.5t105 -334.5q0 -107 -33 -236.5t-91.5 -263t-141.5 -270.5 t-180 -261t-210 -233t-228.5 -189t-238.5 -126t-237 -46q-79 0 -154 19t-150.5 68t-131 123.5t-90.5 195.5t-35 274zM293 526q0 -219 74.5 -347t207.5 -128q88 0 176.5 28.5t163.5 76.5t146.5 110t129.5 131t109.5 138t89 131t65 110t41.5 76l13 29q-113 -35 -215 -35 q-85 0 -157 29.5t-118.5 76.5t-83.5 104t-56.5 114t-32 104t-16.5 76l-3 30q-11 -9 -30.5 -24.5t-75 -67t-105.5 -105.5t-112 -134.5t-106 -159.5t-74.5 -175.5t-30.5 -187.5zM1051 1298q0 -145 73.5 -245.5t190.5 -100.5q70 0 140 19.5t105 38.5l35 20l42 102 q83 217 83 354q0 57 -14 100q-37 108 -166 108q-91 0 -172.5 -28.5t-138 -72.5t-98 -98t-61 -105t-19.5 -92z" />
<glyph unicode="P" horiz-adv-x="1042" d="M-266 1276q-1 14 -1 28q-1 119 69 228q78 122 210.5 210t300 153t341.5 97.5t331 32.5q87 0 171.5 -9.5t174 -31t165.5 -60t138.5 -91.5t102 -131.5t47.5 -173.5q1 -18 1 -35q0 -62 -16 -122q-21 -77 -60 -136t-87.5 -111t-98.5 -88.5t-91.5 -63.5t-67.5 -40l-27 -12 l-112 -56q-113 -50 -258.5 -76.5t-234.5 -27.5l-89 -2q-17 -22 -44.5 -58.5t-98 -134.5t-124.5 -180t-98.5 -165t-44.5 -118q0 -10 0.5 -24.5t0.5 -22t-0.5 -17.5t-2.5 -15t-6 -10t-11 -7t-17 -2q-41 0 -77 71.5t-36 194.5q0 86 78 239t188.5 315t220.5 318q109 155 185 277 q73 117 73 161q0 30 38 21q54 -12 103 -65q46 -51 52 -109v-6q0 -36 -22 -93q-24 -62 -58.5 -124.5t-70 -120t-60.5 -93.5l-25 -36q143 26 265 81t205 125t141 151t82 161q19 64 19 123q0 15 -1 29q-7 85 -55.5 150t-120.5 101t-148.5 53.5t-152.5 17.5q-134 0 -272 -37.5 t-257.5 -101t-224 -149.5t-177 -180.5t-111.5 -197.5q-32 -85 -32 -165q0 -16 1 -32q3 -37 12.5 -68.5t21 -49.5t22.5 -30.5t19 -16.5l7 -5l45 -29q24 -18 24 -27t-24 -9q-58 0 -113 25.5t-103.5 75.5t-81.5 134.5t-42 192.5z" />
<glyph unicode="Q" horiz-adv-x="1513" d="M-184 502q0 170 72.5 353t194 346.5t287.5 312t347 256t378 170.5t375 63q188 0 299 -122t111 -361q0 -287 -198 -672t-490 -676q158 -80 367 -214t379.5 -253.5t374 -250t353.5 -204.5q223 -111 407 -152q107 -25 191 -25q61 0 110 13q118 30 159 123q17 39 26 102.5 t19 91t37 13.5q30 -16 53 -86q24 -70 24 -165q0 -102 -36 -181q-30 -70 -89 -123.5t-152.5 -86.5t-208.5 -36h-14q-110 0 -254 38q-154 40 -323 124q-154 76 -324.5 196.5t-325 249t-304 256t-310 249.5t-294.5 198q-333 -276 -631 -276q-30 0 -69 5.5t-81.5 16.5t-71 32.5 t-28.5 49.5q0 23 5 24.5t21 -12.5q17 -12 30.5 -20.5t41 -21.5t65 -20t81.5 -7q294 0 575 264q-8 3 -16 8q-106 53 -207 81.5t-180 32.5q-25 2 -49 2q-52 0 -100 -6q-71 -10 -121.5 -30t-90 -44.5t-60.5 -45.5t-28 -37q-10 -23 -16 -72t-16 -72t-35 -10q-38 19 -38 80 q0 80 68 234q28 64 125.5 102t232.5 43q19 1 38 1q122 0 272 -30q174 -35 340 -110q122 143 229.5 328.5t174.5 355t105 313.5t38 230q0 29 -2.5 54t-14 59.5t-31 58.5t-56.5 41.5t-87 17.5q-117 0 -258 -49t-279 -132.5t-273 -199t-242.5 -242.5t-183.5 -269.5t-99 -274.5 q-10 -62 -10 -111q0 -7 4.5 -19t8 -19.5t-1.5 -17t-20.5 -15t-52.5 -9.5t-94 -4q-57 2 -105 54.5t-48 140.5z" />
<glyph unicode="R" horiz-adv-x="1333" d="M-168 1266q0 110 59 211.5t158.5 179.5t228.5 142.5t270.5 106.5t282.5 64.5t267 22.5q84 0 165 -9.5t166 -30t156 -57.5t127.5 -88.5t88.5 -127.5t32 -169q0 -78 -26.5 -152.5t-68.5 -131.5t-93 -107.5t-102.5 -86t-93.5 -61t-69 -38.5l-26 -12l-113 -52 q-174 -73 -393 -96q22 -30 79 -117.5t118.5 -182t149 -217.5t173.5 -234.5t188.5 -221.5t198 -190.5t198 -130t191.5 -49.5q55 0 99.5 6.5t75 18t53.5 28t35.5 35.5t21.5 40t10.5 43t3.5 44.5t0 43.5v21q3 1 8.5 2t20 -2.5t25 -14t19.5 -38.5t9 -70q0 -48 -16.5 -107.5 t-55 -125.5t-92.5 -120.5t-137.5 -90t-181.5 -35.5q-100 0 -214 63t-218 163t-216.5 240t-203.5 276.5t-185 291.5t-155 265.5t-119 218t-72 131.5q-4 -5 -66 -77.5t-115 -138t-116.5 -148t-101 -147.5t-37.5 -97q0 -5 0.5 -21t0.5 -28t-1 -29.5t-4 -29.5t-8 -24t-14 -18 t-21 -6q-53 0 -86 71t-33 230q0 70 58 184t145 234t188.5 252t188.5 239.5t145 195t58 120.5q0 27 49 17q64 -12 115 -63q48 -48 49 -102q0 -58 -57.5 -162.5t-115.5 -179.5l-57 -76q174 32 319 107t235 167.5t139 191t49 186.5q0 65 -28.5 119t-73.5 88.5t-104.5 58 t-118 33.5t-116.5 10q-129 0 -265.5 -36t-257 -97.5t-229 -144.5t-186 -174.5t-123 -191t-45.5 -190.5q0 -36 7 -66.5t17 -48t20 -30t17 -16.5l7 -5l33 -30q27 -30 4 -31q-56 0 -106.5 24.5t-92.5 72.5t-67 129.5t-25 185.5z" />
<glyph unicode="S" horiz-adv-x="1361" d="M-387 229q0 80 37.5 174.5t110 186.5t167 168t220.5 123t258 47q95 0 174.5 -21.5t132.5 -55t95 -78.5t65 -88.5t38 -87.5t20 -73.5t5 -48.5q0 -55 -38 -90q-23 -20 -29 -8q-1 2 -1 6q0 9 -5 24.5t-20.5 40t-39 49.5t-65.5 51t-95 46t-132 32.5t-173 12.5 q-130 0 -240.5 -31.5t-180 -78.5t-119 -104.5t-70.5 -107t-21 -88.5q0 -40 18 -91t62.5 -111t108 -109t165 -82t222.5 -33q136 0 273.5 42t250.5 112t212.5 161.5t167.5 189t107 196.5t39 182q0 88 -36.5 168.5t-96 139.5t-134 107.5t-152 79t-147.5 46.5t-124 16 q-92 0 -188 -15.5t-160 -30.5t-78 -15q-47 0 -47 344q0 29 26 63.5t78 74t142.5 76.5t207 67.5t284.5 49.5t362 21q45 121 45 210q0 20 -2 38q-3 25 -19.5 53t-14.5 38t36 15q6 1 12 1q25 0 60 -13q43 -16 84.5 -45.5t73.5 -76t38 -97.5q2 -15 2 -31q-1 -48 -17 -100 q-22 -68 -73 -165.5t-63 -125.5q-14 -31 -14 -57q0 -7 1 -14q5 -31 16 -55t20.5 -40.5t0 -27t-44.5 -15.5q-4 -1 -8 -1q-58 0 -152 124q-186 -1 -329.5 -8t-215.5 -16.5t-116.5 -19t-55.5 -15.5l-10 -7q12 -1 32 -3t81.5 -12t121.5 -25t141 -44.5t151 -67.5t141.5 -97 t121.5 -129.5t81.5 -169t31.5 -211.5q0 -134 -46.5 -277t-127.5 -272.5t-194.5 -246t-242 -201.5t-276.5 -135t-292 -50q-107 0 -201 36t-161.5 97t-121 137.5t-86 161t-49 163.5t-16.5 148z" />
<glyph unicode="T" horiz-adv-x="604" d="M-891 1530q8 98 41 191t91 175.5t135.5 144.5t181.5 98t221 36q104 0 252 -53t295.5 -132t316.5 -171.5t316 -171.5t293.5 -132t248.5 -53q75 0 156.5 33.5t138.5 91t57 119.5q0 13 -3.5 26.5t-10 25t-15 23t-17 21.5t-18.5 19.5t-18 17.5q-14 13 -20 19t-11.5 14.5 t-2 12t13 6.5t29.5 3q49 0 86 -27t57.5 -71t30.5 -91.5t10 -96.5q0 -73 -32.5 -134.5t-87 -103.5t-125.5 -72t-146.5 -43.5t-151.5 -13.5q-217 0 -397 78q-14 6 -40.5 18t-33.5 15l-10 6q-31 -54 -82 -146t-181.5 -338t-230.5 -448.5t-182 -405.5t-82 -282q0 -29 -16 -29 q-7 0 -16 5q-41 23 -86 106q-58 109 -58 215q0 82 71 260.5t172 375t202 381.5t172 305l71 120l-8 4l-24 19q-23 18 -52 40t-76 56t-95.5 67.5t-110 71.5t-121 71.5t-126.5 64.5t-128 53.5t-124.5 36t-117.5 13.5q-207 0 -339.5 -119.5t-147.5 -312.5q-2 -19 -1 -37 q0 -75 25 -141q32 -84 82 -137q51 -58 138.5 -92.5t164.5 -34.5q113 0 212.5 81.5t99.5 186.5q0 54 -18.5 105t-49.5 51q-18 0 -38.5 -5t-34 -10t-25.5 -7t-17.5 4t-5.5 22q0 48 35 71t86 23q48 0 83.5 -18.5t54 -44.5t30 -61t14 -60t2.5 -49q0 -60 -14.5 -120t-49.5 -121 t-87 -108t-134.5 -76.5t-183.5 -29.5q-90 0 -177.5 42t-157.5 118q-83 88 -121 202q-30 88 -29 181q0 26 2 53z" />
<glyph unicode="U" horiz-adv-x="1325" d="M-614 1008q-2 21 -2 43q0 89 34 185q42 118 121 226.5t194 207.5t247 171t285.5 115t303.5 43q78 0 140 -27t97.5 -65.5t60 -90.5t33.5 -91t13 -78q1 -7 1 -15q0 -78 -62 -231q-68 -168 -164.5 -349.5t-191.5 -352.5q-96 -171 -148 -281q-35 -74 -35 -99q0 -12 9 -12 q25 0 228 180.5t393 360.5l190 180q196 314 241 430q4 11 9 43t15 45t36 13q54 0 104 -74q43 -63 42 -161q0 -17 -1 -36q-5 -61 -111 -235q-56 -100 -178 -309q-226 -387 -273 -495q-24 -55 -24 -78q0 -15 11 -15q60 0 171.5 85t231.5 217.5t209 266.5q20 29 46 23 q18 -4 18 -23q0 -6 -2 -14q-3 -13 -13 -29q-20 -30 -67.5 -96t-131 -168.5t-165.5 -190.5t-169.5 -152.5t-144.5 -64.5l4 2q-39 3 -116.5 54.5t-77.5 113.5q0 82 18 173.5t43.5 163t51 131.5t43.5 93l18 33q-15 -24 -80.5 -105t-164 -192.5t-200 -215.5t-198 -176.5 t-148.5 -72.5q-44 0 -77 19t-51.5 47.5t-30.5 67.5t-15.5 73.5t-3.5 71.5q0 49 118 274.5t260 472.5t260 474.5t118 279.5q0 57 -57.5 99t-145.5 42q-72 0 -171.5 -39t-205.5 -105.5t-208.5 -162.5t-181.5 -202q-78 -106 -122 -233q-35 -101 -35 -198q0 -25 2 -49 q5 -62 24 -107.5t42 -69t53 -37.5t50 -17.5t40 -3.5q44 0 74.5 10.5t44 26.5t23 34.5t13.5 34.5t13 26.5t25 10.5q27 0 36 -34q3 -12 3 -24q0 -37 -31 -73q-67 -80 -233 -80q-86 0 -157.5 24.5t-118 63t-80 88t-49 97.5t-19.5 94z" />
<glyph unicode="V" horiz-adv-x="1071" d="M-1262 965q-4 30 -4 60q0 84 32 174q44 122 134 234.5t225.5 215t295.5 178t353.5 120t389.5 44.5q83 0 167.5 -21t164 -63.5t136 -118t70.5 -172.5q3 -22 3 -47q0 -103 -53 -255q-66 -188 -189 -448q-23 -54 -109.5 -222.5t-141 -302.5t-54.5 -216q36 32 152 126.5 t215 177t226 206.5t216 233.5t151 237.5t62 237q0 156 -64.5 262.5t-128.5 106.5q-47 0 -66 25q-17 22 15 35q23 10 65 10q41 0 96 -19.5t117 -63.5t114 -105t86 -155t34 -202q0 -78 -75 -193.5t-195 -237.5t-266.5 -251t-293 -242.5t-270 -204t-202 -143.5t-85.5 -53 q-12 0 -29 4.5t-43.5 22t-47.5 45t-36.5 80t-15.5 120.5q0 52 98.5 279t216 474t216 474t98.5 279q0 79 -94 147t-231 68q-158 0 -318.5 -52.5t-295 -139.5t-251 -202.5t-193.5 -239.5t-114 -253q-26 -92 -26 -174q0 -34 4 -66q9 -60 36.5 -107t62.5 -74.5t79 -45.5 t81.5 -24.5t73.5 -6.5q113 0 254 92q78 51 86 55q38 18 44 -16q1 -8 1 -20q0 -45 -39.5 -83.5t-95.5 -60t-108.5 -33.5t-87.5 -12q-80 0 -164 21t-164.5 64.5t-146.5 104.5t-112.5 147t-60.5 186z" />
<glyph unicode="W" horiz-adv-x="1634" d="M-1042 967q0 112 61 234t167 235.5t257 216t322.5 178.5t372.5 121t399 45q65 0 130.5 -12.5t130.5 -41.5t114.5 -71.5t80.5 -107.5t31 -144q0 -85 -60 -223t-150.5 -282.5t-196 -300t-196 -279t-150.5 -214.5t-60 -112q48 39 270.5 277.5t420.5 457.5l198 219 q0 48 29 48q9 0 20 -4q50 -20 106 -96q61 -83 62 -144q0 -39 -52 -151.5t-115 -231.5t-115 -252.5t-52 -210.5q75 67 162 160t188 225.5t180.5 267t133 288.5t53.5 286q0 156 -65.5 262t-131.5 106q-47 0 -65 26q-16 23 17 37q24 9 65 9t96.5 -19.5t118 -64t114.5 -106 t86.5 -156t34.5 -203.5q0 -91 -78 -231.5t-196.5 -285t-256.5 -293t-258.5 -262.5t-203 -186.5t-90.5 -72.5q-12 0 -29.5 4.5t-44 22t-48 45t-37 80t-15.5 120.5t33.5 171.5t80.5 203.5t94.5 190t80.5 145l34 56q-143 -140 -284.5 -292.5t-242 -270.5t-180.5 -216.5 t-119 -150.5l-40 -53q0 -43 -47 -49q-6 -1 -13 -1q-50 0 -104 41q-83 64 -84 167q0 60 51 163.5t133 224t181 256.5l198 272t181 258.5t133 228.5t51 170q0 82 -81.5 149.5t-217.5 67.5q-158 0 -326.5 -52.5t-316 -140t-281 -204t-228.5 -241t-150.5 -254.5t-55.5 -241 q0 -60 20.5 -107.5t52 -75.5t73.5 -46t79 -24.5t74 -6.5q134 0 286 96q73 47 83 51q30 13 34 -20q1 -6 1 -14q0 -46 -44 -84.5t-106.5 -60t-119 -33t-91.5 -11.5q-82 0 -163 21t-156 64.5t-132 104.5t-91.5 148t-34.5 187z" />
<glyph unicode="X" horiz-adv-x="1277" d="M-289 266v13q0 49 42.5 109.5t122.5 126t169.5 127.5t210.5 132.5t216 123t214 114.5l-6 655q1 35 -8.5 61t-22.5 40.5t-26.5 27t-23 29.5t-9.5 39q0 6 29.5 15t37.5 7q1 0 3.5 -1t3.5 -1q136 0 206 -198t70 -547q154 71 275 129t267.5 135t243.5 138.5t163.5 124 t66.5 106.5q0 17 -8 41.5t-12.5 41t-2.5 33t23.5 25t64.5 8.5q26 1 29 -55v-13q0 -50 -20 -106q-26 -72 -118.5 -164.5t-241 -199.5t-289 -200t-328.5 -212q-24 -14 -37 -22.5t-32.5 -21t-35.5 -22.5q0 -760 211 -760q10 0 49 15.5t52 5.5q16 -13 16 -30q0 -25 -37 -59 q-55 -51 -130 -71q-24 -6 -42 -6q-68 0 -125 18.5t-97.5 47t-73 75t-53 89t-35 104t-21.5 104.5t-10.5 106.5t-4 94.5t-0.5 81v9q-80 -55 -140 -97.5t-141 -103t-139.5 -109.5t-120.5 -108.5t-101 -109t-64 -101.5t-25 -96q0 -65 -39 -65q-41 0 -87 64q-75 105 -79 263z" />
<glyph unicode="Y" horiz-adv-x="1280" d="M-739 965q-2 23 -2 47q0 96 35 196q45 126 130.5 239t209.5 215t266.5 176t307.5 117.5t327 43.5q85 0 151 -25.5t104.5 -61.5t64.5 -86t36 -89t14 -80q1 -8 1 -17q0 -85 -62 -244q-67 -176 -165.5 -365.5t-196 -367.5t-154.5 -293q-42 -84 -42 -106q0 -8 5 -8 q35 0 250.5 165.5t413.5 330.5l198 166l76 141q190 351 190 450q0 26 37 20q54 -7 106 -63q72 -78 72 -194q0 -54 -78 -207q-630 -1215 -788 -1505q-46 -97 -96 -181q-283 -479 -568 -559q-25 -7 -51 -7q-54 0 -110 31q-83 46 -115 155q-2 7 -2 15q0 45 63 130 q74 100 188 211t230 216t199 173l82 68q81 116 206.5 355t210.5 420l85 181q-23 -35 -131.5 -152t-249 -256t-285.5 -246.5t-217 -107.5q-50 0 -88.5 21t-60 52.5t-35 75.5t-17.5 82.5t-4 81.5q0 58 76 212t184 340.5t216.5 373t184.5 344t76 221.5q0 63 -62 107.5 t-157 44.5q-58 0 -134 -23.5t-159 -66t-170 -104.5t-167.5 -134.5t-150.5 -160.5t-119.5 -179.5t-74.5 -193.5q-18 -76 -18 -149q0 -26 2 -52q5 -66 25 -115.5t44.5 -75t56.5 -41t54 -19t43 -3.5q56 0 91.5 16t49 39t21 46t17.5 39t30 16q28 0 37 -35q4 -13 4 -26 q0 -38 -31 -77q-72 -90 -256 -90q-92 0 -169 26.5t-127 67.5t-85.5 94.5t-52 104t-20.5 99.5zM-104 -997q9 -32 37 -44q15 -6 31 -6q14 0 30 5q67 19 146 99.5t144.5 182t122 200t87.5 165.5l32 67l-193 -176q-438 -411 -438 -487q0 -3 1 -6z" />
<glyph unicode="Z" horiz-adv-x="1236" d="M0 117q0 78 53.5 167.5t145 177t214 180.5t259.5 179t282.5 170.5t282.5 157t259.5 137.5t214 112.5t145 80t53.5 43.5q-431 -13 -709 -13q-319 0 -393 45q-95 57 -163 207q-49 110 -49 183v11q2 43 26 43q7 0 15 -4q4 -2 9 -5q14 -8 22 -40.5t31 -45.5q99 -59 161 -82 q88 -31 173 -31q202 0 482 17.5t376 17.5q74 0 127 -17.5t79.5 -41.5t41.5 -60.5t18 -60.5t3 -56q0 -45 -105.5 -132t-274.5 -194t-373 -229t-408.5 -246t-373.5 -235t-274.5 -206t-105.5 -150q91 0 184 -39t177 -102t172 -138.5t183 -151.5t194 -139t221 -102t249 -39 q424 0 610 248q18 23 21 24q3 0 4 -11v-11q0 -28 -9.5 -67.5t-35.5 -93.5t-65 -107.5t-103.5 -106t-145.5 -92.5t-198.5 -65t-253.5 -25q-96 0 -184 30.5t-157.5 81.5t-134.5 117.5t-122 140t-112.5 147.5t-113.5 140.5t-118 117.5t-132.5 81.5t-150.5 30.5q-26 0 -63 -6 t-62 -10t-49.5 -2.5t-36.5 18.5t-12 51z" />
<glyph unicode="[" horiz-adv-x="1005" d="M0 -43q4 56 410 733q267 445 408.5 700.5t164.5 346.5q0 16 2 18v2h6q3 0 143 -10t327 -18t294 -3q41 1 62.5 -17.5t21.5 -37.5q2 -24 -68 -42t-205.5 -27.5t-208 -13t-194.5 -7.5q-48 -125 -362 -625q-304 -502 -407 -689q-121 -222 -175 -361q448 -31 615 -21 q41 1 64.5 -18.5t23.5 -38.5q2 -72 -744 -90h-4h-4q-14 0 -31 10q-54 25 -96.5 79t-42.5 130z" />
<glyph unicode="\" horiz-adv-x="892" d="M0 1307q0 119 68 219q38 57 64 60q15 2 15 -21q0 -50 135 -293t296.5 -508t296.5 -498t135 -264q0 -111 -86 -183q-50 -41 -86 -41q-16 1 -15 13q0 82 -85 254.5t-206 365.5t-241.5 379.5t-205.5 330.5t-85 186z" />
<glyph unicode="]" d="M-315 -178q-1 25 75 43.5t200.5 28t218 14t192.5 6.5q43 106 324 572q25 42 38 63q163 265 243.5 398t190.5 334.5t156 324.5q-437 35 -621 24q-41 -3 -62.5 15.5t-23.5 40.5q-4 74 750 92h2h2q20 0 33 -13q56 -28 99.5 -80.5t43.5 -128.5q-1 -9 -8.5 -28t-24 -51.5 t-33.5 -64.5t-46 -83t-51.5 -90t-59.5 -102.5t-61 -103.5t-65.5 -110.5t-63.5 -107.5q-285 -478 -422 -723t-158 -334q0 -6 -1 -12.5t-1 -7.5l-2 -2h-2h-4q-3 0 -143 10t-330 18.5t-299 4.5q-39 -1 -62.5 18t-23.5 35z" />
<glyph unicode="^" horiz-adv-x="759" d="M145 1200q6 13 228 154q56 39 78 2q11 -17 29 -47.5t30 -49t28.5 -40t34.5 -34t37 -16.5q6 -2 -7 -7q-36 -15 -87 -15q-37 0 -70 21.5t-71 76.5q-128 -84 -148 -84q-12 -1 -33.5 6t-37 16.5t-11.5 16.5z" />
<glyph unicode="_" horiz-adv-x="1705" d="M53 -19q1 17 13 17q2 0 285.5 -10t630 -18t486.5 -1q52 0 80.5 -20.5t28.5 -38.5q2 -17 -67 -31.5t-183.5 -24.5t-251.5 -18t-283 -12.5t-265.5 -8t-211 -5.5t-108.5 -3q-63 -1 -117 78q-40 58 -37 96z" />
<glyph unicode="`" horiz-adv-x="595" d="M90 1311q0 34 63 78q65 45 107 41q25 -3 25 -29q0 -47 67 -195q62 -139 67 -179q6 -42 -26 -42q-26 0 -100 63.5t-138.5 144t-64.5 118.5z" />
<glyph unicode="a" d="M0 240q0 86 82 222t195 258.5t240.5 212t209.5 89.5q71 0 128 -88q41 -64 41 -109q-1 -20 -13 -20q-114 0 -314 -190q-159 -150 -271 -317q-78 -116 -78 -161q0 -13 7 -21q6 -7 19 -7q23 0 139.5 118.5t218.5 244.5q94 115 95 139q0 2 -1 3q-9 14 13 14h2q36 0 76 -34 q54 -47 55 -123q0 -78 -83 -230q-53 -95 -57 -114q-4 -21 13 -21q31 0 128.5 95t216.5 239.5t206 276.5q20 29 46 23q18 -4 18 -23q0 -6 -2 -14q-3 -13 -13 -29q-25 -37 -68.5 -97t-129 -167t-163.5 -193t-162.5 -151.5t-136.5 -65.5q-58 0 -111.5 66.5t-53.5 111.5 q0 22 8.5 53t17.5 51l8 21q-10 -12 -28 -32.5t-66.5 -73t-89.5 -92.5t-84.5 -72.5t-64.5 -32.5q-63 0 -128 69.5t-65 170.5z" />
<glyph unicode="b" horiz-adv-x="1060" d="M14 186q0 57 81.5 208.5t197.5 336t232.5 372.5t198 353t81.5 242q0 12 14 12q9 0 25 -5q60 -20 107 -79q50 -64 50 -141q0 -98 -247 -488q58 23 108 23q30 0 54.5 -3t57 -17t54.5 -37.5t37.5 -69t15.5 -107.5q0 -140 -69.5 -287.5t-180.5 -271.5q142 96 284 232.5 t224 261.5q20 28 46 22q20 -4 20 -25q0 -4 -1 -10q-3 -14 -15 -32q-14 -22 -57.5 -74.5t-115 -131.5t-163.5 -160t-191 -152.5t-210.5 -116.5t-209.5 -45l2 4q-36 2 -67.5 17t-59 44.5t-44.5 52.5t-42 62q-4 -10 -20.5 -47.5t-27.5 -65t-11 -34.5q0 -36 -35 -28 q-41 10 -81 64q-42 57 -42 121zM266 244q24 -17 64 -17q183 0 346 182q120 134 178 301q30 86 30 141q0 35 -12 57q-15 26 -45 26q-45 0 -186 -107l-166 -237q-131 -199 -209 -346z" />
<glyph unicode="c" horiz-adv-x="753" d="M104 342q0 68 57 186t135.5 228t168 191t147.5 81q28 0 48 -19t26 -38l6 -19q0 7 22.5 28.5t45 47t22.5 43.5q0 11 8 11q4 0 10 -3q32 -16 53 -79q17 -50 17 -111q0 -63 -14.5 -106.5t-35 -67.5t-40.5 -47t-34.5 -62t-14.5 -96q-41 0 -73 23.5t-48.5 57t-27 67.5 t-12.5 58l-3 23q-10 -10 -26 -27.5t-57 -73.5t-72.5 -112.5t-57.5 -136.5t-26 -153q0 -67 32.5 -98.5t77.5 -31.5q32 0 142.5 97t246.5 247.5t222 278.5q20 29 46 23q18 -4 18 -23q0 -6 -2 -14q-3 -13 -13 -29q-25 -37 -107.5 -137t-197 -228.5t-232.5 -224.5t-182 -96 q-144 0 -209.5 94t-65.5 248z" />
<glyph unicode="d" horiz-adv-x="1073" d="M20 254q0 81 52 187t134 204.5t174.5 183t181.5 136t147 51.5q41 0 75 -12.5t54 -30t34 -35.5t20 -30l5 -13q18 29 48.5 78t108 178.5t136.5 234.5t107.5 206t48.5 134q0 27 30 34q8 2 15 2q35 0 68 -35q61 -65 61 -205q0 -104 -258 -528q-55 -91 -170 -276 q-237 -378 -293 -493q-35 -71 -35 -100q0 -19 16 -19q30 0 132 94.5t228 241t212 275.5q20 29 46 23q24 -5 16 -37q-3 -13 -13 -29q-18 -27 -69.5 -95.5t-135.5 -169.5t-168.5 -191t-170.5 -154t-138 -64q-81 0 -135 63t-54 201q-8 -11 -22.5 -28.5t-54.5 -63t-75 -80.5 t-75 -63.5t-65 -28.5q-35 0 -71 14.5t-70 43t-55.5 80t-21.5 116.5zM256 117q2 -17 16 -17q57 0 222 189q163 187 274 370q72 122 72 166q0 21 -17 23q-37 0 -130.5 -82t-190.5 -194t-171.5 -242t-74.5 -213z" />
<glyph unicode="e" horiz-adv-x="729" d="M72 254q0 105 51.5 221t129.5 210.5t164.5 172t162 121t116.5 43.5q23 0 45.5 -9.5t46 -32.5t38 -71.5t14.5 -117.5t-69.5 -164.5t-161 -174.5t-181 -135.5t-129.5 -56.5l-7.5 -15t-11.5 -32.5t-7 -41.5t13.5 -33t43.5 -15q67 0 196 90.5t265.5 229.5t224.5 272 q20 29 46 23q18 -4 18 -23q0 -6 -2 -14q-3 -13 -13 -29q-16 -26 -74 -96t-151 -169.5t-191 -189.5t-203 -153.5t-178 -63.5q-4 0 -11 0.5t-27.5 6t-39 14t-41 28t-39 45t-27.5 67.5t-11 93zM334 338q176 103 288 258q72 99 72 149q0 23 -18 23q-31 0 -116.5 -107.5 t-155.5 -214.5z" />
<glyph unicode="f" horiz-adv-x="735" d="M-178 -444q4 51 12 97.5t21 104.5q39 172 227 555q32 92 157.5 317.5t253.5 441t232 421.5t104 276q0 19 23 19q6 0 13 -1q53 -9 101 -65q60 -71 60 -172q0 -26 -14.5 -69.5t-49 -110.5t-65 -122.5t-89 -152.5t-92 -151.5t-104 -167.5t-96.5 -155l47 -39q22 -48 22 -96 q0 -23 -5 -46q-12 -55 -54 -161l-4 -11q85 25 239.5 157t268.5 304q20 29 45 23q19 -4 19 -23q0 -5 -2 -12q-5 -15 -15 -31q-16 -24 -53 -71.5t-102.5 -120.5t-135.5 -139t-154 -123t-155 -76q-57 -137 -124.5 -274t-140 -263.5t-141 -205.5t-114.5 -79q-42 0 -71 16.5 t-43 48t-20 69.5q-3 21 -3 47q0 19 2 41zM25 -481q49 0 158.5 196.5t201.5 429.5q-53 8 -88 52q-88 -183 -155.5 -337.5t-99.5 -247.5q-22 -63 -22 -84q0 -9 5 -9zM373 348q18 -60 59 -76q19 58 31.5 102.5t18.5 79.5q3 20 3 35q0 11 -3 20q-4 19 -19 19q-24 -45 -90 -180z " />
<glyph unicode="g" horiz-adv-x="1028" d="M-414 -585q0 37 71 97q74 62 182.5 123.5t217.5 117.5t185 91l77 35q38 43 107.5 159t119.5 211l50 95q-11 -14 -29.5 -37t-68.5 -81.5t-92 -103.5t-86.5 -81.5t-65.5 -36.5q-39 0 -85 28.5t-84 86t-44 125.5q-1 8 -1 16q0 52 27 124q31 82 85 167.5t126 171t145.5 152 t148 108t130.5 41.5q71 0 136 -90q45 -63 47 -106q1 -19 -11 -19q-113 0 -295 -187q-146 -150 -244 -318q-66 -113 -66 -160q0 -16 8 -25q6 -8 20 -8q23 0 130 118.5t199 244.5q82 112 82 138q0 4 -1 6q-9 14 11 14h2q37 0 80 -35q57 -48 64 -124q1 -7 1 -14 q0 -103 -122 -332q100 63 279 244.5t289 345.5q19 29 44 23q18 -5 18 -25q0 -5 -1 -11q-3 -14 -14 -30q-21 -32 -96 -122t-179 -206.5t-218.5 -215t-186.5 -122.5l-4 -6l-45 -78q-70 -114 -143.5 -213.5t-161 -193t-174 -159.5t-183.5 -106t-190 -40q-67 0 -125 54 q-66 60 -66 149zM-360 -600q3 -26 23 -41.5t48 -15.5q56 0 132 45.5t144 110.5t128 130t95 111l36 45l-214 -114q-396 -218 -392 -271z" />
<glyph unicode="h" horiz-adv-x="1093" d="M-2 174q0 57 81 209.5t197 338t232 372t197 343.5t81 220q0 11 11 11q8 0 21 -6q49 -20 88 -80q40 -63 40 -138q0 -48 -54 -158t-130.5 -232t-153 -237t-130.5 -191l-54 -75q10 10 27.5 26.5t69.5 65t101 93t111 98t111 92.5t90.5 65.5t58.5 26.5q40 0 66.5 -34.5 t36.5 -80.5t10 -100q0 -36 -113 -213q-139 -219 -176 -290q-54 -102 -54 -150q0 -44 44 -44q47 0 239.5 206t325.5 405q20 29 45 23q19 -4 19 -23q0 -5 -2 -12q-5 -15 -15 -31q-18 -28 -68.5 -96t-134 -169.5t-166.5 -191t-168 -153.5t-137 -64q-62 0 -107.5 49.5t-64 113 t-18.5 128.5q0 53 73.5 189.5t147.5 247.5l74 110q-14 -13 -38.5 -35t-95 -89.5t-134.5 -131.5t-142 -149t-134.5 -155t-95 -137t-38.5 -106q0 -36 -39 -31q-46 6 -89 55q-46 52 -46 115z" />
<glyph unicode="i" horiz-adv-x="604" d="M80 283q5 63 62 168t137 240.5t118 234.5q3 9 8 37.5t14.5 40.5t31.5 12q46 0 91 -66q38 -55 37 -139q0 -17 -1 -35q-5 -60 -118 -240q-117 -189 -140 -230q-52 -97 -52 -146q0 -34 25 -44q12 -5 31 -5q30 0 130.5 94.5t225 241t211.5 278.5q20 28 46 22q18 -5 18 -24 q0 -7 -2 -15q-4 -14 -13 -28q-22 -32 -70 -96.5t-133.5 -169t-168 -192.5t-168 -153t-138.5 -65q-55 0 -95 27.5t-58.5 71t-25.5 89.5q-4 29 -4 58q0 17 1 33zM569 1311q4 53 22 93.5t42 62t47 32t43 10.5q45 0 117 -43q68 -41 67 -85q1 -31 -21 -57q-18 -22 -52.5 -57.5 t-59.5 -80.5q-9 -16 -23 -40q-30 -53 -38.5 -62t-28.5 -9q-43 0 -84 67q-33 54 -33 130q0 19 2 39z" />
<glyph unicode="j" horiz-adv-x="567" d="M-848 -542q0 36 71 96q74 61 182.5 122.5t217.5 117.5t185 91l77 35q38 43 125 209t155 311l68 144q4 9 19 44t20.5 47.5t18.5 44t19 47.5t16 44t16 47t12.5 42t10.5 44q2 9 4.5 36.5t10.5 37.5t30 10q27 0 60 -23.5t64 -79.5t37 -130q1 -7 1 -15q0 -70 -50 -196 q-54 -139 -112.5 -246.5t-112.5 -194.5q101 66 277 245.5t284 340.5q18 27 42 24q20 -3 20 -24v-6q-1 -16 -15 -37q-21 -31 -96 -121.5t-178.5 -206t-217.5 -214.5t-186 -124l-4 -6l-28 -47q-70 -115 -143.5 -215t-160.5 -193t-174 -159t-183.5 -105.5t-188.5 -39.5 q-68 0 -127 53q-66 60 -66 150zM-772 -600q20 -16 49 -16q56 0 132 45.5t144.5 110.5t128.5 130t96 110l36 46l-218 -115q-391 -214 -391 -267q0 -26 23 -44zM469 1327q-1 16 -1 32q0 76 34 117q40 50 86 50q45 0 124 -43t83 -90q1 -5 1 -10q0 -24 -13 -43q-15 -22 -43 -57 t-46 -79q-6 -16 -16 -42q-20 -52 -26.5 -61t-26.5 -9q-41 0 -93.5 66.5t-62.5 168.5z" />
<glyph unicode="k" horiz-adv-x="935" d="M20 164q0 77 52 203.5t130.5 261t170 286.5t170 281t130.5 242t52 172q0 24 23 24q6 0 14 -2q49 -12 94 -68q55 -69 55 -153q0 -31 -28.5 -94.5t-84 -158t-109 -180t-134 -213t-127.5 -204.5q32 -18 51 -18q40 0 133.5 55.5t189 132t168 166t72.5 147.5q0 46 26 47h1 q28 0 53 -50q31 -59 31 -152q0 -73 -44 -145.5t-121.5 -131t-196 -95t-254.5 -36.5q7 -15 20 -41.5t56 -102.5t89 -145.5t116 -154t139.5 -145.5t157 -102.5t171.5 -41.5q32 0 55.5 17t34 37.5t27.5 37.5t39 17q18 0 18 -19q0 -9 -4 -22q-17 -60 -86 -119q-110 -94 -260 -94 q-61 0 -124.5 33t-118 84t-111.5 126t-100.5 145.5t-89.5 156.5t-74 145t-59 125t-40 84q-89 -147 -152 -276.5t-63 -178.5q0 -37 -35 -41q-4 -1 -9 -1q-36 0 -71 38q-43 46 -43 121z" />
<glyph unicode="l" horiz-adv-x="598" d="M82 250q0 63 76.5 224t185 353.5t217.5 385t185.5 352.5t76.5 221q0 20 23 20q6 0 13 -1q52 -8 99 -63q62 -71 62 -175q0 -80 -213 -449q-43 -74 -135 -230q-248 -419 -320 -569q-59 -125 -59 -177q0 -36 29 -36q47 0 246.5 212.5t332.5 410.5q18 27 42 24q23 -3 20 -30 q-1 -16 -15 -37q-18 -27 -70 -97t-137 -173t-170.5 -194t-172 -156.5t-138.5 -65.5q-44 0 -77.5 17t-52 42.5t-30 61t-15 65.5t-3.5 64z" />
<glyph unicode="m" horiz-adv-x="1470" d="M10 213q0 56 64.5 169.5t141.5 224t141.5 231.5t64.5 190q0 26 21 26h6q36 -5 72 -59q48 -73 48 -180q0 -44 -22 -99.5t-44 -89.5l-22 -34q9 9 24 24.5t59.5 61t86.5 86.5t95 91.5t94.5 86.5t77 61t49.5 25q53 0 93 -64t40 -141q0 -32 -56 -129q116 116 239 225t159 109 q50 0 82 -62.5t32 -142.5q0 -44 -161 -291q-170 -260 -202 -314q-51 -89 -51 -117q0 -13 11 -13q44 0 156.5 103.5t239 253t216.5 284.5q19 29 44 23q18 -4 18 -24q0 -5 -1 -11q-4 -15 -14 -31q-24 -37 -67 -98.5t-129 -170t-167 -196.5t-172.5 -154.5t-154.5 -66.5 q-61 0 -99 65.5t-38 180.5q0 48 35 128t85 159t100 151.5t85 117.5l35 46q-16 0 -107.5 -71t-205 -177t-172.5 -184q-68 -101 -139.5 -236.5t-71.5 -165.5q0 -14 -8 -14q-6 0 -17 8q-40 29 -70 103q-26 64 -26 127q0 48 35 128.5t85.5 161t101 154.5t85.5 120l35 46 q-33 0 -206 -187.5t-333.5 -394t-160.5 -252.5q0 -17 -13 -17q-6 0 -16 4q-39 17 -73 74q-38 63 -38 138z" />
<glyph unicode="n" horiz-adv-x="978" d="M12 225q0 46 42 126.5t101.5 169t119 179t101.5 178t42 144.5q0 26 22 26h5q36 -5 73 -58q49 -72 49 -179q0 -44 -17.5 -86t-34.5 -62l-17 -20l21.5 21.5t53.5 53t77.5 75.5t85.5 79.5t86 75t71 53t47 21.5q51 0 83 -62.5t32 -142.5q0 -44 -154 -281q-163 -251 -194 -305 q-49 -85 -49 -113q0 -14 12 -14q58 0 170 101.5t225 240.5t209 283q19 29 44 23q18 -4 18 -24q0 -5 -1 -11q-4 -15 -14 -31q-21 -32 -68 -97.5t-131.5 -171.5t-166.5 -195.5t-169.5 -155.5t-144.5 -66q-60 0 -99.5 72.5t-39.5 187.5q0 48 31 125.5t76 154t89.5 146 t75.5 112.5l31 44q-33 0 -194 -174t-310 -367t-149 -238q0 -63 -28 -63h-2q-30 2 -66 63q-44 76 -44 162z" />
<glyph unicode="o" horiz-adv-x="897" d="M102 258q0 106 42.5 219.5t111 208t149.5 171t164.5 120t149.5 43.5q152 0 248 -162q1 -4 1.5 -9.5t-7 -11.5t-18 -11t-31 -8t-46.5 -3q-154 0 -318 -184q-127 -141 -199 -315q-42 -102 -42 -160q0 -28 10 -47q12 -23 39 -23q34 0 82 25t92 60.5t83.5 71t62.5 60.5l24 25 q-18 51 -18 125q0 85 60 136q35 30 69 30q12 0 24 -4q50 -17 50 -95q0 -54 -103 -188q5 -5 18.5 -10t20.5 -5q33 0 65.5 20t80.5 79.5t77.5 102.5t103.5 154q7 10 11 16l10 15t11 17q18 27 42 23q20 -3 20 -24v-6q-1 -16 -15 -36q-1 -2 -31 -52t-55 -88.5t-69 -97 t-82.5 -97.5t-86 -68t-88.5 -29q-39 0 -74 26q-12 -16 -22 -26q-11 -13 -29 -33q-180 -187 -332 -209q-2 -2 -6 -2q-8 0 -10 -2h-20q-36 0 -70 10.5t-70 36.5t-58 80t-22 131z" />
<glyph unicode="p" horiz-adv-x="1058" d="M-246 -283q0 59 70 200t169.5 307t199 332.5t169.5 307.5t70 201v55q0 17 32 26q15 4 29 4q39 0 73 -28q67 -55 67 -196q0 -25 -4.5 -49t-9.5 -35l-5 -11q6 8 17 21t44.5 46t66.5 58.5t79.5 46.5t87.5 21q52 0 90.5 -20t58 -53t28 -68t8.5 -74q0 -234 -129 -422 q102 55 203 141.5t178 200.5q20 29 46 23q18 -4 18 -23q0 -6 -2 -14q-3 -13 -13 -29q-17 -25 -66 -77.5t-118 -116.5t-155.5 -121t-158.5 -78l-10 -14q-223 -279 -453 -279q-127 0 -127 88q0 36 33.5 70.5t81.5 59t96 43.5t82 29l33 9q11 18 28.5 49t63 115t80.5 155 t63.5 145.5t28.5 110.5q0 68 -53 68q-54 0 -149 -95t-198 -239.5t-211.5 -317t-193.5 -327.5t-139.5 -271t-54.5 -147q0 -28 -18 -28q-6 0 -14 3q-37 14 -73 72q-39 62 -39 125zM436 113q0 -26 14 -26q28 0 106 92l52 65q-7 -3 -18.5 -8.5t-41 -22t-52.5 -31.5t-41.5 -34.5 t-18.5 -34.5z" />
<glyph unicode="q" horiz-adv-x="937" d="M0 256q0 85 82 219t195 254t240.5 207.5t209.5 87.5q72 0 129 -84q40 -59 40 -100q-1 -19 -13 -19q-189 0 -396 -181q-150 -131 -240 -293q-62 -110 -62 -174q0 -18 5 -33q13 -34 56 -34q23 0 144 123t228 253q100 121 100 146q0 2 -1 3q-8 14 11 14q33 0 68 -36 q48 -47 48 -124q0 -116 -199 -422q86 59 272 273t306 393q19 29 44 23q18 -4 18 -24q0 -5 -1 -11q-4 -15 -14 -31q-33 -48 -104 -142t-185.5 -235t-229.5 -247t-184 -119v-2q-139 -220 -242.5 -424.5t-103.5 -251.5q0 -35 -28 -35h-2q-38 1 -76 47q-41 50 -41 113 q0 72 95 252.5t261 455.5l154 258q-13 -14 -34.5 -38t-80 -85.5t-107 -108.5t-98.5 -85.5t-71 -38.5q-62 0 -127.5 77t-65.5 179z" />
<glyph unicode="r" horiz-adv-x="763" d="M164 965q0 115 40 220.5t99.5 175t125.5 111t120 41.5q59 0 99 -36t40 -97q0 -46 -29.5 -120t-71 -146t-83.5 -137t-72 -105l-29 -41q273 141 316 166q6 3 20.5 13t22 14t20.5 3t25 -11l17 -14q17 -15 26 -23.5t27.5 -27.5t28 -33.5t20 -35.5t11.5 -39t-5 -39t-23 -40 q-44 -50 -98.5 -129t-119 -193.5t-107.5 -253t-43 -262.5q0 -101 21.5 -181t54.5 -128t76.5 -79t83 -42.5t79.5 -11.5q82 0 131 26.5t68 61.5q12 16 21.5 15.5t15.5 -9.5l6 -10q-2 -6 -7 -16t-26.5 -35t-49 -44t-78 -35t-110.5 -16q-83 0 -169.5 38t-162 109t-123.5 188 t-48 259q0 102 28.5 215t75.5 216t88 177.5t86 143.5q-133 -61 -280 -61q-20 0 -38.5 5t-41.5 21.5t-39.5 43t-27.5 75.5t-11 113zM319 973q0 -32 9.5 -59.5t18.5 -39.5l9 -12q23 41 68 121q108 191 123 243q5 16 5 26q0 22 -20 22q-34 0 -85 -54t-89.5 -126.5t-38.5 -120.5 z" />
<glyph unicode="s" horiz-adv-x="774" d="M158 178q0 49 33 91t80 67.5t93.5 44t79.5 25.5l33 8q2 10 4.5 27.5t8 70t7.5 103.5q1 20 1 44q0 35 -2 75q-3 68 -13 126q-2 11 -2 29q-76 -127 -149 -227q-11 -15 -23.5 -21t-21.5 -2.5t-14.5 11.5t-4 21.5t10.5 26.5q188 275 227 408q6 24 12.5 44.5t17 45t22.5 34.5 q6 5 13 4q7 0 13 -5q2 -1 21 -16t28 -22t29 -25t31 -30.5t27 -32.5t24.5 -37.5t15 -39.5t6.5 -43q0 -34 -14 -71.5t-31 -76.5t-33.5 -139t-19.5 -243q134 30 233 96t174 180q20 29 46 23q18 -4 18 -23q0 -6 -2 -14q-3 -13 -13 -29q-49 -74 -85 -112q-140 -148 -371 -191v-14 q-1 -87 -23.5 -154.5t-55.5 -107t-76 -64.5t-80.5 -34t-74.5 -9q-21 0 -51.5 9.5t-65.5 29t-59 56.5t-24 83zM225 166q0 -41 39 -52q12 -3 24 -3q40 0 84 38q70 61 103 191q-10 -2 -27 -7t-60 -21.5t-76 -35t-60 -48.5t-27 -62z" />
<glyph unicode="t" horiz-adv-x="620" d="M25 1497q4 19 18.5 17.5t32.5 -15.5q116 -96 303 -96q159 0 303 16q174 329 174 418q0 20 24 20q6 0 13 -1q52 -8 100 -63q62 -71 62 -175q0 -50 -72 -191h59q91 0 165.5 -22.5t121.5 -60t75.5 -78.5t41.5 -86q4 -13 4 -24q0 -15 -8 -24q-13 -16 -30 -16h-17 q0 54 -101.5 117t-255.5 63q-86 0 -127 -2q-50 -90 -299 -514q-251 -425 -300 -565q-16 -47 -16 -74q0 -35 28 -35q30 0 134 94.5t232.5 241t214.5 275.5q18 27 42 24q23 -3 20 -30q-1 -16 -15 -37q-17 -27 -70 -96t-137.5 -169.5t-170.5 -190.5t-172.5 -154t-139.5 -64 q-178 0 -178 238q0 40 30 117.5t90.5 194.5t116.5 218.5t145 259.5t138 248q-72 -4 -229 -4q-277 0 -342 172q-9 26 -9 43q0 5 1 10z" />
<glyph unicode="u" horiz-adv-x="1036" d="M20 219q3 47 62.5 157t129 219.5t129.5 229.5t65 185q1 15 20 15q9 0 22 -4q56 -15 98 -70q39 -51 39 -115q0 -7 -1 -15q-5 -70 -152 -302q-18 -28 -54 -83q-138 -215 -165 -281q-12 -29 -11 -46q0 -25 23 -25q20 0 128 113t231.5 261.5t225.5 310t108 243.5q1 13 15 13 q9 0 24 -6q52 -21 91 -79q38 -57 38 -123q0 -8 -1 -16q-5 -73 -155 -308q-17 -28 -53 -83q-134 -208 -157 -269q-9 -24 -9 -38q0 -21 20 -21q30 0 134.5 100t232.5 252t215 283q19 28 45 22q18 -5 18 -23q0 -6 -2 -13q-3 -13 -14 -29q-17 -27 -69 -96.5t-135 -170t-167 -190 t-169.5 -153.5t-137.5 -64q-53 0 -92.5 38.5t-55.5 92.5q-13 41 -13 86q0 13 1 27q5 59 35 98q-10 -14 -27 -37t-66 -82t-93 -104t-96 -82t-87 -37q-74 0 -125 55q-44 48 -44 135q0 14 1 29z" />
<glyph unicode="v" horiz-adv-x="960" d="M78 270q0 49 46.5 145.5t102 191t102 207.5t46.5 192q0 22 44 19q65 -5 120 -54q64 -59 65 -148q0 -91 -152 -327q-20 -32 -60 -93q-110 -166 -125 -210q-12 -37 14 -37q32 0 117.5 73.5t189.5 191.5t201.5 249t163 264t65.5 219q0 61 -20 112t-49 80.5t-57.5 49.5 t-48.5 27l-20 8q-6 -11 -43 -11q-38 0 -48 22q-9 21 22 33q18 7 45 7q21 0 53 -8t73 -26t83 -43.5t82 -63.5t71.5 -82.5t50.5 -104t19 -125.5q0 -75 -61 -178t-151 -201t-201 -201.5t-203.5 -178.5t-166.5 -134.5t-83 -68.5q-2 -2 -13 -13.5t-16 -16t-16 -13.5t-19.5 -12.5 t-21.5 -7t-27 -3.5q-44 0 -79 27t-54.5 69.5t-30 87t-10.5 86.5z" />
<glyph unicode="w" horiz-adv-x="1222" d="M82 219q0 49 46.5 157t102 216t102 232.5t46.5 203.5q0 22 40 14q60 -10 111 -65q60 -64 60 -154q0 -83 -135 -315l-54 -93q-118 -198 -139 -260q-8 -25 -8 -41q0 -30 29 -30q28 0 128 94t181 193q4 26 12 59t26.5 85.5t41 93.5t58.5 71.5t77 30.5q37 -1 55 -25 q13 -18 13 -47q0 -10 -1 -21q-6 -41 -28 -83.5t-49.5 -74t-54 -57t-44.5 -38.5l-18 -13q-1 -6 -2 -15.5t-2 -38t-0.5 -54t5 -57t14 -54t27.5 -38t42 -15.5q70 0 144 92.5t131 232t103.5 296t71.5 292.5t25 213q0 71 -20 127.5t-48.5 86t-57.5 49t-49 25.5l-20 5 q-17 -18 -83 -18q-34 0 -34 23q1 23 36 39q24 11 55 11t81 -16.5t112 -55.5t115.5 -92t89.5 -136t36 -179q0 -97 -33.5 -219t-88 -239t-125.5 -230t-142.5 -198t-142.5 -137t-123 -52q-59 0 -101.5 22t-65.5 60.5t-33.5 81t-12.5 94.5q-82 -102 -175 -180t-155 -78 q-69 0 -120.5 56t-51.5 163zM690 451q19 0 70 65q63 79 63 115q0 18 -18 18q-32 0 -60.5 -49.5t-41.5 -99.5z" />
<glyph unicode="x" horiz-adv-x="1234" d="M141 139q0 49 29.5 99.5t72 91.5t110 87t124 78t133.5 72q0 68 9.5 187t11.5 161q0 39 -23 39q-35 0 -123 -92q-88 -90 -155 -186q-15 -22 -36.5 -24t-28 15t8.5 44q88 124 169.5 206t164.5 105q12 2 45 2q31 -5 63 -24t65 -56t54 -103.5t21 -152.5q40 19 98.5 45 t97.5 43.5t86 40t77.5 40t58 36.5t40.5 37t13 35q0 7 -2 22t-1.5 22.5t4.5 17t17.5 13.5t36.5 4q12 0 14 -29q0 -3 1 -7q0 -26 -11 -56q-10 -29 -34 -60.5t-67.5 -69t-80 -66.5t-105.5 -75.5t-108.5 -72t-122.5 -78.5q2 -45 2 -88v-41q-1 -46 -2 -86v-27q0 -52 4.5 -89.5 t18.5 -58.5t39 -21q32 0 138.5 94t237.5 241t216 275q20 29 46 23q18 -4 18 -23q0 -6 -2 -14q-3 -13 -13 -29q-19 -28 -72 -97t-140.5 -172.5t-174 -194.5t-174.5 -156.5t-140 -65.5q-67 0 -115.5 18t-78 47.5t-47 77t-24 96t-7.5 115.5q-30 -21 -83 -56t-83 -55.5t-69 -51 t-60 -54t-36 -52t-15 -56.5q0 -29 -18 -29q-5 0 -11 2q-31 12 -59 60q-23 39 -23 77z" />
<glyph unicode="y" horiz-adv-x="956" d="M-489 -570q0 36 71 96q74 61 182.5 122.5t217.5 117t186 90.5l76 35q26 28 92 132q-35 -21 -57 -21q-72 0 -135.5 55.5t-73.5 161.5v8q0 48 45 149q49 110 109 219.5t108 228.5q43 108 43 171v13q-2 22 31 12q49 -16 94 -73q46 -62 53 -136v-7q0 -76 -115 -299l-48 -90 q-109 -207 -126 -268q-5 -20 -5 -33q0 -28 24 -28q51 0 145 114t181.5 265.5t150.5 312.5q56 146 56 228q0 10 -1 18q-1 10 6 10t20 -8q46 -25 84 -88q38 -62 44 -129v-13q0 -82 -68 -244q-74 -174 -207 -396q107 76 273.5 247.5t269.5 325.5q19 29 44 23q18 -4 18 -24 q0 -5 -1 -11q-4 -15 -14 -31q-21 -31 -95 -120.5t-177 -204.5t-216.5 -213.5t-185.5 -124.5l-6 -9l-24 -39q-214 -319 -443 -520q-124 -117 -222.5 -174t-211.5 -57q-67 0 -126 54q-66 62 -66 152zM-413 -629q20 -16 48 -16q56 0 132 45.5t144.5 110.5t128.5 130t96 111 l36 45l-218 -116q-390 -213 -390 -266q0 -26 23 -44z" />
<glyph unicode="z" horiz-adv-x="1042" d="M104 76q0 69 71 154.5t177 163.5t230.5 156.5t230.5 136.5t177 100t71 51q-162 -7 -301 -7q-157 0 -199 25q-29 19 -43 45q-52 -54 -115 -126.5t-86 -106.5q-16 -23 -37.5 -25.5t-27.5 14.5t10 45q108 157 232 265q-2 14 -2 41q0 87 47 98q6 2 13 2q26 0 47 -27 q20 -23 20 -51q0 -5 -1 -10q18 -2 58 -2q99 0 240 9t190 9q133 0 133 -162q0 -35 -112 -122t-254 -178.5t-293.5 -199t-210.5 -171.5l563 8q51 0 214.5 159t291.5 351q19 29 44 23q18 -5 18 -25q0 -5 -1 -11q-3 -14 -14 -30q-17 -27 -69 -96.5t-135 -170t-167.5 -190 t-170 -153.5t-138.5 -64h-541h-49q-111 0 -111 72z" />
<glyph unicode="{" horiz-adv-x="833" d="M106 55q11 67 84.5 217.5t147 298t82.5 203.5q4 40 0.5 68.5t-9 48t-5.5 31t12 16t43 4.5q27 0 82 91t121 221t135 260.5t140.5 221.5t121.5 91q124 0 156 -57q14 -27 1 -41q-4 -5 -10 -3q-52 0 -117 -86t-127.5 -209t-125 -246.5t-128 -209.5t-118.5 -86q2 -1 5.5 -2.5 t12.5 -8.5t13.5 -19t9 -33t-1.5 -50q-7 -41 -87.5 -200.5t-160 -323t-86.5 -219.5q-9 -69 -4.5 -91.5t11.5 -39.5t5 -33q-3 -21 -51 -9q-67 18 -114 71q-48 56 -38 124z" />
<glyph unicode="|" horiz-adv-x="892" d="M356 1638q-14 29 14 28q40 -1 101 -52q63 -53 98 -129q20 -55 16 -207t-13 -387t-18 -457t1.5 -417t44.5 -267q9 -17 -21 -27q-50 -15 -108 17q-59 32 -92 102q-13 27 -12.5 298t8 583t4.5 592t-23 323z" />
<glyph unicode="}" horiz-adv-x="833" d="M54.5 -98.5q0.5 10.5 0.5 20.5q1 9 16.5 10t39.5 0t51 3t56 25t48 60q9 19 48 102.5t73.5 157t85.5 170t93.5 164.5t88 116t78.5 48q-5 5 -13 14.5t-19 38.5t-7 58q5 32 174.5 370t175.5 388q5 33 -8 56t-30.5 33t-31.5 23t-11 29q3 20 62 23q90 3 156 -39 q80 -51 66 -146q-10 -67 -63 -184t-111.5 -222t-109.5 -211t-58 -155q-5 -35 14.5 -62.5t16.5 -43.5q-2 -13 -16.5 -17.5t-32.5 -5.5t-41 -16.5t-39 -46.5q-7 -14 -42.5 -92t-74.5 -162t-95 -187.5t-109 -183.5t-113 -134.5t-109 -54.5q-60 0 -102 4.5t-62.5 12t-33 17 t-12 20z" />
<glyph unicode="~" horiz-adv-x="978" d="M567 1270q0 12 21 12q6 0 14 -9t24.5 -18.5t43.5 -9.5q50 0 133 38t129 38q48 0 95 -23t79 -57q20 -20 20 -31q0 -14 -14 -14q-11 0 -40 22.5t-60 22.5q-48 0 -143 -44t-138 -44q-63 0 -110.5 36.5t-53.5 80.5z" />
<glyph unicode="&#xa1;" horiz-adv-x="823" d="M8 115q0 37 95.5 192.5t209.5 326.5t209.5 347.5t95.5 251.5q0 23 45 17q62 -9 110 -56q44 -43 44 -98q0 -28 -163.5 -294t-327.5 -539t-164 -320q0 -25 -34 -14q-45 16 -83 70q-37 54 -37 116zM731 1522q0 35 14 60t31 36.5t40 18.5t32.5 7.5t17.5 0.5q56 0 99 -33 t43 -90q0 -58 -39.5 -89.5t-94.5 -31.5q-56 0 -99.5 31.5t-43.5 89.5z" />
<glyph unicode="&#xa2;" horiz-adv-x="753" d="M102 342q0 68 57 186t136 228t168.5 191t148.5 81q27 0 56 -19t44 -38l15 -19q4 -5 37 -61q176 313 176 360q0 36 36 13q38 -24 65 -72q14 -26 14 -45q0 -40 -94.5 -203t-254 -423t-245.5 -415q53 5 120 65t175 224q20 29 46 23q24 -6 16 -37q-3 -13 -13 -29 q-18 -28 -40.5 -59t-66 -83t-87 -92.5t-99.5 -74t-106 -41.5q-117 -229 -117 -315q1 -18 -21 -8q-35 16 -62 72q-26 55 -26 122q0 24 72 152q-150 70 -150 317zM326 236q0 -40 12 -64q65 110 283 475q-8 22 -13.5 45t-7.5 35l-2 12q-11 -10 -29.5 -27.5t-65.5 -73.5 t-82.5 -112.5t-65 -136.5t-29.5 -153z" />
<glyph unicode="&#xa8;" horiz-adv-x="1120" d="M199 1683q0 56 38.5 86.5t90.5 30.5q56 0 97.5 -29.5t41.5 -87.5q0 -34 -13.5 -58.5t-29.5 -36t-39 -18t-32 -7t-17 -0.5q-54 0 -95.5 32.5t-41.5 87.5zM678 1683q0 56 38.5 86.5t90.5 30.5q56 0 97.5 -29.5t41.5 -87.5q0 -34 -13.5 -58.5t-29.5 -36t-39 -18t-32 -7 t-17 -0.5q-54 0 -95.5 32.5t-41.5 87.5z" />
<glyph unicode="&#xa9;" horiz-adv-x="1527" d="M172 459q-14 107 14 214t87.5 195.5t143 165t178 129.5t195.5 83t193 30q87 0 109 -60q15 -42 -8 -76q-14 -20 -33 -20q-92 0 -189 -28.5t-185 -78t-164.5 -121.5t-129 -154t-77 -180t-11.5 -196q11 -83 61.5 -143t118 -87.5t141.5 -27.5q97 0 198.5 44t185.5 120 t148.5 169t95.5 200.5t18 206.5q-10 52 15 65q24 11 49 -27q21 -35 30 -94q18 -129 -37 -272.5t-152.5 -257t-229.5 -188t-259 -74.5q-184 0 -332 132t-174 331zM461 451q-8 66 36.5 153.5t115.5 161.5t159.5 126t161.5 52q30 0 69.5 -29t69.5 -65q-5 -22 -24.5 -22t-42.5 9 t-29 7q-59 -19 -129.5 -65.5t-130.5 -106.5t-96.5 -132.5t-26.5 -133.5q12 -56 68 -56q49 0 96.5 17t77.5 37.5t60.5 37.5t47.5 17q-4 -13 -31.5 -44.5t-65.5 -66.5t-87 -61.5t-88 -26.5q-73 0 -137 63.5t-74 127.5z" />
<glyph unicode="&#xab;" horiz-adv-x="1550" d="M240 614q0 18 15 38t31 32t44 31q26 14 102 67q304 196 359 225q35 18 51 21h8q38 0 41 -32q2 -36 -42 -71q-17 -13 -38 -22q-45 -15 -158 -86q-100 -56 -272 -170q20 -13 101.5 -56t101.5 -56q133 -89 177 -123.5t50 -55.5q10 -62 -43 -129q-27 -34 -57 -34 q-12 0 -20.5 7t-8.5 17q-7 42 -131 141q-65 51 -262 183q-52 30 -49 73zM752 614q0 18 15 38t31 32t44 31q26 14 102 67q304 196 359 225q36 19 51 21h8q38 0 41 -32q2 -36 -42 -71q-17 -13 -38 -22q-45 -15 -158 -86q-100 -56 -272 -170q19 -13 101 -56t102 -56 q133 -89 177 -123.5t50 -55.5q10 -62 -43 -129q-27 -34 -57 -34q-12 0 -20.5 7t-8.5 17q-7 42 -131 141q-65 51 -262 183q-52 30 -49 73z" />
<glyph unicode="&#xad;" horiz-adv-x="1284" d="M166 846q-6 16 8 37q13 17 37 20q19 4 34.5 -3.5t20.5 -22.5v-3q3 -10 1 -19t0.5 -14t13.5 -3q6 1 110 49.5t241 103.5t224 74q72 15 132.5 -16.5t68.5 -61.5q8 -23 -6 -37q-14 -17 -35 -20q-2 -2 -4 -2q-29 -4 -43 10q-8 5 -11 12q-27 9 -88 -4q-4 0 -16 -4 q-74 -18 -242 -70q-137 -41 -264 -75q-2 0 -7 -1t-7 -1q-77 -17 -118.5 2.5t-49.5 48.5zM205 193q-8 26 6 45q14 21 35 24h2q12 4 27 1.5t18 -13.5q3 -16 -2.5 -30.5t-1.5 -31.5q6 -11 35 -7.5t82 20t112 38t124.5 47t119 47.5t96 38.5t55.5 19.5q7 0 15 4q77 17 119.5 -9.5 t52.5 -63.5q7 -24 -6 -46q-14 -21 -35 -24q-20 -5 -38 6t-22 31q-3 15 -1 26.5t-0.5 17.5t-14.5 3q-7 -1 -109 -55t-238 -115.5t-224 -79.5q-72 -17 -134.5 26t-72.5 81zM330 492q0 59 20.5 119.5t64 105.5t99.5 45q37 0 67.5 -38.5t30.5 -135.5q0 -101 -48.5 -171.5 t-96.5 -70.5q-23 0 -45.5 7.5t-44 23t-34.5 45.5t-13 70zM406 504q0 -60 19 -87.5t44 -27.5q23 0 45.5 55.5t22.5 135.5q0 54 -8.5 87.5t-17.5 42.5t-19 9q-38 0 -62 -70t-24 -145zM666 412q0 3 14 46q8 25 8 42v237q0 12 -6 24t-9.5 18t3.5 13t29 13q9 2 52 16t79 23.5 t53 9.5q6 0 11 -2t8 -6.5t4.5 -8.5t2 -12t0.5 -12.5v-14.5v-14q0 -22 -5 -23t-17 13q-8 8 -21.5 14t-22.5 8l-9 1q-36 -9 -52 -15q-16 -5 -23 -16t-7 -39v-55q7 1 26 6t23 6q3 1 7 5t7 8q7 10 9.5 10t3.5 -15q0 -71 -9 -71q-4 0 -10.5 7.5t-15.5 4.5l-41 -12v-27v-88 q0 -13 3 -25.5t6.5 -21t6 -15.5t0.5 -11.5t-10 -6.5q-36 -7 -78 -20q-20 -6 -20 6z" />
<glyph unicode="&#xae;" horiz-adv-x="1527" d="M172 459q-14 108 14 215t88 195.5t144 165.5t179 130t196.5 83t193.5 30q87 0 108 -60q15 -42 -9 -76q-14 -20 -33 -20q-93 0 -190 -28.5t-185.5 -78t-165 -121.5t-129 -154.5t-77 -180.5t-11.5 -197q11 -83 61.5 -143.5t118.5 -88.5t143 -28q121 0 246.5 69.5t218 175.5 t145 241t36.5 258q-10 51 15 64q23 13 48 -24q23 -34 33 -95q14 -104 -18 -219t-100 -215.5t-157 -182.5t-196.5 -130t-210.5 -48q-120 0 -229.5 58.5t-184 165.5t-92.5 239zM547 387q0 43 62 134.5t173 178.5q29 23 38 14.5t8 -26.5t-5 -24q-134 -118 -96 -175 q4 -5 11.5 -13t29 -28t41 -35.5t42.5 -28.5t38 -13q13 0 37 16q12 12 23 5q2 -3 1 -5q-4 -39 -32.5 -61.5t-69.5 -22.5q-23 0 -49.5 20t-43.5 41.5t-43 58.5t-34 48q-18 -24 -25.5 -53t-5.5 -46l2 -16q0 -14 4 -18t25 -4q3 -15 -1.5 -22t-11 -8t-22.5 -1q-45 0 -70.5 23 t-25.5 61zM590 743.5q-9 8.5 6.5 30t36.5 35.5q39 31 67.5 51t86 44t110.5 24q246 0 246 -193q0 -45 -34.5 -84t-90.5 -64t-118.5 -40.5t-125.5 -20.5q-25 0 0 13q37 14 78 33.5t89.5 47.5t80 63t31.5 67q0 41 -45 65.5t-101 24.5q-27 0 -53.5 -4t-56 -14.5t-46 -17 t-51.5 -23.5t-45 -21q-56 -25 -65 -16.5z" />
<glyph unicode="&#xb4;" horiz-adv-x="595" d="M182 1090q12 32 45 106q68 157 72 205q0 42 60 24q59 -18 106 -64q28 -29 29 -50q0 -38 -65 -118.5t-139 -144t-100 -63.5q-48 0 -8 105z" />
<glyph unicode="&#xbb;" horiz-adv-x="1669" d="M254 186q-40 87 8 164q13 21 129 84q51 29 250 133q17 9 82.5 40t81.5 40q-142 124 -195 168q-104 88 -121 88q-45 34 -36 71.5t55 37.5h10q28 -4 93 -58t220 -196q51 -51 74 -68q58 -49 58 -94q-6 -47 -78 -84q-208 -103 -355 -188q-170 -96 -204 -152q-10 -16 -29 -16 q-20 0 -43 30zM838 186q-40 87 8 164q13 21 129 84q51 29 250 133q17 9 82.5 40t81.5 40q-142 124 -195 168q-104 88 -121 88q-45 34 -36 71.5t55 37.5h10q28 -4 93 -58t220 -196q51 -51 74 -68q57 -48 57 -94q-6 -47 -78 -84q-201 -100 -354 -188q-172 -97 -205 -152 q-10 -16 -28 -16q-20 0 -43 30z" />
<glyph unicode="&#xbf;" horiz-adv-x="1705" d="M229 432q8 56 61.5 114.5t133.5 110.5t175.5 104.5t190.5 102.5t174.5 97t132 96.5t58.5 93.5q4 33 -4.5 55.5t-17.5 38.5t-7 31q3 21 45 19q63 -3 107 -49q50 -52 39 -136q-11 -79 -65.5 -151t-133.5 -127.5t-173 -107.5t-187.5 -102t-172 -100t-132 -112t-62.5 -129 q-13 -92 102 -102q136 -13 379 82q219 85 343 184q73 58 79 100q7 58 38 53q33 -4 68 -63q39 -65 32 -113l-2 -16q-10 -79 -100 -156.5t-214.5 -132t-264 -88t-251.5 -33.5q-84 0 -152.5 27.5t-111.5 72t-70.5 102t-36 117t-0.5 117.5zM1128 1595q0 35 14 60t31 36.5 t40 18.5t33 7.5t18 0.5q55 0 98 -33t43 -90q0 -58 -39 -89t-94 -31q-56 0 -100 31t-44 89z" />
<glyph unicode="&#xc0;" horiz-adv-x="1239" d="M-1149 772q0 139 58 272t155.5 240.5t226 198.5t269.5 152.5t286 95.5t275 34q76 0 141 -25t108.5 -65t77 -86.5t51.5 -94t27 -83.5t9 -59q0 -36 -16 -43.5t-32 2.5l-16 10q-1 4 -4 11.5t-16 28t-31 39.5t-53 42.5t-77.5 40t-108 28t-142.5 11.5q-142 0 -286 -35.5 t-264 -94.5t-225.5 -137t-178 -161t-114.5 -167.5t-42 -156.5q0 -9 0.5 -23.5t8.5 -57t22 -81.5t45.5 -86t74 -81t112 -57.5t155.5 -23.5q111 0 247 44.5t266 116.5t225 134t181 127q-184 -36 -252 -45q-99 -13 -180.5 4.5t-132 52.5t-87 83.5t-52.5 90.5t-21 81 q-6 51 5.5 60t26.5 -7l15 -17q6 -42 119.5 -73t258.5 -37.5t286 8.5q70 8 181.5 22.5t125.5 16.5l14 12q14 14 39 38.5t96.5 96.5t136 139.5t144 154t136.5 154.5t96 126.5t39 83.5q0 26 46 5q65 -28 126 -102q79 -96 79 -200q0 -27 -60 -150t-126 -245l236 39q40 5 61.5 10 t24.5 8.5t6 6t10 3.5q16 3 21.5 -6t5.5 -29q0 -27 -38 -48t-132 -46q-104 -26 -258 -63l-25 -49q-9 -19 -23.5 -53t-52 -132t-66 -189t-52 -205.5t-23.5 -199.5q0 -147 31.5 -271.5t79.5 -204.5t107 -137t112 -81.5t96 -24.5l51 -2q82 0 160 41.5t78 102.5q0 41 18.5 55 t36.5 -2t18 -49q0 -22 -9.5 -45t-34.5 -47.5t-61.5 -43.5t-97 -31.5t-135.5 -12.5q-110 0 -203.5 32.5t-159.5 86t-118.5 128.5t-84.5 155t-53.5 170t-29.5 169t-8 156q0 94 15 191t36 168t42.5 128.5t36.5 86.5l15 30l-47 -4q-56 -13 -172 -39.5t-172 -40.5 q-42 -45 -89 -91.5t-127 -119.5t-159.5 -137t-181 -132t-196.5 -116.5t-200.5 -79.5t-199.5 -31q-173 0 -302.5 86.5t-195 229t-65.5 317.5zM766 1051l168 26l92 13q31 67 112.5 210.5t147.5 253.5l66 111zM1198 2259q0 34 63 78q65 45 107 41q25 -3 25 -29q0 -47 67 -195 q62 -139 67 -179q6 -42 -26 -42q-26 0 -100 63.5t-138.5 144t-64.5 118.5z" />
<glyph unicode="&#xc1;" horiz-adv-x="1239" d="M-1149 772q0 139 58 272t155.5 240.5t226 198.5t269.5 152.5t286 95.5t275 34q76 0 141 -25t108.5 -65t77 -86.5t51.5 -94t27 -83.5t9 -59q0 -36 -16 -43.5t-32 2.5l-16 10q-1 4 -4 11.5t-16 28t-31 39.5t-53 42.5t-77.5 40t-108 28t-142.5 11.5q-142 0 -286 -35.5 t-264 -94.5t-225.5 -137t-178 -161t-114.5 -167.5t-42 -156.5q0 -9 0.5 -23.5t8.5 -57t22 -81.5t45.5 -86t74 -81t112 -57.5t155.5 -23.5q111 0 247 44.5t266 116.5t225 134t181 127q-184 -36 -252 -45q-99 -13 -180.5 4.5t-132 52.5t-87 83.5t-52.5 90.5t-21 81 q-6 51 5.5 60t26.5 -7l15 -17q6 -42 119.5 -73t258.5 -37.5t286 8.5q70 8 181.5 22.5t125.5 16.5l14 12q14 14 39 38.5t96.5 96.5t136 139.5t144 154t136.5 154.5t96 126.5t39 83.5q0 26 46 5q65 -28 126 -102q79 -96 79 -200q0 -27 -60 -150t-126 -245l236 39q40 5 61.5 10 t24.5 8.5t6 6t10 3.5q16 3 21.5 -6t5.5 -29q0 -27 -38 -48t-132 -46q-104 -26 -258 -63l-25 -49q-9 -19 -23.5 -53t-52 -132t-66 -189t-52 -205.5t-23.5 -199.5q0 -147 31.5 -271.5t79.5 -204.5t107 -137t112 -81.5t96 -24.5l51 -2q82 0 160 41.5t78 102.5q0 41 18.5 55 t36.5 -2t18 -49q0 -22 -9.5 -45t-34.5 -47.5t-61.5 -43.5t-97 -31.5t-135.5 -12.5q-110 0 -203.5 32.5t-159.5 86t-118.5 128.5t-84.5 155t-53.5 170t-29.5 169t-8 156q0 94 15 191t36 168t42.5 128.5t36.5 86.5l15 30l-47 -4q-56 -13 -172 -39.5t-172 -40.5 q-42 -45 -89 -91.5t-127 -119.5t-159.5 -137t-181 -132t-196.5 -116.5t-200.5 -79.5t-199.5 -31q-173 0 -302.5 86.5t-195 229t-65.5 317.5zM766 1051l168 26l92 13q31 67 112.5 210.5t147.5 253.5l66 111zM1515 1985q13 32 46 107q67 156 71 204q0 42 60 24q59 -18 106 -64 q28 -29 29 -50q0 -38 -64.5 -118.5t-138.5 -144t-100 -63.5q-48 0 -9 105z" />
<glyph unicode="&#xc2;" horiz-adv-x="1239" d="M-1149 772q0 139 58 272t155.5 240.5t226 198.5t269.5 152.5t286 95.5t275 34q76 0 141 -25t108.5 -65t77 -86.5t51.5 -94t27 -83.5t9 -59q0 -36 -16 -43.5t-32 2.5l-16 10q-1 4 -4 11.5t-16 28t-31 39.5t-53 42.5t-77.5 40t-108 28t-142.5 11.5q-142 0 -286 -35.5 t-264 -94.5t-225.5 -137t-178 -161t-114.5 -167.5t-42 -156.5q0 -9 0.5 -23.5t8.5 -57t22 -81.5t45.5 -86t74 -81t112 -57.5t155.5 -23.5q111 0 247 44.5t266 116.5t225 134t181 127q-184 -36 -252 -45q-99 -13 -180.5 4.5t-132 52.5t-87 83.5t-52.5 90.5t-21 81 q-6 51 5.5 60t26.5 -7l15 -17q6 -42 119.5 -73t258.5 -37.5t286 8.5q70 8 181.5 22.5t125.5 16.5l14 12q14 14 39 38.5t96.5 96.5t136 139.5t144 154t136.5 154.5t96 126.5t39 83.5q0 26 46 5q65 -28 126 -102q79 -96 79 -200q0 -27 -60 -150t-126 -245l236 39q40 5 61.5 10 t24.5 8.5t6 6t10 3.5q16 3 21.5 -6t5.5 -29q0 -27 -38 -48t-132 -46q-104 -26 -258 -63l-25 -49q-9 -19 -23.5 -53t-52 -132t-66 -189t-52 -205.5t-23.5 -199.5q0 -147 31.5 -271.5t79.5 -204.5t107 -137t112 -81.5t96 -24.5l51 -2q82 0 160 41.5t78 102.5q0 41 18.5 55 t36.5 -2t18 -49q0 -22 -9.5 -45t-34.5 -47.5t-61.5 -43.5t-97 -31.5t-135.5 -12.5q-110 0 -203.5 32.5t-159.5 86t-118.5 128.5t-84.5 155t-53.5 170t-29.5 169t-8 156q0 94 15 191t36 168t42.5 128.5t36.5 86.5l15 30l-47 -4q-56 -13 -172 -39.5t-172 -40.5 q-42 -45 -89 -91.5t-127 -119.5t-159.5 -137t-181 -132t-196.5 -116.5t-200.5 -79.5t-199.5 -31q-173 0 -302.5 86.5t-195 229t-65.5 317.5zM766 1051l168 26l92 13q31 67 112.5 210.5t147.5 253.5l66 111zM1223 1972q7 15 140.5 109t158.5 119q2 2 5.5 6t13 9.5t18.5 4.5 q10 -2 20 -22q1 -1 9.5 -18.5t22 -44t23.5 -44.5q84 -158 80 -170q-8 -7 -12 -6q-28 -1 -90 41.5t-109 91.5q-83 -38 -165.5 -65.5t-108.5 -20.5q-1 0 -3.5 4t-2.5 6z" />
<glyph unicode="&#xc3;" horiz-adv-x="1239" d="M-1149 772q0 139 58 272t155.5 240.5t226 198.5t269.5 152.5t286 95.5t275 34q76 0 141 -25t108.5 -65t77 -86.5t51.5 -94t27 -83.5t9 -59q0 -36 -16 -43.5t-32 2.5l-16 10q-1 4 -4 11.5t-16 28t-31 39.5t-53 42.5t-77.5 40t-108 28t-142.5 11.5q-142 0 -286 -35.5 t-264 -94.5t-225.5 -137t-178 -161t-114.5 -167.5t-42 -156.5q0 -9 0.5 -23.5t8.5 -57t22 -81.5t45.5 -86t74 -81t112 -57.5t155.5 -23.5q111 0 247 44.5t266 116.5t225 134t181 127q-184 -36 -252 -45q-99 -13 -180.5 4.5t-132 52.5t-87 83.5t-52.5 90.5t-21 81 q-6 51 5.5 60t26.5 -7l15 -17q6 -42 119.5 -73t258.5 -37.5t286 8.5q70 8 181.5 22.5t125.5 16.5l14 12q14 14 39 38.5t96.5 96.5t136 139.5t144 154t136.5 154.5t96 126.5t39 83.5q0 26 46 5q65 -28 126 -102q79 -96 79 -200q0 -27 -60 -150t-126 -245l236 39q40 5 61.5 10 t24.5 8.5t6 6t10 3.5q16 3 21.5 -6t5.5 -29q0 -27 -38 -48t-132 -46q-104 -26 -258 -63l-25 -49q-9 -19 -23.5 -53t-52 -132t-66 -189t-52 -205.5t-23.5 -199.5q0 -147 31.5 -271.5t79.5 -204.5t107 -137t112 -81.5t96 -24.5l51 -2q82 0 160 41.5t78 102.5q0 41 18.5 55 t36.5 -2t18 -49q0 -22 -9.5 -45t-34.5 -47.5t-61.5 -43.5t-97 -31.5t-135.5 -12.5q-110 0 -203.5 32.5t-159.5 86t-118.5 128.5t-84.5 155t-53.5 170t-29.5 169t-8 156q0 94 15 191t36 168t42.5 128.5t36.5 86.5l15 30l-47 -4q-56 -13 -172 -39.5t-172 -40.5 q-42 -45 -89 -91.5t-127 -119.5t-159.5 -137t-181 -132t-196.5 -116.5t-200.5 -79.5t-199.5 -31q-173 0 -302.5 86.5t-195 229t-65.5 317.5zM766 1051l168 26l92 13q31 67 112.5 210.5t147.5 253.5l66 111zM1141 2114q0 12 20 12q6 0 14 -9t24.5 -18.5t43.5 -9.5 q49 0 132 38t130 38q48 0 95 -23t79 -57q21 -21 21 -31q0 -14 -14 -14q-11 0 -40.5 22.5t-60.5 22.5q-48 0 -142.5 -44t-137.5 -44q-63 0 -110.5 36.5t-53.5 80.5z" />
<glyph unicode="&#xc4;" horiz-adv-x="1239" d="M-1149 772q0 139 58 272t155.5 240.5t226 198.5t269.5 152.5t286 95.5t275 34q76 0 141 -25t108.5 -65t77 -86.5t51.5 -94t27 -83.5t9 -59q0 -36 -16 -43.5t-32 2.5l-16 10q-1 4 -4 11.5t-16 28t-31 39.5t-53 42.5t-77.5 40t-108 28t-142.5 11.5q-142 0 -286 -35.5 t-264 -94.5t-225.5 -137t-178 -161t-114.5 -167.5t-42 -156.5q0 -9 0.5 -23.5t8.5 -57t22 -81.5t45.5 -86t74 -81t112 -57.5t155.5 -23.5q111 0 247 44.5t266 116.5t225 134t181 127q-184 -36 -252 -45q-99 -13 -180.5 4.5t-132 52.5t-87 83.5t-52.5 90.5t-21 81 q-6 51 5.5 60t26.5 -7l15 -17q6 -42 119.5 -73t258.5 -37.5t286 8.5q70 8 181.5 22.5t125.5 16.5l14 12q14 14 39 38.5t96.5 96.5t136 139.5t144 154t136.5 154.5t96 126.5t39 83.5q0 26 46 5q65 -28 126 -102q79 -96 79 -200q0 -27 -60 -150t-126 -245l236 39q40 5 61.5 10 t24.5 8.5t6 6t10 3.5q16 3 21.5 -6t5.5 -29q0 -27 -38 -48t-132 -46q-104 -26 -258 -63l-25 -49q-9 -19 -23.5 -53t-52 -132t-66 -189t-52 -205.5t-23.5 -199.5q0 -147 31.5 -271.5t79.5 -204.5t107 -137t112 -81.5t96 -24.5l51 -2q82 0 160 41.5t78 102.5q0 41 18.5 55 t36.5 -2t18 -49q0 -22 -9.5 -45t-34.5 -47.5t-61.5 -43.5t-97 -31.5t-135.5 -12.5q-110 0 -203.5 32.5t-159.5 86t-118.5 128.5t-84.5 155t-53.5 170t-29.5 169t-8 156q0 94 15 191t36 168t42.5 128.5t36.5 86.5l15 30l-47 -4q-56 -13 -172 -39.5t-172 -40.5 q-42 -45 -89 -91.5t-127 -119.5t-159.5 -137t-181 -132t-196.5 -116.5t-200.5 -79.5t-199.5 -31q-173 0 -302.5 86.5t-195 229t-65.5 317.5zM766 1051l168 26l92 13q31 67 112.5 210.5t147.5 253.5l66 111zM1081 2062q0 56 38 85.5t89 29.5q55 0 95 -29t40 -86 q0 -33 -13 -57.5t-28.5 -35.5t-37 -17.5t-30.5 -7t-17 -0.5q-53 0 -94.5 32t-41.5 86zM1548 2062q0 56 38 85.5t89 29.5q55 0 95 -29t40 -86q0 -33 -13 -57.5t-29 -35.5t-37.5 -17.5t-30.5 -7t-17 -0.5q-53 0 -94 32t-41 86z" />
<glyph unicode="&#xc5;" horiz-adv-x="1239" d="M-1149 772q0 139 58 272t155.5 240.5t226 198.5t269.5 152.5t286 95.5t275 34q76 0 141 -25t108.5 -65t77 -86.5t51.5 -94t27 -83.5t9 -59q0 -36 -16 -43.5t-32 2.5l-16 10q-1 4 -4 11.5t-16 28t-31 39.5t-53 42.5t-77.5 40t-108 28t-142.5 11.5q-142 0 -286 -35.5 t-264 -94.5t-225.5 -137t-178 -161t-114.5 -167.5t-42 -156.5q0 -9 0.5 -23.5t8.5 -57t22 -81.5t45.5 -86t74 -81t112 -57.5t155.5 -23.5q111 0 247 44.5t266 116.5t225 134t181 127q-184 -36 -252 -45q-99 -13 -180.5 4.5t-132 52.5t-87 83.5t-52.5 90.5t-21 81 q-6 51 5.5 60t26.5 -7l15 -17q6 -42 119.5 -73t258.5 -37.5t286 8.5q70 8 181.5 22.5t125.5 16.5l14 12q14 14 39 38.5t96.5 96.5t136 139.5t144 154t136.5 154.5t96 126.5t39 83.5q0 26 46 5q65 -28 126 -102q79 -96 79 -200q0 -27 -60 -150t-126 -245l236 39q40 5 61.5 10 t24.5 8.5t6 6t10 3.5q16 3 21.5 -6t5.5 -29q0 -27 -38 -48t-132 -46q-104 -26 -258 -63l-25 -49q-9 -19 -23.5 -53t-52 -132t-66 -189t-52 -205.5t-23.5 -199.5q0 -147 31.5 -271.5t79.5 -204.5t107 -137t112 -81.5t96 -24.5l51 -2q82 0 160 41.5t78 102.5q0 41 18.5 55 t36.5 -2t18 -49q0 -22 -9.5 -45t-34.5 -47.5t-61.5 -43.5t-97 -31.5t-135.5 -12.5q-110 0 -203.5 32.5t-159.5 86t-118.5 128.5t-84.5 155t-53.5 170t-29.5 169t-8 156q0 94 15 191t36 168t42.5 128.5t36.5 86.5l15 30l-47 -4q-56 -13 -172 -39.5t-172 -40.5 q-42 -45 -89 -91.5t-127 -119.5t-159.5 -137t-181 -132t-196.5 -116.5t-200.5 -79.5t-199.5 -31q-173 0 -302.5 86.5t-195 229t-65.5 317.5zM766 1051l168 26l92 13q31 67 112.5 210.5t147.5 253.5l66 111zM1264 2105q-10 87 53 156q38 45 93 72.5t106 27.5q28 0 40 -16 q17 -17 17 -35q0 -19 -11 -31t-28 -12q-38 0 -79 -20t-69 -52q-44 -50 -38 -110q4 -26 23 -38.5t42 -12.5q57 0 111 61q52 59 43 117q-3 23 8 37q13 10 27 10q18 0 30 -18q10 -17 13 -37q6 -40 -10 -85t-50 -83q-72 -82 -155 -82q-62 0 -109.5 43.5t-56.5 107.5z" />
<glyph unicode="&#xc6;" horiz-adv-x="2023" d="M-1153 770q0 139 58 272t155.5 240.5t226 198.5t269.5 152.5t286 95.5t275 34q90 0 164.5 -35.5t119 -86.5t75.5 -111t42.5 -106t11.5 -74q0 -36 -16 -43.5t-32 2.5l-15 10q-1 4 -4 11.5t-16 28t-31 39.5t-53 42.5t-77.5 40t-108 28t-142.5 11.5q-142 0 -286 -35.5 t-264 -94.5t-225.5 -137t-178 -161t-114.5 -167.5t-42 -156.5q0 -9 0.5 -23.5t8.5 -57t22 -81.5t45.5 -86t74 -81t112 -57.5t155.5 -23.5q111 0 247 44.5t266 116.5t225 134t181 127q-184 -36 -252 -45q-99 -13 -180.5 4.5t-132 52.5t-87 83.5t-52.5 90.5t-21 81 q-6 51 5.5 60t26.5 -7l15 -17q6 -42 119.5 -73t258.5 -37.5t286 8.5q70 8 181.5 22.5t125.5 16.5l14 12q14 14 39 38.5t96 96.5t136 139.5t144 154t136 154.5t96 126.5t39 83.5q0 26 46 5q65 -28 126 -102q80 -97 80 -200q0 -22 -83 -192.5t-160 -319.5q120 53 246 79.5 t210 26.5q-4 4 -11.5 12.5t-26.5 37t-33.5 60t-26.5 80.5t-12 101q0 80 50.5 157t132 134t190.5 92t221 35q86 0 154.5 -19.5t108 -47t65.5 -61t35 -58.5t9 -43q0 -35 -25 -38q-18 -2 -23 10q-1 3 -1 5q-3 5 -9 13.5t-31 30.5t-58 39t-93.5 30.5t-133.5 13.5 q-69 0 -130 -24.5t-102 -61.5t-71 -81t-44 -82.5t-14 -65.5q0 -81 22.5 -139t54.5 -84t63.5 -40.5t54 -22t22.5 -15.5v-6q0 -13 -1 -20t-11 -18.5t-29.5 -17.5t-59.5 -11t-97 -5q-167 0 -305.5 -46t-228 -124.5t-138.5 -181t-49 -216.5q0 -124 39.5 -228t118 -169t182.5 -65 q48 0 84 4.5t52.5 11t26.5 13.5t12 11l1 5q-8 8 -8 98q0 25 9 48t21.5 38t25 26.5t21.5 16.5l9 6q-9 -32 -5 -71t14 -72l11 -33l11 5.5t25.5 16.5t32 28.5t25 41.5t11.5 55t-9 47.5t-22 25.5t-26.5 9.5t-22.5 0.5l-9 -1q1 3 3 7t10 14.5t18 19t27 15t37 6.5q56 0 91.5 -39.5 t35.5 -122.5q0 -123 -183 -244q102 -159 249.5 -244t271.5 -59q36 7 60 23t30 29l6 12q-19 21 -7 54q9 24 23 18q12 -6 19 -40q15 -76 -41 -145t-185 -96q-95 -20 -196 32t-183 144.5t-147 214.5q-10 -5 -28 -11.5t-76 -18t-117 -11.5t-120 8.5t-127 29.5t-125 52t-113 80 t-93 110t-62.5 145.5t-23.5 182.5v2v29v6q6 94 39 197t62 159l30 56l-47 -4q-56 -13 -171.5 -39.5t-172.5 -40.5q-42 -45 -89 -91.5t-127 -119.5t-159.5 -137t-181 -132t-196.5 -116.5t-200.5 -79.5t-199.5 -31q-173 0 -302.5 86.5t-195 229t-65.5 317.5zM762 1049l168 26 l92 12q31 67 112.5 211t147.5 254l66 111z" />
<glyph unicode="&#xc7;" horiz-adv-x="1259" d="M-60 313q-15 103 3 232q29 184 129 377q74 139 94 170q35 61 86 131q118 162 242 286q143 153 276 240q292 203 524 203q179 0 256 -129q35 88 54 190q-48 74 -48 144q0 29 19 48t39 17h6q51 0 119.5 -78t87.5 -180q6 -41 0 -109q-8 -69 -35 -138.5t-74.5 -159.5 t-62.5 -123q-17 -40 -17 -81.5t8.5 -68.5t14 -50t-3.5 -33.5t-41 -10.5q-27 0 -61 51t-54 101l-20 51q-29 75 -29 145q0 21 8 49q-4 38 -36.5 62t-67.5 24q-134 0 -391 -166q-119 -82 -213 -166q-103 -88 -189 -198q-10 -15 -32.5 -43t-28.5 -37q-7 -16 -39.5 -64t-38.5 -57 q-98 -168 -163.5 -307t-80.5 -254l-6 -47q-25 -184 49.5 -274.5t212.5 -90.5q166 0 318 40.5t262.5 106t205.5 144t156.5 157t105.5 144t64 105.5l19 41q22 32 49 26q25 -5 20 -35q-3 -17 -18 -39q-4 -9 -11.5 -25.5t-35.5 -67.5t-61 -100.5t-89 -117.5t-118.5 -127 t-150.5 -120t-183.5 -105.5t-219 -75t-255.5 -35.5l-33 -55q58 12 82 12q60 0 105 -38.5t52 -96.5q12 -88 -57 -166q-46 -54 -117.5 -88.5t-136.5 -34.5t-110 32t-54 83q0 51 15 70q9 12 28 12h17l6 -37q3 -17 22.5 -29t34.5 -12q59 0 92 14q71 26 121.5 72.5t44.5 97.5 q-2 9 -41 9q-56 0 -123 -23q-30 -6 -39 -6h-6q-29 7 -47.5 29t-21.5 47q-2 17 49 110q-84 8 -156 36.5t-131.5 81.5t-97 129t-52.5 179z" />
<glyph unicode="&#xc8;" horiz-adv-x="1372" d="M0 459q0 111 43 210t114 171.5t164 132.5t191 99t196.5 66t178 38.5t139.5 11.5q-5 5 -13.5 14.5t-30.5 42t-39 68.5t-30.5 93t-13.5 116q0 121 96 232t253 178t327 67q98 0 177.5 -22t124.5 -53.5t75 -70t40.5 -67.5t10.5 -49q0 -39 -28 -42q-20 -3 -26 11q-1 2 -1 4 q-3 6 -10 16t-36 35.5t-67.5 45t-108 35.5t-153.5 16q-78 0 -147.5 -28.5t-116 -71t-80.5 -93t-50 -95t-16 -75.5q0 -68 13.5 -121.5t35.5 -85.5t48.5 -55.5t53 -35.5t48.5 -19.5t35.5 -13.5t13.5 -13v-6q0 -15 -1 -23t-12.5 -21t-34 -20t-68 -12.5t-111.5 -5.5 q-191 0 -349 -52.5t-260.5 -142t-158.5 -206t-56 -246.5q0 -142 45 -261t135 -193.5t210 -74.5q55 0 95.5 5t59.5 12.5t30.5 15t12.5 12.5l2 5q-10 10 -10 112q0 29 10 55t24.5 43.5t29 30.5t24.5 19l10 6q-10 -37 -4.5 -81.5t17.5 -81.5l12 -38q5 2 13 6t28.5 19t36 32.5 t28.5 47.5t13 63t-10.5 55.5t-25 30t-29.5 10.5t-25 2l-11 -2q1 3 3.5 7.5t11.5 16.5t20 21.5t30.5 17t41.5 7.5q63 0 104 -45.5t41 -138.5q0 -140 -209 -279q118 -182 286 -279t310 -69q42 9 69.5 27.5t34.5 32.5l7 14q-22 24 -10 59q8 27 23 23q17 -5 26 -46 q8 -41 -2.5 -81.5t-39.5 -78.5t-84.5 -68t-131.5 -46q-82 -17 -169 12t-164 94t-145 151.5t-122 188.5q-11 -5 -32.5 -13t-87.5 -21t-134 -13t-137 10t-144.5 34t-143.5 60t-129.5 92t-106 126.5t-71 167t-26.5 209.5zM1331 2400q0 34 63 78q65 45 107 41q25 -3 25 -29 q0 -47 66 -194q63 -138 68 -178q6 -43 -26 -43q-26 0 -100 63.5t-138.5 143.5t-64.5 118z" />
<glyph unicode="&#xc9;" horiz-adv-x="1372" d="M0 459q0 111 43 210t114 171.5t164 132.5t191 99t196.5 66t178 38.5t139.5 11.5q-5 5 -13.5 14.5t-30.5 42t-39 68.5t-30.5 93t-13.5 116q0 121 96 232t253 178t327 67q98 0 177.5 -22t124.5 -53.5t75 -70t40.5 -67.5t10.5 -49q0 -39 -28 -42q-20 -3 -26 11q-1 2 -1 4 q-3 6 -10 16t-36 35.5t-67.5 45t-108 35.5t-153.5 16q-78 0 -147.5 -28.5t-116 -71t-80.5 -93t-50 -95t-16 -75.5q0 -68 13.5 -121.5t35.5 -85.5t48.5 -55.5t53 -35.5t48.5 -19.5t35.5 -13.5t13.5 -13v-6q0 -15 -1 -23t-12.5 -21t-34 -20t-68 -12.5t-111.5 -5.5 q-191 0 -349 -52.5t-260.5 -142t-158.5 -206t-56 -246.5q0 -142 45 -261t135 -193.5t210 -74.5q55 0 95.5 5t59.5 12.5t30.5 15t12.5 12.5l2 5q-10 10 -10 112q0 29 10 55t24.5 43.5t29 30.5t24.5 19l10 6q-10 -37 -4.5 -81.5t17.5 -81.5l12 -38q5 2 13 6t28.5 19t36 32.5 t28.5 47.5t13 63t-10.5 55.5t-25 30t-29.5 10.5t-25 2l-11 -2q1 3 3.5 7.5t11.5 16.5t20 21.5t30.5 17t41.5 7.5q63 0 104 -45.5t41 -138.5q0 -140 -209 -279q118 -182 286 -279t310 -69q42 9 69.5 27.5t34.5 32.5l7 14q-22 24 -10 59q8 27 23 23q17 -5 26 -46 q8 -41 -2.5 -81.5t-39.5 -78.5t-84.5 -68t-131.5 -46q-82 -17 -169 12t-164 94t-145 151.5t-122 188.5q-11 -5 -32.5 -13t-87.5 -21t-134 -13t-137 10t-144.5 34t-143.5 60t-129.5 92t-106 126.5t-71 167t-26.5 209.5zM1509 2179q12 33 46 107q67 156 71 204q0 42 60 24 q59 -18 106 -64q28 -29 29 -50q0 -38 -64.5 -118t-138.5 -143.5t-100 -63.5q-48 0 -9 104z" />
<glyph unicode="&#xca;" horiz-adv-x="1372" d="M0 459q0 111 43 210t114 171.5t164 132.5t191 99t196.5 66t178 38.5t139.5 11.5q-5 5 -13.5 14.5t-30.5 42t-39 68.5t-30.5 93t-13.5 116q0 121 96 232t253 178t327 67q98 0 177.5 -22t124.5 -53.5t75 -70t40.5 -67.5t10.5 -49q0 -39 -28 -42q-20 -3 -26 11q-1 2 -1 4 q-3 6 -10 16t-36 35.5t-67.5 45t-108 35.5t-153.5 16q-78 0 -147.5 -28.5t-116 -71t-80.5 -93t-50 -95t-16 -75.5q0 -68 13.5 -121.5t35.5 -85.5t48.5 -55.5t53 -35.5t48.5 -19.5t35.5 -13.5t13.5 -13v-6q0 -15 -1 -23t-12.5 -21t-34 -20t-68 -12.5t-111.5 -5.5 q-191 0 -349 -52.5t-260.5 -142t-158.5 -206t-56 -246.5q0 -142 45 -261t135 -193.5t210 -74.5q55 0 95.5 5t59.5 12.5t30.5 15t12.5 12.5l2 5q-10 10 -10 112q0 29 10 55t24.5 43.5t29 30.5t24.5 19l10 6q-10 -37 -4.5 -81.5t17.5 -81.5l12 -38q5 2 13 6t28.5 19t36 32.5 t28.5 47.5t13 63t-10.5 55.5t-25 30t-29.5 10.5t-25 2l-11 -2q1 3 3.5 7.5t11.5 16.5t20 21.5t30.5 17t41.5 7.5q63 0 104 -45.5t41 -138.5q0 -140 -209 -279q118 -182 286 -279t310 -69q42 9 69.5 27.5t34.5 32.5l7 14q-22 24 -10 59q8 27 23 23q17 -5 26 -46 q8 -41 -2.5 -81.5t-39.5 -78.5t-84.5 -68t-131.5 -46q-82 -17 -169 12t-164 94t-145 151.5t-122 188.5q-11 -5 -32.5 -13t-87.5 -21t-134 -13t-137 10t-144.5 34t-143.5 60t-129.5 92t-106 126.5t-71 167t-26.5 209.5zM1413 2126q7 15 140.5 108.5t158.5 118.5q2 3 5.5 6.5 t13 9.5t18.5 5q9 -2 20 -23q1 -1 10 -18t22.5 -43.5t23.5 -44.5q84 -158 80 -170q-9 -9 -13 -7q-28 -1 -89 41.5t-109 92.5q-83 -38 -166 -65.5t-109 -20.5q-1 0 -3.5 4t-2.5 6z" />
<glyph unicode="&#xcb;" horiz-adv-x="1372" d="M0 459q0 111 43 210t114 171.5t164 132.5t191 99t196.5 66t178 38.5t139.5 11.5q-5 5 -13.5 14.5t-30.5 42t-39 68.5t-30.5 93t-13.5 116q0 121 96 232t253 178t327 67q98 0 177.5 -22t124.5 -53.5t75 -70t40.5 -67.5t10.5 -49q0 -39 -28 -42q-20 -3 -26 11q-1 2 -1 4 q-3 6 -10 16t-36 35.5t-67.5 45t-108 35.5t-153.5 16q-78 0 -147.5 -28.5t-116 -71t-80.5 -93t-50 -95t-16 -75.5q0 -68 13.5 -121.5t35.5 -85.5t48.5 -55.5t53 -35.5t48.5 -19.5t35.5 -13.5t13.5 -13v-6q0 -15 -1 -23t-12.5 -21t-34 -20t-68 -12.5t-111.5 -5.5 q-191 0 -349 -52.5t-260.5 -142t-158.5 -206t-56 -246.5q0 -142 45 -261t135 -193.5t210 -74.5q55 0 95.5 5t59.5 12.5t30.5 15t12.5 12.5l2 5q-10 10 -10 112q0 29 10 55t24.5 43.5t29 30.5t24.5 19l10 6q-10 -37 -4.5 -81.5t17.5 -81.5l12 -38q5 2 13 6t28.5 19t36 32.5 t28.5 47.5t13 63t-10.5 55.5t-25 30t-29.5 10.5t-25 2l-11 -2q1 3 3.5 7.5t11.5 16.5t20 21.5t30.5 17t41.5 7.5q63 0 104 -45.5t41 -138.5q0 -140 -209 -279q118 -182 286 -279t310 -69q42 9 69.5 27.5t34.5 32.5l7 14q-22 24 -10 59q8 27 23 23q17 -5 26 -46 q8 -41 -2.5 -81.5t-39.5 -78.5t-84.5 -68t-131.5 -46q-82 -17 -169 12t-164 94t-145 151.5t-122 188.5q-11 -5 -32.5 -13t-87.5 -21t-134 -13t-137 10t-144.5 34t-143.5 60t-129.5 92t-106 126.5t-71 167t-26.5 209.5zM1255 2200q0 56 38 85t89 29q56 0 96 -28.5t40 -85.5 q0 -33 -13 -57.5t-29 -36t-37.5 -18t-30.5 -7t-17 -0.5q-53 0 -94.5 32.5t-41.5 86.5zM1722 2200q0 56 38 85t89 29q56 0 96 -28.5t40 -85.5q0 -33 -13 -57.5t-29 -36t-37.5 -18t-30.5 -7t-17 -0.5q-53 0 -94.5 32.5t-41.5 86.5z" />
<glyph unicode="&#xcc;" horiz-adv-x="1081" d="M-511 63.5q-7 53.5 4.5 91.5t21.5 38q8 0 15.5 -34t15 -75t30 -75t57.5 -34q121 0 262.5 61.5t277 164.5t272.5 239t255.5 284t221 301t173 289t107 248t27.5 177q-21 149 -269 77q-215 -63 -512 -258q-236 -154 -346 -274q-53 -57 -53 -86q0 -13 5 -27t5 -22 q0 -28 -53 6q-63 42 -110 109q-31 43 -35 75q-3 25 36.5 83t108.5 132.5t171.5 154.5t216 146t252 109t269.5 43q116 0 214 -36t157 -86.5t102 -111t60.5 -103t21.5 -68.5q16 -114 -23 -255.5t-118.5 -285.5t-192.5 -295t-242 -286.5t-270 -256t-274.5 -208t-257 -138.5 t-215.5 -51q-139 0 -229.5 38t-121 92t-37.5 107.5zM1036 2367q0 34 63 78q65 46 107 42q25 -3 25 -29q0 -47 67 -195q62 -139 67 -179q6 -42 -26 -42q-26 0 -100 63.5t-138.5 143.5t-64.5 118z" />
<glyph unicode="&#xcd;" horiz-adv-x="1081" d="M-511 63.5q-7 53.5 4.5 91.5t21.5 38q8 0 15.5 -34t15 -75t30 -75t57.5 -34q121 0 262.5 61.5t277 164.5t272.5 239t255.5 284t221 301t173 289t107 248t27.5 177q-21 149 -269 77q-215 -63 -512 -258q-236 -154 -346 -274q-53 -57 -53 -86q0 -13 5 -27t5 -22 q0 -28 -53 6q-63 42 -110 109q-31 43 -35 75q-3 25 36.5 83t108.5 132.5t171.5 154.5t216 146t252 109t269.5 43q116 0 214 -36t157 -86.5t102 -111t60.5 -103t21.5 -68.5q16 -114 -23 -255.5t-118.5 -285.5t-192.5 -295t-242 -286.5t-270 -256t-274.5 -208t-257 -138.5 t-215.5 -51q-139 0 -229.5 38t-121 92t-37.5 107.5zM1128 2147q13 32 46 107q67 156 71 204q0 42 60 24q59 -18 106 -65q29 -29 29 -50q0 -38 -64.5 -118t-138.5 -143.5t-100 -63.5q-48 0 -9 105z" />
<glyph unicode="&#xce;" horiz-adv-x="1081" d="M-511 63q7 -54 37.5 -107.5t121 -91.5t229.5 -38q92 0 215.5 51t257 138.5t274.5 208t270 256t242 286.5t192.5 295t118.5 285.5t23 255.5q-4 26 -21.5 68.5t-60.5 103t-102 111t-157 86.5t-214 36q-131 0 -269.5 -43t-252 -109t-216 -146t-171.5 -154.5t-108.5 -132.5 t-36.5 -83q8 -59 89 -137q64 -62 96 -65q13 -1 13 12q0 8 -5 22t-5 27q0 54 169 193q202 166 453 300q320 171 465 145q82 -15 93 -97q9 -65 -27.5 -177t-107 -248t-173 -289t-221 -301t-255.5 -284t-272.5 -239t-277 -164.5t-262.5 -61.5q-35 0 -57.5 34t-30 75t-15 75 t-15.5 34q-10 0 -21.5 -38t-4.5 -92zM1026 2175q7 15 140.5 108.5t158.5 118.5q2 3 5.5 6.5t13 9.5t18.5 5q9 -2 20 -23q1 -1 10 -18t22.5 -43.5t23.5 -44.5q84 -158 80 -170q-8 -8 -13 -6q-28 -1 -89 41.5t-109 91.5q-83 -38 -166 -65.5t-109 -20.5q-1 0 -3.5 4t-2.5 6z " />
<glyph unicode="&#xcf;" horiz-adv-x="1081" d="M-511 63.5q-7 53.5 4.5 91.5t21.5 38q8 0 15.5 -34t15 -75t30 -75t57.5 -34q121 0 262.5 61.5t277 164.5t272.5 239t255.5 284t221 301t173 289t107 248t27.5 177q-21 149 -269 77q-215 -63 -512 -258q-236 -154 -346 -274q-53 -57 -53 -86q0 -13 5 -27t5 -22 q0 -28 -53 6q-63 42 -110 109q-31 43 -35 75q-3 25 36.5 83t108.5 132.5t171.5 154.5t216 146t252 109t269.5 43q116 0 214 -36t157 -86.5t102 -111t60.5 -103t21.5 -68.5q16 -114 -23 -255.5t-118.5 -285.5t-192.5 -295t-242 -286.5t-270 -256t-274.5 -208t-257 -138.5 t-215.5 -51q-139 0 -229.5 38t-121 92t-37.5 107.5zM891 2238q0 56 38 85.5t89 29.5q55 0 95 -29t40 -86q0 -33 -13 -57.5t-29 -35.5t-37.5 -17.5t-30.5 -7t-17 -0.5q-53 0 -94 32t-41 86zM1358 2238q0 56 38 85.5t89 29.5q55 0 95 -29t40 -86q0 -33 -13 -57.5t-29 -35.5 t-37.5 -17.5t-30.5 -7t-17 -0.5q-53 0 -94 32t-41 86z" />
<glyph unicode="&#xd1;" horiz-adv-x="1161" d="M-455 1114q0 90 49.5 188t134 187.5t202.5 171.5t249.5 141.5t280.5 95t291 35.5q63 0 115 -15.5t87 -40.5t62 -60t42 -70t24.5 -74.5t12.5 -69.5t3 -59q0 -73 -43 -172t-107.5 -194.5t-139.5 -195.5t-139.5 -178t-107.5 -138.5t-43 -79.5q9 9 24.5 24t64 62t96 92.5 t113.5 107t124 114.5t120.5 107.5t110.5 92.5t85.5 62t52.5 24q34 0 61 -28.5t42 -69.5t22.5 -79t7.5 -65q0 -34 -50 -109t-121.5 -169t-143 -197.5t-121.5 -219.5t-50 -210q0 -149 28 -290.5t80 -257t135.5 -185.5t184.5 -70q58 0 108.5 14.5t85 38t62.5 51.5t45 56 t28 51.5t15 38.5l5 14q0 3 0.5 8t4.5 17t11.5 21.5t24 17.5t38.5 8q29 0 39 -29t5 -57l-5 -29q-2 -6 -6.5 -17.5t-21.5 -43.5t-38 -61t-58.5 -65t-81 -61.5t-106.5 -43t-134 -17.5q-129 0 -250.5 72t-213 195.5t-147 301.5t-55.5 377q0 85 28 180t72.5 179t98.5 165.5 t108 145.5t98.5 113.5t72.5 76.5l28 27q-48 0 -173 -102t-272 -257.5t-286 -320.5t-231.5 -310.5t-92.5 -209.5q0 -25 -35 -27q-50 -3 -96 40q-57 55 -57 151q0 112 51.5 252t134.5 277t183 279.5t200 273t183 243t134.5 205t51.5 143.5q0 66 -56.5 112t-152.5 46 q-82 0 -203.5 -42.5t-251 -120.5t-242.5 -175.5t-186 -220.5t-73 -242q0 -82 61.5 -129t161.5 -47q130 0 170 82q18 49 1 87t-42.5 69t-24.5 32q10 20 27 23q11 2 24 -2.5t20 -9.5l7 -5q1 0 7 -5.5t15 -18.5t15 -29q31 -68 -6 -147q-33 -72 -112.5 -113t-176.5 -41 q-172 0 -274.5 87.5t-102.5 219.5zM1174 1700q0 12 20 12q6 0 14 -9t24.5 -18.5t43.5 -9.5q50 0 133 38t129 38q48 0 95 -23t79 -57q21 -21 21 -31v-4t-1.5 -4t-4.5 -4.5t-9 -1.5q-11 0 -40 22.5t-60 22.5q-48 0 -143 -44t-138 -44q-63 0 -110 36.5t-53 80.5z" />
<glyph unicode="&#xd2;" horiz-adv-x="1511" d="M2 614q0 151 52 316.5t133.5 302t175 249t183 175.5t150.5 63q44 0 78.5 -7.5t53 -18t30.5 -21.5t16 -19l3 -7q6 8 16.5 20.5t47 50t76 71.5t100.5 75.5t123 71.5t141.5 50.5t158.5 20.5q173 0 278 -113.5t105 -334.5q0 -107 -33 -236.5t-91.5 -263t-141.5 -270.5 t-180 -261t-210 -233t-228.5 -189t-238.5 -126t-237 -46q-79 0 -154 19t-150.5 68t-131 123.5t-90.5 195.5t-35 274zM293 526q0 -219 74.5 -347t207.5 -128q88 0 176.5 28.5t163.5 76.5t146.5 110t129.5 131t109.5 138t89 131t65 110t41.5 76l13 29q-113 -35 -215 -35 q-85 0 -157 29.5t-118.5 76.5t-83.5 104t-56.5 114t-32 104t-16.5 76l-3 30q-11 -9 -30.5 -24.5t-75 -67t-105.5 -105.5t-112 -134.5t-106 -159.5t-74.5 -175.5t-30.5 -187.5zM1051 1298q0 -145 73.5 -245.5t190.5 -100.5q70 0 140 19.5t105 38.5l35 20l42 102 q118 307 69 454q-37 108 -166 108q-91 0 -172.5 -28.5t-138 -72.5t-98 -98t-61 -105t-19.5 -92zM1331 2400q0 34 63 78q65 45 107 41q25 -3 25 -29q0 -47 66 -194q63 -138 68 -178q6 -43 -26 -43q-26 0 -100 63.5t-138.5 143.5t-64.5 118z" />
<glyph unicode="&#xd3;" horiz-adv-x="1511" d="M2 614q0 151 52 316.5t133.5 302t175 249t183 175.5t150.5 63q44 0 78.5 -7.5t53 -18t30.5 -21.5t16 -19l3 -7q6 8 16.5 20.5t47 50t76 71.5t100.5 75.5t123 71.5t141.5 50.5t158.5 20.5q173 0 278 -113.5t105 -334.5q0 -107 -33 -236.5t-91.5 -263t-141.5 -270.5 t-180 -261t-210 -233t-228.5 -189t-238.5 -126t-237 -46q-79 0 -154 19t-150.5 68t-131 123.5t-90.5 195.5t-35 274zM293 526q0 -219 74.5 -347t207.5 -128q88 0 176.5 28.5t163.5 76.5t146.5 110t129.5 131t109.5 138t89 131t65 110t41.5 76l13 29q-113 -35 -215 -35 q-85 0 -157 29.5t-118.5 76.5t-83.5 104t-56.5 114t-32 104t-16.5 76l-3 30q-11 -9 -30.5 -24.5t-75 -67t-105.5 -105.5t-112 -134.5t-106 -159.5t-74.5 -175.5t-30.5 -187.5zM1051 1298q0 -145 73.5 -245.5t190.5 -100.5q70 0 140 19.5t105 38.5l35 20l42 102 q118 307 69 454q-37 108 -166 108q-91 0 -172.5 -28.5t-138 -72.5t-98 -98t-61 -105t-19.5 -92zM1566 2179q12 33 46 107q67 156 71 204q0 42 60 24q59 -18 106 -64q28 -29 29 -50q0 -38 -64.5 -118t-138.5 -143.5t-100 -63.5q-48 0 -9 104z" />
<glyph unicode="&#xd4;" horiz-adv-x="1511" d="M2 614q0 151 52 316.5t133.5 302t175 249t183 175.5t150.5 63q44 0 78.5 -7.5t53 -18t30.5 -21.5t16 -19l3 -7q6 8 16.5 20.5t47 50t76 71.5t100.5 75.5t123 71.5t141.5 50.5t158.5 20.5q173 0 278 -113.5t105 -334.5q0 -107 -33 -236.5t-91.5 -263t-141.5 -270.5 t-180 -261t-210 -233t-228.5 -189t-238.5 -126t-237 -46q-79 0 -154 19t-150.5 68t-131 123.5t-90.5 195.5t-35 274zM293 526q0 -219 74.5 -347t207.5 -128q88 0 176.5 28.5t163.5 76.5t146.5 110t129.5 131t109.5 138t89 131t65 110t41.5 76l13 29q-113 -35 -215 -35 q-85 0 -157 29.5t-118.5 76.5t-83.5 104t-56.5 114t-32 104t-16.5 76l-3 30q-11 -9 -30.5 -24.5t-75 -67t-105.5 -105.5t-112 -134.5t-106 -159.5t-74.5 -175.5t-30.5 -187.5zM1051 1298q0 -145 73.5 -245.5t190.5 -100.5q70 0 140 19.5t105 38.5l35 20l42 102 q118 307 69 454q-37 108 -166 108q-91 0 -172.5 -28.5t-138 -72.5t-98 -98t-61 -105t-19.5 -92zM1321 2177q7 15 140.5 108.5t158.5 118.5q2 3 5.5 6.5t13 9.5t18.5 5q9 -2 20 -23q1 -1 10 -18t22.5 -43.5t23.5 -44.5q83 -156 79 -170q-8 -8 -12 -6q-28 -1 -89 41.5 t-109 91.5q-83 -38 -166 -65.5t-109 -20.5q-1 0 -3.5 4t-2.5 6z" />
<glyph unicode="&#xd5;" horiz-adv-x="1511" d="M2 614q0 151 52 316.5t133.5 302t175 249t183 175.5t150.5 63q44 0 78.5 -7.5t53 -18t30.5 -21.5t16 -19l3 -7q6 8 16.5 20.5t47 50t76 71.5t100.5 75.5t123 71.5t141.5 50.5t158.5 20.5q173 0 278 -113.5t105 -334.5q0 -107 -33 -236.5t-91.5 -263t-141.5 -270.5 t-180 -261t-210 -233t-228.5 -189t-238.5 -126t-237 -46q-79 0 -154 19t-150.5 68t-131 123.5t-90.5 195.5t-35 274zM293 526q0 -219 74.5 -347t207.5 -128q88 0 176.5 28.5t163.5 76.5t146.5 110t129.5 131t109.5 138t89 131t65 110t41.5 76l13 29q-113 -35 -215 -35 q-85 0 -157 29.5t-118.5 76.5t-83.5 104t-56.5 114t-32 104t-16.5 76l-3 30q-11 -9 -30.5 -24.5t-75 -67t-105.5 -105.5t-112 -134.5t-106 -159.5t-74.5 -175.5t-30.5 -187.5zM1051 1298q0 -145 73.5 -245.5t190.5 -100.5q70 0 140 19.5t105 38.5l35 20l42 102 q118 307 69 454q-37 108 -166 108q-91 0 -172.5 -28.5t-138 -72.5t-98 -98t-61 -105t-19.5 -92zM1323 2236q0 13 20 13q6 0 12 -6l12.5 -12.5t21.5 -12.5t36 -6q49 0 133 38t130 38q48 0 95 -23t79 -57q20 -20 20 -31q0 -14 -14 -14q-11 0 -40.5 22.5t-60.5 22.5 q-48 0 -142.5 -44t-137.5 -44q-63 0 -110.5 36t-53.5 80z" />
<glyph unicode="&#xd6;" horiz-adv-x="1511" d="M2 614q0 151 52 316.5t133.5 302t175 249t183 175.5t150.5 63q44 0 78.5 -7.5t53 -18t30.5 -21.5t16 -19l3 -7q6 8 16.5 20.5t47 50t76 71.5t100.5 75.5t123 71.5t141.5 50.5t158.5 20.5q173 0 278 -113.5t105 -334.5q0 -107 -33 -236.5t-91.5 -263t-141.5 -270.5 t-180 -261t-210 -233t-228.5 -189t-238.5 -126t-237 -46q-79 0 -154 19t-150.5 68t-131 123.5t-90.5 195.5t-35 274zM293 526q0 -219 74.5 -347t207.5 -128q88 0 176.5 28.5t163.5 76.5t146.5 110t129.5 131t109.5 138t89 131t65 110t41.5 76l13 29q-113 -35 -215 -35 q-85 0 -157 29.5t-118.5 76.5t-83.5 104t-56.5 114t-32 104t-16.5 76l-3 30q-11 -9 -30.5 -24.5t-75 -67t-105.5 -105.5t-112 -134.5t-106 -159.5t-74.5 -175.5t-30.5 -187.5zM1051 1298q0 -145 73.5 -245.5t190.5 -100.5q70 0 140 19.5t105 38.5l35 20l42 102 q118 307 69 454q-37 108 -166 108q-91 0 -172.5 -28.5t-138 -72.5t-98 -98t-61 -105t-19.5 -92zM1174 2238q0 56 37.5 85.5t88.5 29.5q56 0 96 -29t40 -86q0 -33 -13 -57.5t-29 -35.5t-37.5 -17.5t-30.5 -7t-17 -0.5q-53 0 -94 32t-41 86zM1640 2238q0 56 38 85.5t89 29.5 q56 0 96 -29t40 -86q0 -33 -13 -57.5t-29 -35.5t-37.5 -17.5t-30.5 -7t-17 -0.5q-53 0 -94.5 32t-41.5 86z" />
<glyph unicode="&#xd9;" horiz-adv-x="1325" d="M-614 1008q-10 109 31.5 227.5t121 227t194.5 207.5t247 171t285.5 115t303.5 43q78 0 140 -27t97.5 -65.5t60 -90.5t33.5 -91t13 -78q7 -78 -60.5 -246t-164.5 -349.5t-192 -352.5t-147.5 -281.5t-26.5 -110.5q25 0 228 180.5t393 360.5l190 180q196 314 241 430 q4 11 9 43t15 45t36 13q53 0 103.5 -74t41.5 -197q-5 -61 -111 -235q-56 -100 -178 -309q-226 -387 -273 -495q-41 -93 -13 -93q60 0 171.5 85t231.5 217.5t209 266.5q20 29 46 23q24 -6 16 -37q-3 -13 -13 -29q-20 -30 -67.5 -96t-131 -168.5t-165.5 -190.5t-169.5 -152.5 t-144.5 -64.5l4 2q-39 3 -116.5 54.5t-77.5 113.5q0 82 18 173.5t43.5 163t51 131.5t43.5 93l18 33q-15 -24 -80.5 -105t-164 -192.5t-200 -215.5t-198 -176.5t-148.5 -72.5q-44 0 -77 19t-51.5 47.5t-30.5 67.5t-15.5 73.5t-3.5 71.5q0 49 118 274.5t260 472.5t260 474.5 t118 279.5q0 57 -57.5 99t-145.5 42q-72 0 -171.5 -39t-205.5 -105.5t-208.5 -162.5t-181.5 -202t-122.5 -233t-32.5 -247q5 -62 24 -107.5t42 -69t53 -37.5t50 -17.5t40 -3.5q44 0 74.5 10.5t44 26.5t23 34.5t13.5 34.5t13 26.5t25 10.5q27 0 36 -34q13 -49 -28 -97 q-67 -80 -233 -80q-86 0 -157.5 24.5t-118 63t-80 88t-49 97.5t-19.5 94zM1059 2073q0 34 63 78q66 46 107 41q23 -5 24 -29q0 -47 67 -195q63 -139 68 -179q6 -42 -26 -42q-26 0 -100 63.5t-138.5 144t-64.5 118.5z" />
<glyph unicode="&#xda;" horiz-adv-x="1325" d="M-614 1008q-10 109 31.5 227.5t121 227t194.5 207.5t247 171t285.5 115t303.5 43q78 0 140 -27t97.5 -65.5t60 -90.5t33.5 -91t13 -78q7 -78 -60.5 -246t-164.5 -349.5t-192 -352.5t-147.5 -281.5t-26.5 -110.5q25 0 228 180.5t393 360.5l190 180q196 314 241 430 q4 11 9 43t15 45t36 13q53 0 103.5 -74t41.5 -197q-5 -61 -111 -235q-56 -100 -178 -309q-226 -387 -273 -495q-41 -93 -13 -93q60 0 171.5 85t231.5 217.5t209 266.5q20 29 46 23q24 -6 16 -37q-3 -13 -13 -29q-20 -30 -67.5 -96t-131 -168.5t-165.5 -190.5t-169.5 -152.5 t-144.5 -64.5l4 2q-39 3 -116.5 54.5t-77.5 113.5q0 82 18 173.5t43.5 163t51 131.5t43.5 93l18 33q-15 -24 -80.5 -105t-164 -192.5t-200 -215.5t-198 -176.5t-148.5 -72.5q-44 0 -77 19t-51.5 47.5t-30.5 67.5t-15.5 73.5t-3.5 71.5q0 49 118 274.5t260 472.5t260 474.5 t118 279.5q0 57 -57.5 99t-145.5 42q-72 0 -171.5 -39t-205.5 -105.5t-208.5 -162.5t-181.5 -202t-122.5 -233t-32.5 -247q5 -62 24 -107.5t42 -69t53 -37.5t50 -17.5t40 -3.5q44 0 74.5 10.5t44 26.5t23 34.5t13.5 34.5t13 26.5t25 10.5q27 0 36 -34q13 -49 -28 -97 q-67 -80 -233 -80q-86 0 -157.5 24.5t-118 63t-80 88t-49 97.5t-19.5 94zM1151 1852q12 32 45 106q68 157 72 205q0 42 60 24q59 -18 106 -65q27 -28 28 -49q0 -38 -64.5 -118.5t-138.5 -144t-100 -63.5q-48 0 -8 105z" />
<glyph unicode="&#xdb;" horiz-adv-x="1325" d="M-614 1008q-10 109 31.5 227.5t121 227t194.5 207.5t247 171t285.5 115t303.5 43q78 0 140 -27t97.5 -65.5t60 -90.5t33.5 -91t13 -78q7 -78 -60.5 -246t-164.5 -349.5t-192 -352.5t-147.5 -281.5t-26.5 -110.5q25 0 228 180.5t393 360.5l190 180q196 314 241 430 q4 11 9 43t15 45t36 13q53 0 103.5 -74t41.5 -197q-5 -61 -111 -235q-56 -100 -178 -309q-226 -387 -273 -495q-41 -93 -13 -93q60 0 171.5 85t231.5 217.5t209 266.5q20 29 46 23q24 -6 16 -37q-3 -13 -13 -29q-20 -30 -67.5 -96t-131 -168.5t-165.5 -190.5t-169.5 -152.5 t-144.5 -64.5l4 2q-39 3 -116.5 54.5t-77.5 113.5q0 82 18 173.5t43.5 163t51 131.5t43.5 93l18 33q-15 -24 -80.5 -105t-164 -192.5t-200 -215.5t-198 -176.5t-148.5 -72.5q-44 0 -77 19t-51.5 47.5t-30.5 67.5t-15.5 73.5t-3.5 71.5q0 49 118 274.5t260 472.5t260 474.5 t118 279.5q0 57 -57.5 99t-145.5 42q-72 0 -171.5 -39t-205.5 -105.5t-208.5 -162.5t-181.5 -202t-122.5 -233t-32.5 -247q5 -62 24 -107.5t42 -69t53 -37.5t50 -17.5t40 -3.5q44 0 74.5 10.5t44 26.5t23 34.5t13.5 34.5t13 26.5t25 10.5q27 0 36 -34q13 -49 -28 -97 q-67 -80 -233 -80q-86 0 -157.5 24.5t-118 63t-80 88t-49 97.5t-19.5 94zM1049 1790q7 15 140.5 108.5t158.5 118.5q2 3 5 6.5t12.5 9.5t18.5 5q11 -2 21 -23q1 -1 9.5 -18t22 -43.5t23.5 -44.5q84 -158 80 -170q-7 -7 -12 -6q-28 -1 -90 41.5t-109 91.5 q-83 -38 -165.5 -65.5t-108.5 -20.5q-1 0 -3.5 4t-2.5 6z" />
<glyph unicode="&#xdc;" horiz-adv-x="1325" d="M-614 1008q-10 109 31.5 227.5t121 227t194.5 207.5t247 171t285.5 115t303.5 43q78 0 140 -27t97.5 -65.5t60 -90.5t33.5 -91t13 -78q7 -78 -60.5 -246t-164.5 -349.5t-192 -352.5t-147.5 -281.5t-26.5 -110.5q25 0 228 180.5t393 360.5l190 180q196 314 241 430 q4 11 9 43t15 45t36 13q53 0 103.5 -74t41.5 -197q-5 -61 -111 -235q-56 -100 -178 -309q-226 -387 -273 -495q-41 -93 -13 -93q60 0 171.5 85t231.5 217.5t209 266.5q20 29 46 23q24 -6 16 -37q-3 -13 -13 -29q-20 -30 -67.5 -96t-131 -168.5t-165.5 -190.5t-169.5 -152.5 t-144.5 -64.5l4 2q-39 3 -116.5 54.5t-77.5 113.5q0 82 18 173.5t43.5 163t51 131.5t43.5 93l18 33q-15 -24 -80.5 -105t-164 -192.5t-200 -215.5t-198 -176.5t-148.5 -72.5q-44 0 -77 19t-51.5 47.5t-30.5 67.5t-15.5 73.5t-3.5 71.5q0 49 118 274.5t260 472.5t260 474.5 t118 279.5q0 57 -57.5 99t-145.5 42q-72 0 -171.5 -39t-205.5 -105.5t-208.5 -162.5t-181.5 -202t-122.5 -233t-32.5 -247q5 -62 24 -107.5t42 -69t53 -37.5t50 -17.5t40 -3.5q44 0 74.5 10.5t44 26.5t23 34.5t13.5 34.5t13 26.5t25 10.5q27 0 36 -34q13 -49 -28 -97 q-67 -80 -233 -80q-86 0 -157.5 24.5t-118 63t-80 88t-49 97.5t-19.5 94zM1008 1841q0 -54 41 -86.5t94 -32.5q8 0 17 0.5t30.5 7t37.5 18t29 36t13 57.5q0 57 -40 86t-95 29q-51 0 -89 -29.5t-38 -85.5zM1475 1841q0 -54 41 -86.5t94 -32.5q8 0 17 0.5t30.5 7t37.5 18 t29 36t13 57.5q0 57 -40 86t-95 29q-51 0 -89 -29.5t-38 -85.5z" />
<glyph unicode="&#xdd;" horiz-adv-x="1280" d="M-739 965q-11 118 33.5 243.5t130 238.5t209.5 215t266.5 176t307.5 117.5t327 43.5q85 0 151 -25.5t104.5 -61.5t64.5 -86t36 -89t14 -80q7 -85 -60.5 -261t-166 -365.5t-196 -367.5t-154.5 -292.5t-37 -114.5q35 0 250.5 165.5t413.5 330.5l198 166l76 141 q190 351 190 450q0 26 37 20q54 -7 106 -63q72 -78 72 -194q0 -54 -78 -207q-630 -1215 -788 -1505q-46 -97 -96 -181q-283 -479 -568 -559q-78 -22 -161 24t-115 155q-13 45 61 145t188 211t230 216t199 173l82 68q81 116 206.5 355t210.5 420l85 181q-23 -35 -131.5 -152 t-249 -256t-285.5 -246.5t-217 -107.5q-50 0 -88.5 21t-60 52.5t-35 75.5t-17.5 82.5t-4 81.5q0 58 76 212t184 340.5t216.5 373t184.5 344t76 221.5q0 63 -62 107.5t-157 44.5q-58 0 -134 -23.5t-159 -66t-170 -104.5t-167.5 -134.5t-150.5 -160.5t-119.5 -179.5 t-74.5 -194t-16 -200.5q5 -66 25 -115.5t44.5 -75t56.5 -41t54 -19t43 -3.5q56 0 91.5 16t49 39t21 46t17.5 39t30 16q28 0 37 -35q14 -51 -27 -103q-72 -90 -256 -90q-92 0 -169 26.5t-127 67.5t-85.5 94.5t-52 104t-20.5 99.5zM-104 -997q9 -32 37 -44t61 -1 q67 19 146 99.5t144.5 182t122 200t87.5 165.5l32 67l-193 -176q-456 -428 -437 -493zM1179 1800q12 33 46 107q67 156 71 204q0 42 60 24q59 -18 106 -64q29 -29 29 -50q0 -38 -64.5 -118t-138.5 -143.5t-100 -63.5q-48 0 -9 104z" />
<glyph unicode="&#xe0;" d="M0 240q0 86 82 222t195 258.5t240.5 212t209.5 89.5q71 0 128 -88q41 -64 41 -109q-1 -20 -13 -20q-114 0 -314 -190q-159 -150 -271 -317q-100 -149 -71 -182q6 -7 19 -7q23 0 139.5 118.5t219 244t93.5 142.5q-9 14 13 14q37 1 78 -34q54 -47 55 -123q0 -78 -83 -230 q-53 -95 -57 -114q-4 -21 13 -21q31 0 128.5 95t216.5 239.5t206 276.5q20 29 46 23q24 -5 16 -37q-3 -13 -13 -29q-25 -37 -68.5 -97t-129 -167t-163.5 -193t-162.5 -151.5t-136.5 -65.5q-58 0 -111.5 66.5t-53.5 111.5q0 22 8.5 53t17.5 51l8 21q-10 -12 -28 -32.5 t-66.5 -73t-89.5 -92.5t-84.5 -72.5t-64.5 -32.5q-63 0 -128 69.5t-65 170.5zM719 1417q0 34 63 78q66 46 107 41q24 -3 24 -29q0 -47 67 -194q62 -138 68 -178q6 -43 -26 -43q-26 0 -100 63.5t-138.5 143.5t-64.5 118z" />
<glyph unicode="&#xe1;" d="M0 240q0 86 82 222t195 258.5t240.5 212t209.5 89.5q71 0 128 -88q41 -64 41 -109q-1 -20 -13 -20q-114 0 -314 -190q-159 -150 -271 -317q-100 -149 -71 -182q6 -7 19 -7q23 0 139.5 118.5t219 244t93.5 142.5q-9 14 13 14q37 1 78 -34q54 -47 55 -123q0 -78 -83 -230 q-53 -95 -57 -114q-4 -21 13 -21q31 0 128.5 95t216.5 239.5t206 276.5q20 29 46 23q24 -5 16 -37q-3 -13 -13 -29q-25 -37 -68.5 -97t-129 -167t-163.5 -193t-162.5 -151.5t-136.5 -65.5q-58 0 -111.5 66.5t-53.5 111.5q0 22 8.5 53t17.5 51l8 21q-10 -12 -28 -32.5 t-66.5 -73t-89.5 -92.5t-84.5 -72.5t-64.5 -32.5q-63 0 -128 69.5t-65 170.5zM811 1197q12 32 45 105q68 157 72 205q0 42 60 24q59 -18 106 -65q28 -28 28 -49q0 -38 -64.5 -118t-138.5 -143.5t-100 -63.5q-48 0 -8 105z" />
<glyph unicode="&#xe2;" d="M0 240q0 86 82 222t195 258.5t240.5 212t209.5 89.5q71 0 128 -88q41 -64 41 -109q-1 -20 -13 -20q-114 0 -314 -190q-159 -150 -271 -317q-100 -149 -71 -182q6 -7 19 -7q23 0 139.5 118.5t219 244t93.5 142.5q-9 14 13 14q37 1 78 -34q54 -47 55 -123q0 -78 -83 -230 q-53 -95 -57 -114q-4 -21 13 -21q31 0 128.5 95t216.5 239.5t206 276.5q20 29 46 23q24 -5 16 -37q-3 -13 -13 -29q-25 -37 -68.5 -97t-129 -167t-163.5 -193t-162.5 -151.5t-136.5 -65.5q-58 0 -111.5 66.5t-53.5 111.5q0 22 8.5 53t17.5 51l8 21q-10 -12 -28 -32.5 t-66.5 -73t-89.5 -92.5t-84.5 -72.5t-64.5 -32.5q-63 0 -128 69.5t-65 170.5zM569 1157q7 15 140.5 108.5t158.5 118.5q2 3 5.5 6.5t13 9.5t18.5 5q11 -2 21 -23q1 -1 9.5 -18t22 -43.5t23.5 -44.5q84 -158 80 -170q-7 -8 -12 -6q-28 -1 -90 41.5t-109 91.5 q-83 -38 -166 -65.5t-109 -20.5q-1 0 -3.5 4t-2.5 6z" />
<glyph unicode="&#xe3;" d="M0 240q0 86 82 222t195 258.5t240.5 212t209.5 89.5q71 0 128 -88q41 -64 41 -109q-1 -20 -13 -20q-114 0 -314 -190q-159 -150 -271 -317q-100 -149 -71 -182q6 -7 19 -7q23 0 139.5 118.5t219 244t93.5 142.5q-9 14 13 14q37 1 78 -34q54 -47 55 -123q0 -78 -83 -230 q-53 -95 -57 -114q-4 -21 13 -21q31 0 128.5 95t216.5 239.5t206 276.5q20 29 46 23q24 -5 16 -37q-3 -13 -13 -29q-25 -37 -68.5 -97t-129 -167t-163.5 -193t-162.5 -151.5t-136.5 -65.5q-58 0 -111.5 66.5t-53.5 111.5q0 22 8.5 53t17.5 51l8 21q-10 -12 -28 -32.5 t-66.5 -73t-89.5 -92.5t-84.5 -72.5t-64.5 -32.5q-63 0 -128 69.5t-65 170.5zM412 1292q0 17 26 17q8 0 16.5 -7.5t16.5 -17t27.5 -17t46.5 -7.5q66 0 175 50t171 50t124.5 -31t104.5 -74q27 -27 27 -41q0 -5 -0.5 -7.5t-5 -6.5t-13.5 -4q-13 0 -27 9t-26 20.5t-33.5 20.5 t-46.5 9q-62 0 -186 -58t-182 -58q-84 0 -145.5 47.5t-69.5 105.5z" />
<glyph unicode="&#xe4;" d="M0 240q0 86 82 222t195 258.5t240.5 212t209.5 89.5q71 0 128 -88q41 -64 41 -109q-1 -20 -13 -20q-114 0 -314 -190q-159 -150 -271 -317q-100 -149 -71 -182q6 -7 19 -7q23 0 139.5 118.5t219 244t93.5 142.5q-9 14 13 14q37 1 78 -34q54 -47 55 -123q0 -78 -83 -230 q-53 -95 -57 -114q-4 -21 13 -21q31 0 128.5 95t216.5 239.5t206 276.5q20 29 46 23q24 -5 16 -37q-3 -13 -13 -29q-25 -37 -68.5 -97t-129 -167t-163.5 -193t-162.5 -151.5t-136.5 -65.5q-58 0 -111.5 66.5t-53.5 111.5q0 22 8.5 53t17.5 51l8 21q-10 -12 -28 -32.5 t-66.5 -73t-89.5 -92.5t-84.5 -72.5t-64.5 -32.5q-63 0 -128 69.5t-65 170.5zM350 1278q0 56 38 85.5t89 29.5q55 0 95 -29t40 -86q0 -33 -13 -57.5t-29 -36t-37.5 -18t-30.5 -7t-17 -0.5q-53 0 -94 32.5t-41 86.5zM817 1278q0 56 38 85.5t89 29.5q55 0 95 -29t40 -86 q0 -33 -13 -57.5t-29 -36t-37.5 -18t-30.5 -7t-17 -0.5q-53 0 -94 32.5t-41 86.5z" />
<glyph unicode="&#xe5;" d="M0 240q0 86 82 222t195 258.5t240.5 212t209.5 89.5q71 0 128 -88q41 -64 41 -109q-1 -20 -13 -20q-114 0 -314 -190q-159 -150 -271 -317q-100 -149 -71 -182q6 -7 19 -7q23 0 139.5 118.5t219 244t93.5 142.5q-9 14 13 14q37 1 78 -34q54 -47 55 -123q0 -78 -83 -230 q-53 -95 -57 -114q-4 -21 13 -21q31 0 128.5 95t216.5 239.5t206 276.5q20 29 46 23q24 -5 16 -37q-3 -13 -13 -29q-25 -37 -68.5 -97t-129 -167t-163.5 -193t-162.5 -151.5t-136.5 -65.5q-58 0 -111.5 66.5t-53.5 111.5q0 22 8.5 53t17.5 51l8 21q-10 -12 -28 -32.5 t-66.5 -73t-89.5 -92.5t-84.5 -72.5t-64.5 -32.5q-63 0 -128 69.5t-65 170.5zM569 1266q-9 85 54 155q39 45 93.5 73t104.5 28q28 0 41 -17q17 -17 17 -35q0 -19 -11 -31t-28 -12q-39 0 -79.5 -19.5t-68.5 -51.5q-45 -51 -39 -111q4 -26 23.5 -38.5t42.5 -12.5q56 0 110 61 q52 59 43 117q-3 22 9 37q13 10 26 10q19 0 31 -18q9 -15 12 -37q13 -86 -59 -168t-156 -82q-61 0 -109 43.5t-57 108.5z" />
<glyph unicode="&#xe6;" horiz-adv-x="1228" d="M0 240q0 87 67 221t162 255.5t208 209.5t196 88q71 0 127 -85q41 -61 40 -103q-1 -19 -14 -19q-111 0 -281 -185q-139 -150 -230 -320q-81 -152 -50 -188q7 -8 21 -8q29 0 196 187.5t244 292.5q3 5 10.5 14t10.5 14q0 5 4 9q111 157 263.5 274t225.5 117q18 0 35 -4 t37.5 -18.5t35.5 -37.5t25 -65t10 -98q0 -69 -70 -164.5t-161.5 -174.5t-181 -135.5t-129.5 -56.5l-7.5 -15t-11 -32.5t-6.5 -41.5t14 -33t44 -15q66 0 194.5 90.5t265.5 229.5t226 272q20 29 45 23q24 -6 17 -36q-4 -14 -15 -30q-16 -24 -68.5 -88.5t-139.5 -158.5 t-179 -181t-194 -156t-177 -84q-12 -4 -29 -4h-6h-4h-10q-71 9 -115 53q-43 43 -59 107q-12 37 -18 80t-6 68l-1 24q-12 -13 -32 -35.5t-74.5 -80t-100 -101t-93 -79.5t-68.5 -36q-63 0 -128 69.5t-65 170.5zM836 338q176 103 289 257q73 100 72 151q-1 22 -19 22 q-30 0 -115.5 -107.5t-156.5 -214.5z" />
<glyph unicode="&#xe7;" horiz-adv-x="753" d="M102 336q0 93 92 259t215 298.5t201 132.5q28 0 48.5 -19t27.5 -38l6 -19q0 6 44 52t44 69q0 18 19 8q33 -17 55 -78q18 -50 18 -114t-14.5 -107t-35 -66.5t-41.5 -46t-35.5 -61.5t-14.5 -96q-41 0 -70 23t-41 56t-18.5 66.5t-5.5 56.5v23q-11 -10 -29 -28t-64.5 -74.5 t-82.5 -113.5t-65 -137.5t-29 -154.5q0 -118 110 -118q31 0 141.5 95t247.5 244.5t222 278.5q20 29 46 23q24 -7 16 -39q-4 -14 -13 -29q-18 -26 -74 -96t-145.5 -171.5t-179.5 -192.5t-179.5 -155.5t-142.5 -64.5q-2 0 -7 1t-8 1l-47 -78q49 11 74 11q56 0 96 -33.5 t47 -87.5q9 -81 -51 -150q-41 -48 -106 -79t-123 -31t-99 29t-49 75q0 44 13 59q10 13 26 13h17l4 -33q3 -14 20 -24.5t29 -10.5q55 0 84 12q64 22 109.5 64.5t39.5 87.5q-2 8 -34 8q-46 0 -113 -20q-24 -6 -35 -6h-4q-28 6 -45 25.5t-20 43.5q-1 14 21.5 57t49.5 84 q-162 61 -162 316z" />
<glyph unicode="&#xe8;" horiz-adv-x="729" d="M72 254q0 105 51.5 221t129.5 210.5t164.5 172t162 121t116.5 43.5q23 0 45.5 -9.5t46 -32.5t38 -71.5t14.5 -117.5t-69.5 -164.5t-161 -174.5t-181 -135.5t-129.5 -56.5l-7.5 -15t-11.5 -32.5t-7 -41.5t13.5 -33t43.5 -15q67 0 196 90.5t265.5 229.5t224.5 272 q20 29 46 23q24 -6 16 -37q-3 -13 -13 -29q-16 -26 -74 -96t-151 -169.5t-191 -189.5t-203 -153.5t-178 -63.5q-4 0 -11 0.5t-27.5 6t-39 14t-41 28t-39 45t-27.5 67.5t-11 93zM334 338q176 103 288 258q73 100 72 150q-1 22 -18 22q-31 0 -116.5 -107.5t-155.5 -214.5z M512 1417q0 34 63 78q65 45 107 41q25 -3 25 -29q0 -47 66 -194q63 -138 68 -178q6 -43 -26 -43q-26 0 -100 63.5t-138.5 143.5t-64.5 118z" />
<glyph unicode="&#xe9;" horiz-adv-x="729" d="M72 254q0 105 51.5 221t129.5 210.5t164.5 172t162 121t116.5 43.5q23 0 45.5 -9.5t46 -32.5t38 -71.5t14.5 -117.5t-69.5 -164.5t-161 -174.5t-181 -135.5t-129.5 -56.5l-7.5 -15t-11.5 -32.5t-7 -41.5t13.5 -33t43.5 -15q67 0 196 90.5t265.5 229.5t224.5 272 q20 29 46 23q24 -6 16 -37q-3 -13 -13 -29q-16 -26 -74 -96t-151 -169.5t-191 -189.5t-203 -153.5t-178 -63.5q-4 0 -11 0.5t-27.5 6t-39 14t-41 28t-39 45t-27.5 67.5t-11 93zM334 338q176 103 288 258q73 100 72 150q-1 22 -18 22q-31 0 -116.5 -107.5t-155.5 -214.5z M604 1197q12 32 45 105q68 157 72 205q0 42 60 24q59 -18 106 -65q27 -28 28 -49q0 -38 -64.5 -118t-138.5 -143.5t-100 -63.5q-48 0 -8 105z" />
<glyph unicode="&#xea;" horiz-adv-x="729" d="M72 254q0 105 51.5 221t129.5 210.5t164.5 172t162 121t116.5 43.5q23 0 45.5 -9.5t46 -32.5t38 -71.5t14.5 -117.5t-69.5 -164.5t-161 -174.5t-181 -135.5t-129.5 -56.5l-7.5 -15t-11.5 -32.5t-7 -41.5t13.5 -33t43.5 -15q67 0 196 90.5t265.5 229.5t224.5 272 q20 29 46 23q24 -6 16 -37q-3 -13 -13 -29q-16 -26 -74 -96t-151 -169.5t-191 -189.5t-203 -153.5t-178 -63.5q-4 0 -11 0.5t-27.5 6t-39 14t-41 28t-39 45t-27.5 67.5t-11 93zM334 338q176 103 288 258q73 100 72 150q-1 22 -18 22q-31 0 -116.5 -107.5t-155.5 -214.5z M508 1157q7 15 140.5 108.5t158.5 118.5q2 3 5.5 6.5t13 9.5t18.5 5q9 -2 20 -23q1 -1 10 -18t22.5 -43.5t23.5 -44.5q83 -156 79 -170q-7 -8 -12 -6q-28 -1 -90 41.5t-109 91.5q-83 -38 -165.5 -65.5t-108.5 -20.5q-1 0 -3.5 4t-2.5 6z" />
<glyph unicode="&#xeb;" horiz-adv-x="729" d="M72 254q0 105 51.5 221t129.5 210.5t164.5 172t162 121t116.5 43.5q23 0 45.5 -9.5t46 -32.5t38 -71.5t14.5 -117.5t-69.5 -164.5t-161 -174.5t-181 -135.5t-129.5 -56.5l-7.5 -15t-11.5 -32.5t-7 -41.5t13.5 -33t43.5 -15q67 0 196 90.5t265.5 229.5t224.5 272 q20 29 46 23q24 -6 16 -37q-3 -13 -13 -29q-16 -26 -74 -96t-151 -169.5t-191 -189.5t-203 -153.5t-178 -63.5q-4 0 -11 0.5t-27.5 6t-39 14t-41 28t-39 45t-27.5 67.5t-11 93zM334 338q176 103 288 258q73 100 72 150q-1 22 -18 22q-31 0 -116.5 -107.5t-155.5 -214.5z M350 1278q0 56 38 85.5t89 29.5q55 0 95 -29t40 -86q0 -33 -13 -57.5t-29 -36t-37.5 -18t-30.5 -7t-17 -0.5q-53 0 -94 32.5t-41 86.5zM817 1278q0 56 38 85.5t89 29.5q55 0 95 -29t40 -86q0 -33 -13 -57.5t-29 -36t-37.5 -18t-30.5 -7t-17 -0.5q-53 0 -94 32.5t-41 86.5z " />
<glyph unicode="&#xec;" horiz-adv-x="604" d="M80 283q5 63 62 168t137 240.5t118 234.5q3 9 8 37.5t14.5 40.5t31.5 12q46 0 91 -66t36 -174q-5 -60 -118 -240q-117 -189 -140 -230q-89 -165 -27 -190q12 -5 31 -5q30 0 130.5 94.5t225 241t211.5 278.5q20 28 46 22q25 -7 16 -39q-4 -14 -13 -28q-22 -32 -70 -96.5 t-133.5 -169t-168 -192.5t-168 -153t-138.5 -65q-55 0 -95 27.5t-58.5 71t-25.5 89.5t-3 91zM342 1417q0 34 63 78q65 45 107 41q25 -3 25 -29q0 -47 66 -194q63 -138 68 -178q6 -43 -26 -43q-26 0 -100 63.5t-138.5 143.5t-64.5 118z" />
<glyph unicode="&#xed;" horiz-adv-x="604" d="M80 283q5 63 62 168t137 240.5t118 234.5q3 9 8 37.5t14.5 40.5t31.5 12q46 0 91 -66t36 -174q-5 -60 -118 -240q-117 -189 -140 -230q-89 -165 -27 -190q12 -5 31 -5q30 0 130.5 94.5t225 241t211.5 278.5q20 28 46 22q25 -7 16 -39q-4 -14 -13 -28q-22 -32 -70 -96.5 t-133.5 -169t-168 -192.5t-168 -153t-138.5 -65q-55 0 -95 27.5t-58.5 71t-25.5 89.5t-3 91zM565 1197q12 32 45 105q68 157 72 205q0 42 60 24q59 -18 106 -64q28 -29 29 -50q0 -38 -65 -118t-139 -143.5t-100 -63.5q-48 0 -8 105z" />
<glyph unicode="&#xee;" horiz-adv-x="604" d="M80 283q5 63 62 168t137 240.5t118 234.5q3 9 8 37.5t14.5 40.5t31.5 12q46 0 91 -66t36 -174q-5 -60 -118 -240q-117 -189 -140 -230q-89 -165 -27 -190q12 -5 31 -5q30 0 130.5 94.5t225 241t211.5 278.5q20 28 46 22q25 -7 16 -39q-4 -14 -13 -28q-22 -32 -70 -96.5 t-133.5 -169t-168 -192.5t-168 -153t-138.5 -65q-55 0 -95 27.5t-58.5 71t-25.5 89.5t-3 91zM289 1133q5 13 63 64.5t125.5 110t87.5 81.5q13 24 33 24q11 -2 25 -20q1 -1 11 -17.5t25.5 -42t26.5 -41.5q100 -149 96 -162q-8 -8 -10 -8q-28 -3 -93 34t-118 81 q-79 -46 -158.5 -81.5t-105.5 -31.5q-1 0 -4.5 3.5t-3.5 5.5z" />
<glyph unicode="&#xef;" horiz-adv-x="604" d="M80 283q5 63 62 168t137 240.5t118 234.5q3 9 8 37.5t14.5 40.5t31.5 12q46 0 91 -66t36 -174q-5 -60 -118 -240q-117 -189 -140 -230q-89 -165 -27 -190q12 -5 31 -5q30 0 130.5 94.5t225 241t211.5 278.5q20 28 46 22q25 -7 16 -39q-4 -14 -13 -28q-22 -32 -70 -96.5 t-133.5 -169t-168 -192.5t-168 -153t-138.5 -65q-55 0 -95 27.5t-58.5 71t-25.5 89.5t-3 91zM227 1278q0 56 38 85.5t89 29.5q55 0 95 -29t40 -86q0 -33 -13 -57.5t-29 -36t-37.5 -18t-30.5 -7t-17 -0.5q-53 0 -94 32.5t-41 86.5zM592 1278q0 56 38 85.5t89 29.5 q55 0 95 -29t40 -86q0 -33 -13 -57.5t-29 -36t-37.5 -18t-30.5 -7t-17 -0.5q-53 0 -94 32.5t-41 86.5z" />
<glyph unicode="&#xf1;" horiz-adv-x="978" d="M12 225q0 46 42 126.5t101.5 169t119 179t101.5 178t42 144.5q0 29 27 26q36 -5 73 -58q49 -72 49 -179q0 -44 -17.5 -86t-34.5 -62l-17 -20l21.5 21.5t53.5 53t77.5 75.5t85.5 79.5t86 75t71 53t47 21.5q51 0 83 -62.5t32 -142.5q0 -44 -154 -281q-163 -251 -194 -305 q-73 -127 -37 -127q58 0 170 101.5t225 240.5t209 283q19 29 44 23q23 -5 17 -35q-4 -15 -14 -31q-21 -32 -68 -97.5t-131.5 -171.5t-166.5 -195.5t-169.5 -155.5t-144.5 -66q-60 0 -99.5 72.5t-39.5 187.5q0 48 31 125.5t76 154t89.5 146t75.5 112.5l31 44q-33 0 -194 -174 t-310 -367t-149 -238q0 -65 -30.5 -62.5t-65.5 62.5q-44 76 -44 162zM451 1325q0 16 28 16q10 0 21 -12.5t34.5 -25.5t61.5 -13q46 0 97.5 16.5t90 37t89 37t94.5 16.5q67 0 133.5 -33t111.5 -80q10 -10 19.5 -25t9.5 -18v-3.5v-4.5t-1 -4.5t-3 -4t-6 -2.5t-10 -1 q-15 0 -34.5 15.5t-46.5 31.5t-61 16q-44 0 -100.5 -19.5t-101 -43t-99 -43t-96.5 -19.5q-88 0 -154.5 51.5t-76.5 114.5z" />
<glyph unicode="&#xf2;" horiz-adv-x="897" d="M102 258q0 106 42.5 219.5t111 208t149.5 171t164.5 120t149.5 43.5q152 0 248 -162q1 -4 1.5 -9.5t-7 -11.5t-18 -11t-31 -8t-46.5 -3q-154 0 -318 -184q-127 -141 -199 -315q-62 -151 -32 -207q12 -23 39 -23q34 0 82 25t92 60.5t83.5 71t62.5 60.5l24 25 q-18 51 -18 125q0 85 60 136q48 41 93 26q50 -17 50 -95q0 -54 -103 -188q5 -5 18.5 -10t20.5 -5q33 0 65.5 20t80.5 79.5t77.5 102.5t103.5 154q7 10 11 16l10 15t11 17q18 27 42 23q23 -3 20 -30q-1 -16 -15 -36q-1 -2 -31 -52t-55 -88.5t-69 -97t-82.5 -97.5t-86 -68 t-88.5 -29q-39 0 -74 26q-12 -16 -22 -26q-11 -13 -29 -33q-180 -187 -332 -209q-2 -2 -6 -2q-8 0 -10 -2h-20q-36 0 -70 10.5t-70 36.5t-58 80t-22 131zM616 1417q0 34 63 78q65 45 107 41q25 -3 25 -29q0 -47 67 -194q62 -138 68 -178q6 -43 -26 -43q-26 0 -100 63.5 t-139 143.5t-65 118z" />
<glyph unicode="&#xf3;" horiz-adv-x="897" d="M102 258q0 106 42.5 219.5t111 208t149.5 171t164.5 120t149.5 43.5q152 0 248 -162q1 -4 1.5 -9.5t-7 -11.5t-18 -11t-31 -8t-46.5 -3q-154 0 -318 -184q-127 -141 -199 -315q-62 -151 -32 -207q12 -23 39 -23q34 0 82 25t92 60.5t83.5 71t62.5 60.5l24 25 q-18 51 -18 125q0 85 60 136q48 41 93 26q50 -17 50 -95q0 -54 -103 -188q5 -5 18.5 -10t20.5 -5q33 0 65.5 20t80.5 79.5t77.5 102.5t103.5 154q7 10 11 16l10 15t11 17q18 27 42 23q23 -3 20 -30q-1 -16 -15 -36q-1 -2 -31 -52t-55 -88.5t-69 -97t-82.5 -97.5t-86 -68 t-88.5 -29q-39 0 -74 26q-12 -16 -22 -26q-11 -13 -29 -33q-180 -187 -332 -209q-2 -2 -6 -2q-8 0 -10 -2h-20q-36 0 -70 10.5t-70 36.5t-58 80t-22 131zM811 1197q12 32 45 105q68 157 72 205q0 42 60 24q59 -18 106 -65q28 -28 28 -49q0 -38 -64.5 -118t-138.5 -143.5 t-100 -63.5q-48 0 -8 105z" />
<glyph unicode="&#xf4;" horiz-adv-x="897" d="M102 258q0 106 42.5 219.5t111 208t149.5 171t164.5 120t149.5 43.5q152 0 248 -162q1 -4 1.5 -9.5t-7 -11.5t-18 -11t-31 -8t-46.5 -3q-154 0 -318 -184q-127 -141 -199 -315q-62 -151 -32 -207q12 -23 39 -23q34 0 82 25t92 60.5t83.5 71t62.5 60.5l24 25 q-18 51 -18 125q0 85 60 136q48 41 93 26q50 -17 50 -95q0 -54 -103 -188q5 -5 18.5 -10t20.5 -5q33 0 65.5 20t80.5 79.5t77.5 102.5t103.5 154q7 10 11 16l10 15t11 17q18 27 42 23q23 -3 20 -30q-1 -16 -15 -36q-1 -2 -31 -52t-55 -88.5t-69 -97t-82.5 -97.5t-86 -68 t-88.5 -29q-39 0 -74 26q-12 -16 -22 -26q-11 -13 -29 -33q-180 -187 -332 -209q-2 -2 -6 -2q-8 0 -10 -2h-20q-36 0 -70 10.5t-70 36.5t-58 80t-22 131zM516 1137q6 16 132 121t149 131q14 22 34 22q8 0 23 -20q1 -1 11 -18t25.5 -42.5t27.5 -42.5q96 -149 92 -162 q-8 -8 -11 -8q-28 -3 -92.5 35t-115.5 82q-84 -46 -163 -79t-106 -28q-1 0 -3.5 3.5t-2.5 5.5z" />
<glyph unicode="&#xf5;" horiz-adv-x="897" d="M102 258q0 106 42.5 219.5t111 208t149.5 171t164.5 120t149.5 43.5q152 0 248 -162q1 -4 1.5 -9.5t-7 -11.5t-18 -11t-31 -8t-46.5 -3q-154 0 -318 -184q-127 -141 -199 -315q-62 -151 -32 -207q12 -23 39 -23q34 0 82 25t92 60.5t83.5 71t62.5 60.5l24 25 q-18 51 -18 125q0 85 60 136q48 41 93 26q50 -17 50 -95q0 -54 -103 -188q5 -5 18.5 -10t20.5 -5q33 0 65.5 20t80.5 79.5t77.5 102.5t103.5 154q7 10 11 16l10 15t11 17q18 27 42 23q23 -3 20 -30q-1 -16 -15 -36q-1 -2 -31 -52t-55 -88.5t-69 -97t-82.5 -97.5t-86 -68 t-88.5 -29q-39 0 -74 26q-12 -16 -22 -26q-11 -13 -29 -33q-180 -187 -332 -209q-2 -2 -6 -2q-8 0 -10 -2h-20q-36 0 -70 10.5t-70 36.5t-58 80t-22 131zM412 1292q0 17 26 17q8 0 16.5 -7.5t16.5 -17t27.5 -17t46.5 -7.5q66 0 175 50t171 50t124.5 -31t104.5 -74 q27 -27 27 -41q0 -5 -0.5 -7.5t-5 -6.5t-13.5 -4q-13 0 -27 9t-26 20.5t-33.5 20.5t-46.5 9q-62 0 -186 -58t-182 -58q-84 0 -145.5 47.5t-69.5 105.5z" />
<glyph unicode="&#xf6;" horiz-adv-x="897" d="M102 258q0 106 42.5 219.5t111 208t149.5 171t164.5 120t149.5 43.5q152 0 248 -162q1 -4 1.5 -9.5t-7 -11.5t-18 -11t-31 -8t-46.5 -3q-154 0 -318 -184q-127 -141 -199 -315q-62 -151 -32 -207q12 -23 39 -23q34 0 82 25t92 60.5t83.5 71t62.5 60.5l24 25 q-18 51 -18 125q0 85 60 136q48 41 93 26q50 -17 50 -95q0 -54 -103 -188q5 -5 18.5 -10t20.5 -5q33 0 65.5 20t80.5 79.5t77.5 102.5t103.5 154q7 10 11 16l10 15t11 17q18 27 42 23q23 -3 20 -30q-1 -16 -15 -36q-1 -2 -31 -52t-55 -88.5t-69 -97t-82.5 -97.5t-86 -68 t-88.5 -29q-39 0 -74 26q-12 -16 -22 -26q-11 -13 -29 -33q-180 -187 -332 -209q-2 -2 -6 -2q-8 0 -10 -2h-20q-36 0 -70 10.5t-70 36.5t-58 80t-22 131zM391 1278q0 56 38 85.5t89 29.5q55 0 95 -29t40 -86q0 -33 -13 -57.5t-29 -36t-37.5 -18t-30.5 -7t-17 -0.5 q-53 0 -94 32.5t-41 86.5zM858 1278q0 56 38 85.5t89 29.5q55 0 95 -29t40 -86q0 -33 -13 -57.5t-29 -36t-37.5 -18t-30.5 -7t-17 -0.5q-53 0 -94 32.5t-41 86.5z" />
<glyph unicode="&#xf7;" horiz-adv-x="1406" d="M401 608q2 16 13 17q2 0 148.5 -10t355 -18t348.5 -1q52 0 80 -20.5t28 -38.5q2 -17 -36.5 -31.5t-105 -24.5t-144 -18t-166 -12.5t-157.5 -8t-132.5 -5.5t-77.5 -3q-63 -1 -117 78q-40 58 -37 96zM678 215q0 56 38 85.5t89 29.5q55 0 95 -29t40 -86q0 -33 -13 -57.5 t-29 -36t-37.5 -18t-30.5 -7t-17 -0.5q-53 0 -94 32.5t-41 86.5zM905 825q0 56 38 85.5t89 29.5q55 0 95 -29t40 -86q0 -33 -13 -57.5t-29 -35.5t-37.5 -17.5t-30.5 -7t-17 -0.5q-53 0 -94 32t-41 86z" />
<glyph unicode="&#xf9;" horiz-adv-x="1036" d="M20 219q3 47 62.5 157t129 219.5t129.5 229.5t65 185q2 22 42 11q56 -15 98 -70q43 -57 38 -130q-5 -70 -152 -302q-18 -28 -54 -83q-138 -215 -165 -281q-28 -71 12 -71q20 0 128 113t231.5 261.5t225.5 310t108 243.5q2 22 39 7q52 -21 91 -79q42 -64 37 -139 q-5 -73 -155 -308q-17 -28 -53 -83q-134 -208 -157 -269q-23 -59 11 -59q30 0 134.5 100t232.5 252t215 283q19 28 45 22q24 -6 16 -36q-3 -13 -14 -29q-17 -27 -69 -96.5t-135 -170t-167 -190t-169.5 -153.5t-137.5 -64q-53 0 -92.5 38.5t-56 92.5t-11.5 113t35 98 q-10 -14 -27 -37t-66 -82t-93 -104t-96 -82t-87 -37q-74 0 -125 55t-43 164zM571 1417q0 34 63 78q65 45 107 41q25 -3 25 -29q0 -47 66 -194q63 -138 68 -178q6 -43 -26 -43q-26 0 -100 63.5t-138.5 143.5t-64.5 118z" />
<glyph unicode="&#xfa;" horiz-adv-x="1036" d="M20 219q3 47 62.5 157t129 219.5t129.5 229.5t65 185q2 22 42 11q56 -15 98 -70q43 -57 38 -130q-5 -70 -152 -302q-18 -28 -54 -83q-138 -215 -165 -281q-28 -71 12 -71q20 0 128 113t231.5 261.5t225.5 310t108 243.5q2 22 39 7q52 -21 91 -79q42 -64 37 -139 q-5 -73 -155 -308q-17 -28 -53 -83q-134 -208 -157 -269q-23 -59 11 -59q30 0 134.5 100t232.5 252t215 283q19 28 45 22q24 -6 16 -36q-3 -13 -14 -29q-17 -27 -69 -96.5t-135 -170t-167 -190t-169.5 -153.5t-137.5 -64q-53 0 -92.5 38.5t-56 92.5t-11.5 113t35 98 q-10 -14 -27 -37t-66 -82t-93 -104t-96 -82t-87 -37q-74 0 -125 55t-43 164zM778 1197q12 32 45 105q68 157 72 205q0 42 60 24q59 -18 106 -64q28 -29 29 -50q0 -38 -65 -118t-139 -143.5t-100 -63.5q-48 0 -8 105z" />
<glyph unicode="&#xfb;" horiz-adv-x="1036" d="M20 219q3 47 62.5 157t129 219.5t129.5 229.5t65 185q2 22 42 11q56 -15 98 -70q43 -57 38 -130q-5 -70 -152 -302q-18 -28 -54 -83q-138 -215 -165 -281q-28 -71 12 -71q20 0 128 113t231.5 261.5t225.5 310t108 243.5q2 22 39 7q52 -21 91 -79q42 -64 37 -139 q-5 -73 -155 -308q-17 -28 -53 -83q-134 -208 -157 -269q-23 -59 11 -59q30 0 134.5 100t232.5 252t215 283q19 28 45 22q24 -6 16 -36q-3 -13 -14 -29q-17 -27 -69 -96.5t-135 -170t-167 -190t-169.5 -153.5t-137.5 -64q-53 0 -92.5 38.5t-56 92.5t-11.5 113t35 98 q-10 -14 -27 -37t-66 -82t-93 -104t-96 -82t-87 -37q-74 0 -125 55t-43 164zM569 1157q7 15 140.5 108.5t158.5 118.5q2 3 5.5 6.5t13 9.5t18.5 5q11 -2 21 -23q1 -1 9.5 -18t22 -43.5t23.5 -44.5q84 -158 80 -170q-7 -8 -12 -6q-28 -1 -90 41.5t-109 91.5 q-83 -38 -166 -65.5t-109 -20.5q-1 0 -3.5 4t-2.5 6z" />
<glyph unicode="&#xfc;" horiz-adv-x="1036" d="M20 219q3 47 62.5 157t129 219.5t129.5 229.5t65 185q2 22 42 11q56 -15 98 -70q43 -57 38 -130q-5 -70 -152 -302q-18 -28 -54 -83q-138 -215 -165 -281q-28 -71 12 -71q20 0 128 113t231.5 261.5t225.5 310t108 243.5q2 22 39 7q52 -21 91 -79q42 -64 37 -139 q-5 -73 -155 -308q-17 -28 -53 -83q-134 -208 -157 -269q-23 -59 11 -59q30 0 134.5 100t232.5 252t215 283q19 28 45 22q24 -6 16 -36q-3 -13 -14 -29q-17 -27 -69 -96.5t-135 -170t-167 -190t-169.5 -153.5t-137.5 -64q-53 0 -92.5 38.5t-56 92.5t-11.5 113t35 98 q-10 -14 -27 -37t-66 -82t-93 -104t-96 -82t-87 -37q-74 0 -125 55t-43 164zM494 1278q0 56 38 85.5t89 29.5q55 0 95 -29t40 -86q0 -33 -13 -57.5t-29 -36t-37.5 -18t-30.5 -7t-17 -0.5q-53 0 -94 32.5t-41 86.5zM858 1278q0 56 38 85.5t89 29.5q55 0 95 -29t40 -86 q0 -33 -13 -57.5t-29 -36t-37.5 -18t-30.5 -7t-17 -0.5q-53 0 -94 32.5t-41 86.5z" />
<glyph unicode="&#xfd;" horiz-adv-x="956" d="M-489 -573q-3 37 71 98.5t182.5 123t217.5 117t186 90.5l76 35q26 28 92 132q-35 -21 -57 -21q-72 0 -135.5 55.5t-73.5 161.5q-4 48 45 157.5t109 219t108 228.5t43 184q-2 22 31 12q49 -16 94 -73q46 -62 53 -136q6 -72 -115 -306l-48 -90q-109 -207 -126 -268t19 -61 q51 0 145 114t181.5 265.5t150 313t55.5 245.5q-2 18 26 2q46 -25 84 -88q38 -62 44 -129q6 -82 -68 -256.5t-207 -396.5q107 76 273.5 247.5t269.5 325.5q19 29 44 23q23 -5 17 -35q-4 -15 -14 -31q-21 -31 -95 -120.5t-177 -204.5t-216.5 -213.5t-185.5 -124.5l-6 -9 l-24 -39q-214 -319 -443 -520q-124 -117 -222.5 -174t-211.5 -57q-67 0 -126 54.5t-66 148.5zM-436 -586q3 -27 23 -43t48 -16q56 0 132 45.5t144.5 110.5t128.5 130t96 111l36 45l-218 -116q-394 -215 -390 -267zM706 1196q12 33 46 107q67 156 71 204q0 42 60 24 q59 -18 106 -64q28 -29 29 -50q0 -38 -64.5 -118t-138.5 -143.5t-100 -63.5q-48 0 -9 104z" />
<glyph unicode="&#xff;" horiz-adv-x="956" d="M-489 -573q-3 37 71 98.5t182.5 123t217.5 117t186 90.5l76 35q26 28 92 132q-35 -21 -57 -21q-72 0 -135.5 55.5t-73.5 161.5q-4 48 45 157.5t109 219t108 228.5t43 184q-2 22 31 12q49 -16 94 -73q46 -62 53 -136q6 -72 -115 -306l-48 -90q-109 -207 -126 -268t19 -61 q51 0 145 114t181.5 265.5t150 313t55.5 245.5q-2 18 26 2q46 -25 84 -88q38 -62 44 -129q6 -82 -68 -256.5t-207 -396.5q107 76 273.5 247.5t269.5 325.5q19 29 44 23q23 -5 17 -35q-4 -15 -14 -31q-21 -31 -95 -120.5t-177 -204.5t-216.5 -213.5t-185.5 -124.5l-6 -9 l-24 -39q-214 -319 -443 -520q-124 -117 -222.5 -174t-211.5 -57q-67 0 -126 54.5t-66 148.5zM-436 -586q3 -27 23 -43t48 -16q56 0 132 45.5t144.5 110.5t128.5 130t96 111l36 45l-218 -116q-394 -215 -390 -267zM387 1278q0 56 38 85.5t89 29.5q55 0 95 -29t40 -86 q0 -33 -13 -57.5t-29 -36t-37.5 -18t-30.5 -7t-17 -0.5q-53 0 -94 32.5t-41 86.5zM752 1278q0 56 38 85.5t89 29.5q55 0 95 -29t40 -86q0 -33 -13 -57.5t-29 -36t-37.5 -18t-30.5 -7t-17 -0.5q-53 0 -94 32.5t-41 86.5z" />
<glyph unicode="&#x152;" horiz-adv-x="2547" d="M4 608q0 152 52.5 319t134 304.5t175.5 250.5t183.5 176.5t150.5 63.5q44 0 79 -7.5t53.5 -19t30 -22.5t15.5 -19l3 -7q6 8 17 21t47.5 50.5t76 72t100.5 76.5t123 72.5t142 51t159 20.5q174 0 278.5 -114.5t104.5 -337.5q0 -177 -86 -404q216 66 369 66q-5 5 -13.5 14 t-29.5 41t-37 66.5t-29.5 89t-13.5 110.5q0 119 92.5 228t245 175t319.5 66q96 0 172.5 -21.5t120.5 -52.5t73.5 -68.5t39.5 -65.5t10 -48q0 -39 -28 -43q-21 -3 -26 12q-1 3 -1 5q-3 6 -9.5 15.5t-35 34t-65.5 43.5t-104.5 34.5t-148.5 15.5q-77 0 -144.5 -27.5 t-112.5 -69.5t-77.5 -91t-47.5 -92t-15 -74q0 -66 13 -118t34.5 -83t47 -53.5t51 -34t47 -19t34.5 -13.5t13 -13q0 -33 -9 -44q-31 -42 -211 -42q-149 0 -278.5 -33.5t-224 -92t-162.5 -138t-101.5 -173t-33.5 -194.5q0 -205 99 -319.5t280 -114.5q53 0 92 5t57 12.5 t29 14.5t12 12l2 5q-8 10 -8 106q0 27 9.5 53t23.5 43t28 30.5t23 19.5l10 6q-9 -37 -4 -80.5t16 -79.5l11 -37q5 2 12.5 6t27.5 18t35.5 31.5t28 46.5t12.5 62t-10 54.5t-24 29t-28 10.5t-24 1l-10 -1q1 3 3 7.5t10.5 15.5t19.5 20t29.5 16t40.5 7q62 0 100.5 -43.5 t38.5 -136.5q0 -127 -201 -271q112 -176 276 -270t300 -65q41 8 68 25.5t34 30.5l6 13q-20 23 -9 58q9 27 24 24q16 -3 24 -45q17 -86 -44 -162t-204 -108q-81 -16 -165.5 12.5t-159 91.5t-140 147.5t-118.5 184.5q-11 -5 -31.5 -12t-85 -19t-129.5 -12q-571 0 -703 360 q-171 -160 -346.5 -251t-339.5 -91q-79 0 -154 19t-150.5 68t-131 124t-90.5 195.5t-35 273.5zM297 522q0 -222 73.5 -349.5t207.5 -127.5q327 0 641 373q-7 47 -7 90q0 183 123 336h-37q-85 0 -157 29.5t-118.5 76.5t-83.5 104t-56.5 114t-32 104t-16.5 76l-3 30 q-11 -9 -30.5 -24.5t-75 -67t-105.5 -105.5t-112 -134.5t-106 -160t-74.5 -176.5t-30.5 -188zM1055 1300q0 -148 73.5 -250t190.5 -102q77 0 154 25q57 41 141 88q16 37 31.5 77.5t35.5 106t31 123t12 120t-14.5 106.5t-56.5 73t-107 29q-93 0 -175 -28.5t-138.5 -73 t-97.5 -98.5t-60.5 -104.5t-19.5 -91.5z" />
<glyph unicode="&#x153;" horiz-adv-x="1355" d="M104 258q0 131 65 272.5t159 247t202 174t191 68.5q79 0 142.5 -45.5t103.5 -116.5q6 -8 0 -17.5t-32 -17.5t-69 -8q-154 0 -318 -184q-127 -141 -199 -315q-62 -151 -32 -207q12 -23 39 -23q34 0 82.5 25t92.5 60.5t83 71t62 60.5l24 25q-18 51 -18 125q0 78 50.5 126.5 t98.5 36.5q111 159 265.5 278.5t228.5 119.5q18 0 35 -4t37.5 -18.5t35.5 -37.5t25 -65t10 -98q0 -69 -70 -164.5t-161.5 -174.5t-181 -135.5t-129.5 -56.5l-7.5 -15t-11.5 -32.5t-6.5 -41.5t14 -33t43.5 -15q66 0 195 90.5t266 229.5t226 272q20 29 45 23q24 -6 17 -36 q-4 -14 -15 -30q-16 -26 -74 -96t-151 -169.5t-191 -189.5t-203 -153.5t-178 -63.5q-7 0 -19.5 1.5t-44.5 14t-57 33.5t-47.5 66.5t-26.5 107.5l-10 -10q-176 -187 -330 -209q-2 -2 -8 -2t-10 -2h-20q-27 0 -53.5 5.5t-57.5 23t-53.5 44.5t-38 75t-15.5 110zM961 338 q176 103 289 257q73 100 72 151q-1 22 -19 22q-30 0 -115.5 -107.5t-155.5 -214.5z" />
<glyph unicode="&#x178;" horiz-adv-x="1280" d="M-739 965q-11 118 33.5 243.5t130 238.5t209.5 215t266.5 176t307.5 117.5t327 43.5q85 0 151 -25.5t104.5 -61.5t64.5 -86t36 -89t14 -80q7 -85 -60.5 -261t-166 -365.5t-196 -367.5t-154.5 -292.5t-37 -114.5q35 0 250.5 165.5t413.5 330.5l198 166l76 141 q190 351 190 450q0 26 37 20q54 -7 106 -63q72 -78 72 -194q0 -54 -78 -207q-630 -1215 -788 -1505q-46 -97 -96 -181q-283 -479 -568 -559q-78 -22 -161 24t-115 155q-13 45 61 145t188 211t230 216t199 173l82 68q81 116 206.5 355t210.5 420l85 181q-23 -35 -131.5 -152 t-249 -256t-285.5 -246.5t-217 -107.5q-50 0 -88.5 21t-60 52.5t-35 75.5t-17.5 82.5t-4 81.5q0 58 76 212t184 340.5t216.5 373t184.5 344t76 221.5q0 63 -62 107.5t-157 44.5q-58 0 -134 -23.5t-159 -66t-170 -104.5t-167.5 -134.5t-150.5 -160.5t-119.5 -179.5 t-74.5 -194t-16 -200.5q5 -66 25 -115.5t44.5 -75t56.5 -41t54 -19t43 -3.5q56 0 91.5 16t49 39t21 46t17.5 39t30 16q28 0 37 -35q14 -51 -27 -103q-72 -90 -256 -90q-92 0 -169 26.5t-127 67.5t-85.5 94.5t-52 104t-20.5 99.5zM-104 -997q9 -32 37 -44t61 -1 q67 19 146 99.5t144.5 182t122 200t87.5 165.5l32 67l-193 -176q-456 -428 -437 -493z" />
<glyph unicode="&#x2c6;" horiz-adv-x="759" d="M145 1200q6 13 228 154q56 39 78 2q11 -17 29 -47.5t30 -49t28.5 -40t34.5 -34t37 -16.5q6 -2 -7 -7q-36 -15 -87 -15q-37 0 -70 21.5t-71 76.5q-128 -84 -148 -84q-12 -1 -33.5 6t-37 16.5t-11.5 16.5z" />
<glyph unicode="&#x2dc;" horiz-adv-x="978" d="M567 1270q0 12 21 12q6 0 14 -9t24.5 -18.5t43.5 -9.5q50 0 133 38t129 38q48 0 95 -23t79 -57q20 -20 20 -31q0 -14 -14 -14q-11 0 -40 22.5t-60 22.5q-48 0 -143 -44t-138 -44q-63 0 -110.5 36.5t-53.5 80.5z" />
<glyph unicode="&#x2000;" horiz-adv-x="1277" />
<glyph unicode="&#x2001;" horiz-adv-x="2554" />
<glyph unicode="&#x2002;" horiz-adv-x="1277" />
<glyph unicode="&#x2003;" horiz-adv-x="2554" />
<glyph unicode="&#x2004;" horiz-adv-x="851" />
<glyph unicode="&#x2005;" horiz-adv-x="638" />
<glyph unicode="&#x2006;" horiz-adv-x="425" />
<glyph unicode="&#x2007;" horiz-adv-x="425" />
<glyph unicode="&#x2008;" horiz-adv-x="319" />
<glyph unicode="&#x2009;" horiz-adv-x="510" />
<glyph unicode="&#x200a;" horiz-adv-x="141" />
<glyph unicode="&#x2010;" horiz-adv-x="1284" d="M166 846q-6 16 8 37q13 17 37 20q19 4 34.5 -3.5t20.5 -22.5v-3q3 -10 1 -19t0.5 -14t13.5 -3q6 1 110 49.5t241 103.5t224 74q72 15 132.5 -16.5t68.5 -61.5q8 -23 -6 -37q-14 -17 -35 -20q-2 -2 -4 -2q-29 -4 -43 10q-8 5 -11 12q-27 9 -88 -4q-4 0 -16 -4 q-74 -18 -242 -70q-137 -41 -264 -75q-2 0 -7 -1t-7 -1q-77 -17 -118.5 2.5t-49.5 48.5zM205 193q-8 26 6 45q14 21 35 24h2q12 4 27 1.5t18 -13.5q3 -16 -2.5 -30.5t-1.5 -31.5q6 -11 35 -7.5t82 20t112 38t124.5 47t119 47.5t96 38.5t55.5 19.5q7 0 15 4q77 17 119.5 -9.5 t52.5 -63.5q7 -24 -6 -46q-14 -21 -35 -24q-20 -5 -38 6t-22 31q-3 15 -1 26.5t-0.5 17.5t-14.5 3q-7 -1 -109 -55t-238 -115.5t-224 -79.5q-72 -17 -134.5 26t-72.5 81zM330 492q0 59 20.5 119.5t64 105.5t99.5 45q37 0 67.5 -38.5t30.5 -135.5q0 -101 -48.5 -171.5 t-96.5 -70.5q-23 0 -45.5 7.5t-44 23t-34.5 45.5t-13 70zM406 504q0 -60 19 -87.5t44 -27.5q23 0 45.5 55.5t22.5 135.5q0 54 -8.5 87.5t-17.5 42.5t-19 9q-38 0 -62 -70t-24 -145zM666 412q0 3 14 46q8 25 8 42v237q0 12 -6 24t-9.5 18t3.5 13t29 13q9 2 52 16t79 23.5 t53 9.5q6 0 11 -2t8 -6.5t4.5 -8.5t2 -12t0.5 -12.5v-14.5v-14q0 -22 -5 -23t-17 13q-8 8 -21.5 14t-22.5 8l-9 1q-36 -9 -52 -15q-16 -5 -23 -16t-7 -39v-55q7 1 26 6t23 6q3 1 7 5t7 8q7 10 9.5 10t3.5 -15q0 -71 -9 -71q-4 0 -10.5 7.5t-15.5 4.5l-41 -12v-27v-88 q0 -13 3 -25.5t6.5 -21t6 -15.5t0.5 -11.5t-10 -6.5q-36 -7 -78 -20q-20 -6 -20 6z" />
<glyph unicode="&#x2011;" horiz-adv-x="1284" d="M166 846q-6 16 8 37q13 17 37 20q19 4 34.5 -3.5t20.5 -22.5v-3q3 -10 1 -19t0.5 -14t13.5 -3q6 1 110 49.5t241 103.5t224 74q72 15 132.5 -16.5t68.5 -61.5q8 -23 -6 -37q-14 -17 -35 -20q-2 -2 -4 -2q-29 -4 -43 10q-8 5 -11 12q-27 9 -88 -4q-4 0 -16 -4 q-74 -18 -242 -70q-137 -41 -264 -75q-2 0 -7 -1t-7 -1q-77 -17 -118.5 2.5t-49.5 48.5zM205 193q-8 26 6 45q14 21 35 24h2q12 4 27 1.5t18 -13.5q3 -16 -2.5 -30.5t-1.5 -31.5q6 -11 35 -7.5t82 20t112 38t124.5 47t119 47.5t96 38.5t55.5 19.5q7 0 15 4q77 17 119.5 -9.5 t52.5 -63.5q7 -24 -6 -46q-14 -21 -35 -24q-20 -5 -38 6t-22 31q-3 15 -1 26.5t-0.5 17.5t-14.5 3q-7 -1 -109 -55t-238 -115.5t-224 -79.5q-72 -17 -134.5 26t-72.5 81zM330 492q0 59 20.5 119.5t64 105.5t99.5 45q37 0 67.5 -38.5t30.5 -135.5q0 -101 -48.5 -171.5 t-96.5 -70.5q-23 0 -45.5 7.5t-44 23t-34.5 45.5t-13 70zM406 504q0 -60 19 -87.5t44 -27.5q23 0 45.5 55.5t22.5 135.5q0 54 -8.5 87.5t-17.5 42.5t-19 9q-38 0 -62 -70t-24 -145zM666 412q0 3 14 46q8 25 8 42v237q0 12 -6 24t-9.5 18t3.5 13t29 13q9 2 52 16t79 23.5 t53 9.5q6 0 11 -2t8 -6.5t4.5 -8.5t2 -12t0.5 -12.5v-14.5v-14q0 -22 -5 -23t-17 13q-8 8 -21.5 14t-22.5 8l-9 1q-36 -9 -52 -15q-16 -5 -23 -16t-7 -39v-55q7 1 26 6t23 6q3 1 7 5t7 8q7 10 9.5 10t3.5 -15q0 -71 -9 -71q-4 0 -10.5 7.5t-15.5 4.5l-41 -12v-27v-88 q0 -13 3 -25.5t6.5 -21t6 -15.5t0.5 -11.5t-10 -6.5q-36 -7 -78 -20q-20 -6 -20 6z" />
<glyph unicode="&#x2012;" horiz-adv-x="1284" d="M166 846q-6 16 8 37q13 17 37 20q19 4 34.5 -3.5t20.5 -22.5v-3q3 -10 1 -19t0.5 -14t13.5 -3q6 1 110 49.5t241 103.5t224 74q72 15 132.5 -16.5t68.5 -61.5q8 -23 -6 -37q-14 -17 -35 -20q-2 -2 -4 -2q-29 -4 -43 10q-8 5 -11 12q-27 9 -88 -4q-4 0 -16 -4 q-74 -18 -242 -70q-137 -41 -264 -75q-2 0 -7 -1t-7 -1q-77 -17 -118.5 2.5t-49.5 48.5zM205 193q-8 26 6 45q14 21 35 24h2q12 4 27 1.5t18 -13.5q3 -16 -2.5 -30.5t-1.5 -31.5q6 -11 35 -7.5t82 20t112 38t124.5 47t119 47.5t96 38.5t55.5 19.5q7 0 15 4q77 17 119.5 -9.5 t52.5 -63.5q7 -24 -6 -46q-14 -21 -35 -24q-20 -5 -38 6t-22 31q-3 15 -1 26.5t-0.5 17.5t-14.5 3q-7 -1 -109 -55t-238 -115.5t-224 -79.5q-72 -17 -134.5 26t-72.5 81zM330 492q0 59 20.5 119.5t64 105.5t99.5 45q37 0 67.5 -38.5t30.5 -135.5q0 -101 -48.5 -171.5 t-96.5 -70.5q-23 0 -45.5 7.5t-44 23t-34.5 45.5t-13 70zM406 504q0 -60 19 -87.5t44 -27.5q23 0 45.5 55.5t22.5 135.5q0 54 -8.5 87.5t-17.5 42.5t-19 9q-38 0 -62 -70t-24 -145zM666 412q0 3 14 46q8 25 8 42v237q0 12 -6 24t-9.5 18t3.5 13t29 13q9 2 52 16t79 23.5 t53 9.5q6 0 11 -2t8 -6.5t4.5 -8.5t2 -12t0.5 -12.5v-14.5v-14q0 -22 -5 -23t-17 13q-8 8 -21.5 14t-22.5 8l-9 1q-36 -9 -52 -15q-16 -5 -23 -16t-7 -39v-55q7 1 26 6t23 6q3 1 7 5t7 8q7 10 9.5 10t3.5 -15q0 -71 -9 -71q-4 0 -10.5 7.5t-15.5 4.5l-41 -12v-27v-88 q0 -13 3 -25.5t6.5 -21t6 -15.5t0.5 -11.5t-10 -6.5q-36 -7 -78 -20q-20 -6 -20 6z" />
<glyph unicode="&#x2013;" horiz-adv-x="1406" d="M401 608q2 16 13 17q2 0 148.5 -10t355 -18t348.5 -1q52 0 80 -20.5t28 -38.5q2 -17 -36.5 -31.5t-105 -24.5t-144 -18t-166 -12.5t-157.5 -8t-132.5 -5.5t-77.5 -3q-63 -1 -117 78q-40 58 -37 96z" />
<glyph unicode="&#x2014;" horiz-adv-x="1925" d="M401 608q2 16 13 17q2 0 286 -10t630.5 -18t486.5 -1q52 0 80 -20.5t28 -38.5q2 -17 -67 -31.5t-183.5 -24.5t-251.5 -18t-283 -12.5t-265.5 -8t-211 -5.5t-108.5 -3q-63 -1 -117 78q-40 58 -37 96z" />
<glyph unicode="&#x2018;" horiz-adv-x="718" d="M289 1202q11 21 39 70q61 108 63 141q0 32 65 12q62 -19 96 -52q13 -13 13 -23q0 -26 -58 -81.5t-124 -100t-88 -44.5q-44 0 -6 78z" />
<glyph unicode="&#x2019;" horiz-adv-x="712" d="M283 1214q0 39 117 132.5t155 93.5q43 0 4 -78q-10 -21 -38 -69q-62 -109 -64 -142q0 -32 -65 -12q-62 19 -96 52q-13 13 -13 23z" />
<glyph unicode="&#x201a;" horiz-adv-x="718" d="M582 1436q11 21 39 70q61 108 63 141q0 32 65 12q62 -19 96 -53q13 -13 13 -23q0 -26 -58 -81t-124 -99.5t-88 -44.5q-44 0 -6 78z" />
<glyph unicode="&#x201c;" horiz-adv-x="1038" d="M289 1202q11 21 39 70q61 108 63 141q0 32 65 12q62 -19 96 -52q13 -13 13 -23q0 -26 -58 -81.5t-124 -100t-88 -44.5q-44 0 -6 78zM592 1202q10 21 38 69q62 109 64 142q0 32 65 12q62 -19 96 -52q13 -13 13 -23q0 -39 -117 -132.5t-155 -93.5q-43 0 -4 78z" />
<glyph unicode="&#x201d;" horiz-adv-x="1038" d="M283 1214q0 39 117 132.5t155 93.5q43 0 4 -78q-10 -21 -38 -69q-62 -109 -64 -142q0 -32 -65 -12q-62 19 -96 52q-13 13 -13 23zM586 1214q0 26 58 81.5t124 100t88 44.5q44 0 6 -78q-11 -21 -39 -70q-61 -108 -63 -141q0 -32 -65 -12q-62 19 -96 52q-13 13 -13 23z" />
<glyph unicode="&#x201e;" horiz-adv-x="1038" d="M283 168q0 39 117 132t155 93q43 0 4 -78q-10 -21 -38 -69q-62 -109 -64 -142q0 -32 -65 -12q-62 19 -96 53q-12 13 -13 23zM586 168q0 26 58 81t124 99.5t88 44.5q44 0 6 -78q-11 -21 -39 -70q-61 -108 -63 -141q0 -32 -65 -12q-62 19 -96 53q-12 13 -13 23z" />
<glyph unicode="&#x2022;" horiz-adv-x="456" d="M115 528q0 77 52.5 118.5t123.5 41.5q77 0 133.5 -40t56.5 -120q0 -47 -18.5 -81t-40.5 -49.5t-52.5 -24.5t-43.5 -10t-23 -1q-73 0 -130.5 45.5t-57.5 120.5z" />
<glyph unicode="&#x2026;" horiz-adv-x="1304" d="M115 121q0 56 38.5 86.5t90.5 30.5q56 0 97.5 -29.5t41.5 -87.5q0 -34 -13.5 -59t-30 -36.5t-38.5 -18t-31.5 -7t-17.5 -0.5q-54 0 -95.5 33t-41.5 88zM514 121q0 56 38.5 86.5t90.5 30.5q56 0 97.5 -29.5t41.5 -87.5q0 -34 -13.5 -59t-30 -36.5t-38.5 -18t-31.5 -7 t-17.5 -0.5q-54 0 -95.5 33t-41.5 88zM920 121q0 56 38.5 86.5t90.5 30.5q56 0 97.5 -29.5t41.5 -87.5q0 -34 -13.5 -59t-30 -36.5t-38.5 -18t-31.5 -7t-17.5 -0.5q-54 0 -95.5 33t-41.5 88z" />
<glyph unicode="&#x202f;" horiz-adv-x="510" />
<glyph unicode="&#x2039;" horiz-adv-x="1015" d="M240 614q0 18 15 38t31 32t44 31q26 14 102 67q304 196 359 225q35 18 51 21h8q38 0 41 -32q2 -36 -42 -71q-17 -13 -38 -22q-45 -15 -158 -86q-100 -56 -272 -170q20 -13 101.5 -56t101.5 -56q133 -89 177 -123.5t50 -55.5q10 -62 -43 -129q-27 -34 -57 -34 q-12 0 -20.5 7t-8.5 17q-7 42 -131 141q-65 51 -262 183q-52 30 -49 73z" />
<glyph unicode="&#x203a;" horiz-adv-x="1097" d="M254 186q-40 87 8 164q13 21 129 84q51 29 250 133q17 9 82.5 40t81.5 40q-142 124 -195 168q-104 88 -121 88q-45 34 -36 71.5t55 37.5h10q28 -4 93 -58t220 -196q51 -51 74 -68q58 -49 58 -94q-6 -47 -78 -84q-208 -103 -355 -188q-170 -96 -204 -152q-10 -16 -29 -16 q-20 0 -43 30z" />
<glyph unicode="&#x205f;" horiz-adv-x="638" />
<glyph unicode="&#x20ac;" horiz-adv-x="1351" d="M-23 612q0 15 6.5 24t11.5 11t9 2q20 0 57 -4q16 -1 150 -10q10 37 33 84h-39h-4q-45 0 -82 59q-33 51 -33 92q-1 15 5 24t11 11t9 2h2q1 0 7.5 -0.5l19.5 -1.5t28 -2q20 -2 77.5 -5.5t94.5 -6.5q144 209 385 364q249 162 483 183h2q64 0 115 -39q36 -22 100 -103 q27 -23 45.5 -55t20.5 -53q0 -13 -2 -21v-4v-4q-18 -26 -78 -74t-100 -75q-152 -106 -187 -113h-2h-2q-24 0 -30 25q-1 11 3 22.5t21.5 34t28.5 36t45 52.5q110 123 129 166q-17 10 -47 10q-139 0 -330 -115q-159 -92 -313 -249h53q57 0 80 2h8q38 0 60 -21t24 -45 q2 -26 -41 -43q-17 -7 -82 -18q-93 -17 -225 -23q-22 -30 -68 -106q98 -4 135 -4q59 0 82 2h6q39 0 62.5 -21.5t23.5 -44.5q0 -28 -45 -43q-26 -10 -88 -20q-120 -16 -239 -21q-26 -99 -15 -166l2 -14q5 -24 13.5 -46.5t27.5 -47t45 -42.5t68 -30t94 -12q83 0 174 29.5 t168 82.5q78 49 129 119q57 73 66 143q2 15 3.5 34t2.5 24q0 20 4 28q9 15 29 15h12h25q21 0 39 -21q13 -16 21 -38.5t5 -36.5v-7q-15 -106 -78 -201t-166 -167q-92 -66 -203.5 -102.5t-220.5 -36.5q-102 0 -182 30q-88 34 -147 99q-61 64 -88 155q-26 81 -19 199h-35 q-25 -2 -49 -2h-4q-45 0 -84 61q-29 47 -33 90z" />
<glyph unicode="&#x2122;" horiz-adv-x="1560" d="M352 829q28 109 62 170q39 103 88 201q12 20 32 62t33 63q-72 -16 -157 -41q-41 9 -50 51q-15 32 5 84l2 4q156 22 266 27h6h6q92 6 195 0q119 0 164 -8q-20 -30 -31 -41q-24 -16 -49 -19q-13 4 -88 -10q-16 -3 -32.5 -5t-36 -4t-30.5 -3q-1 -3 -3 -9.5t-3 -9.5 q-112 -139 -258 -383q-24 -37 -37 -75q-19 -27 -39 -41q-5 -1 -13.5 -5t-16.5 -6t-15 -2zM739 829q26 102 64 170q36 102 88 201q57 122 137 250q44 -5 76 -31q12 -12 16 -24q7 -18 14 -50.5t14 -76.5t7 -45q4 -33 8 -58q58 56 169.5 158t144.5 127q43 -5 75 -31 q24 -35 13 -78q-104 -131 -254 -383q-30 -43 -41 -75q-10 -23 -35 -41q-3 -1 -20.5 -7t-26.5 -6q26 102 61 170q41 110 90 201q7 18 26 52t21 38q-107 -71 -151 -102q-11 -10 -21.5 -19t-16.5 -14t-7 -6q-15 -10 -27 -12t-17 1l-5 3q-12 2 -25 28q-2 4 -19.5 46t-29.5 63 q-113 -166 -205 -320q-30 -43 -41 -75q-10 -23 -35 -41q-4 -1 -13.5 -5t-17.5 -6t-16 -2z" />
<glyph unicode="&#x25fc;" horiz-adv-x="1044" d="M0 0v1044h1044v-1044h-1044z" />
</font>
</defs>
</svg>
